<?xml version="1.0" standalone="no"?>
<!DOCTYPE svg PUBLIC "-//W3C//DTD SVG 1.1//EN" "http://www.w3.org/Graphics/SVG/1.1/DTD/svg11.dtd">
<svg width="100%" height="100%" viewBox="0 0 458 400" version="1.1" xmlns="http://www.w3.org/2000/svg" xmlns:xlink="http://www.w3.org/1999/xlink" xml:space="preserve" style="fill-rule:evenodd;clip-rule:evenodd;stroke-linejoin:round;stroke-miterlimit:1.41421;">
    <g>
        <path id="Coffee" d="M338.323,273.833l-1.17,14.677c-2.46,30.862 -4.983,61.717 -7.268,92.588c-0.299,3.985 -1.66,6.785 -5.124,8.748l-199.038,0c-3.185,-2.657 -4.121,-6.123 -4.43,-10.163c-2.511,-33.133 -5.168,-66.252 -7.827,-99.378l-0.523,-6.472l13.018,0l1.02,12.782c66.113,0 131.567,0 197.351,0l1.017,-12.782l12.974,0ZM323.261,299.977l-195.233,0l6.121,76.681c61.222,0 122.051,0 183.011,0l6.101,-76.681ZM103.435,155.085l-0.75,-9.894c-4.066,0 -7.938,0.039 -11.805,-0.009c-5.66,-0.066 -8.179,-2.467 -8.192,-8.118c-0.051,-24.661 -0.055,-49.328 -0.003,-73.99c0.008,-5.407 2.475,-7.768 7.914,-8.016c0.539,-0.027 1.102,-0.118 1.618,-0.012c9.706,1.993 15.304,-2.185 19.888,-10.708c6.53,-12.146 14.467,-23.561 21.98,-35.173c1.389,-2.146 3.61,-3.756 5.451,-5.616c57.406,0 114.816,0 172.23,0c1.999,2.119 4.395,3.989 5.942,6.394c9.004,14.009 17.874,28.108 26.632,42.274c1.405,2.272 2.951,3.046 5.53,2.892c3.506,-0.208 7.037,-0.09 10.551,-0.042c5.8,0.073 8.172,2.502 8.195,8.53c0.048,13.541 0.032,27.083 0.032,40.624c0.008,10.724 0.04,21.451 -0.008,32.175c-0.032,6.453 -2.316,8.711 -8.79,8.807c-3.618,0.054 -7.243,0.011 -11.147,0.011l-0.841,9.871l-13.076,0l0.764,-9.655l-219.811,0l0.768,9.655l-13.072,0ZM355.304,68.18l-259.315,0l0,64.031c86.553,0 172.778,0 259.315,0l0,-64.031ZM330.29,54.869c-0.159,-0.585 -0.174,-0.994 -0.365,-1.292c-7.441,-11.821 -14.851,-23.656 -22.427,-35.391c-0.62,-0.953 -2.364,-1.689 -3.586,-1.689c-52.099,-0.075 -104.198,-0.039 -156.296,-0.102c-2.214,0 -3.348,0.77 -4.459,2.558c-6.811,10.944 -13.753,21.814 -20.627,32.722c-0.607,0.958 -1.075,2 -1.705,3.194c70.052,0 139.667,0 209.465,0Z" style="fill:#757575;"/>
        <g transform="matrix(0.43154,0,0,0.43154,44.9072,135.802)">
            <path d="M141.735,134.265l-3.2,0l0,-24.39l-8.369,0l0,-2.814l19.938,0l0,2.814l-8.369,0l0,24.39Z" style="fill:#808080;fill-rule:nonzero;"/>
            <path d="M167.152,134.265l0,-12.195c0,-2.023 -0.321,-3.495 -0.965,-4.414c-0.644,-0.92 -1.769,-1.38 -3.375,-1.38c-1.545,0 -2.848,0.386 -3.909,1.159c-1.061,0.772 -1.75,1.772 -2.069,2.998c-0.111,0.92 -0.166,1.944 -0.166,3.072l0,10.76l-3.072,0l0,-28.013l3.072,-0.184l0,8.203c0,0.699 -0.024,1.564 -0.073,2.594c1.729,-2.134 4.022,-3.201 6.879,-3.201c4.5,0 6.75,2.643 6.75,7.928l0,12.673l-3.072,0Z" style="fill:#808080;fill-rule:nonzero;"/>
            <path d="M182.619,116.203c-1.57,0 -2.851,0.554 -3.844,1.664c-0.994,1.11 -1.576,2.627 -1.748,4.553l10.65,0c0,-1.999 -0.451,-3.535 -1.352,-4.608c-0.901,-1.073 -2.137,-1.609 -3.706,-1.609ZM183.226,134.688c-2.931,0 -5.239,-0.932 -6.925,-2.796c-1.686,-1.864 -2.529,-4.414 -2.529,-7.651c0,-3.127 0.815,-5.663 2.446,-7.606c1.631,-1.944 3.777,-2.934 6.438,-2.971c2.501,0 4.485,0.856 5.95,2.566c1.465,1.711 2.198,3.995 2.198,6.852c0,0.147 -0.003,0.417 -0.009,0.809c-0.006,0.392 -0.009,0.674 -0.009,0.846l-13.851,0c0.037,2.293 0.629,4.08 1.775,5.362c1.147,1.281 2.689,1.922 4.626,1.922c2.134,0 4.274,-0.564 6.42,-1.692l0.478,2.483c-2.048,1.251 -4.384,1.876 -7.008,1.876Z" style="fill:#808080;fill-rule:nonzero;"/>
            <path d="M204.799,113.903c0.552,0 1.054,0.037 1.508,0.111l-0.11,2.832c-0.564,-0.098 -1.055,-0.147 -1.472,-0.147c-1.716,0 -3.111,0.598 -4.184,1.794c-1.073,1.195 -1.61,2.676 -1.61,4.442l0,11.33l-3.071,0c-0.013,-12.385 -0.019,-19.111 -0.019,-20.178l2.557,0l0.294,3.624c0.699,-1.141 1.588,-2.06 2.667,-2.759c1.079,-0.699 2.226,-1.049 3.44,-1.049Z" style="fill:#808080;fill-rule:nonzero;"/>
            <path d="M217.709,116.203c-1.57,0 -2.851,0.554 -3.845,1.664c-0.993,1.11 -1.575,2.627 -1.747,4.553l10.65,0c0,-1.999 -0.451,-3.535 -1.352,-4.608c-0.901,-1.073 -2.137,-1.609 -3.706,-1.609ZM218.316,134.688c-2.931,0 -5.239,-0.932 -6.926,-2.796c-1.686,-1.864 -2.529,-4.414 -2.529,-7.651c0,-3.127 0.816,-5.663 2.447,-7.606c1.631,-1.944 3.776,-2.934 6.437,-2.971c2.502,0 4.485,0.856 5.951,2.566c1.465,1.711 2.198,3.995 2.198,6.852c0,0.147 -0.003,0.417 -0.009,0.809c-0.007,0.392 -0.01,0.674 -0.01,0.846l-13.85,0c0.037,2.293 0.628,4.08 1.775,5.362c1.147,1.281 2.689,1.922 4.626,1.922c2.134,0 4.273,-0.564 6.419,-1.692l0.479,2.483c-2.048,1.251 -4.384,1.876 -7.008,1.876Z" style="fill:#808080;fill-rule:nonzero;"/>
            <path d="M233.414,106.932l-0.368,9.399l-2.115,0l-0.386,-9.399l2.869,0Z" style="fill:#808080;fill-rule:nonzero;"/>
            <path d="M245.312,134.688c-1.373,0 -2.639,-0.147 -3.798,-0.441c-1.159,-0.295 -2.1,-0.675 -2.823,-1.141l0.386,-2.593c2.048,1.091 4.059,1.637 6.033,1.637c2.992,0 4.531,-1.055 4.617,-3.164c0,-0.895 -0.319,-1.6 -0.957,-2.115c-0.637,-0.515 -1.888,-1.092 -3.752,-1.729l-1.527,-0.534c-1.766,-0.588 -3.025,-1.318 -3.78,-2.188c-0.754,-0.871 -1.137,-1.956 -1.149,-3.256c0,-1.582 0.634,-2.894 1.904,-3.936c1.269,-1.043 3.007,-1.564 5.214,-1.564c2.281,0 4.359,0.442 6.235,1.325l-0.901,2.354c-1.9,-0.785 -3.678,-1.177 -5.334,-1.177c-1.287,0 -2.296,0.254 -3.026,0.763c-0.729,0.509 -1.094,1.223 -1.094,2.143c0,0.785 0.264,1.386 0.791,1.803c0.527,0.416 1.582,0.895 3.164,1.434c0.404,0.147 0.913,0.319 1.526,0.515c2.036,0.662 3.477,1.444 4.323,2.345c0.846,0.902 1.269,2.119 1.269,3.652c-0.025,1.863 -0.693,3.307 -2.005,4.331c-1.312,1.024 -3.084,1.536 -5.316,1.536Z" style="fill:#808080;fill-rule:nonzero;"/>
            <path d="M273.596,134.688c-1.373,0 -2.639,-0.147 -3.798,-0.441c-1.159,-0.295 -2.1,-0.675 -2.823,-1.141l0.386,-2.593c2.048,1.091 4.059,1.637 6.033,1.637c2.992,0 4.531,-1.055 4.617,-3.164c0,-0.895 -0.319,-1.6 -0.957,-2.115c-0.637,-0.515 -1.888,-1.092 -3.752,-1.729l-1.527,-0.534c-1.765,-0.588 -3.025,-1.318 -3.779,-2.188c-0.755,-0.871 -1.138,-1.956 -1.15,-3.256c0,-1.582 0.635,-2.894 1.904,-3.936c1.269,-1.043 3.007,-1.564 5.214,-1.564c2.281,0 4.36,0.442 6.236,1.325l-0.902,2.354c-1.9,-0.785 -3.678,-1.177 -5.334,-1.177c-1.287,0 -2.296,0.254 -3.025,0.763c-0.73,0.509 -1.095,1.223 -1.095,2.143c0,0.785 0.264,1.386 0.791,1.803c0.527,0.416 1.582,0.895 3.164,1.434c0.404,0.147 0.913,0.319 1.526,0.515c2.036,0.662 3.477,1.444 4.323,2.345c0.846,0.902 1.269,2.119 1.269,3.652c-0.025,1.863 -0.693,3.307 -2.005,4.331c-1.312,1.024 -3.084,1.536 -5.316,1.536Z" style="fill:#808080;fill-rule:nonzero;"/>
            <path d="M288.033,124.222c0,2.391 0.53,4.307 1.591,5.748c1.06,1.441 2.609,2.161 4.644,2.161c2.011,0 3.529,-0.717 4.553,-2.152c1.023,-1.434 1.535,-3.366 1.535,-5.794c0,-2.464 -0.505,-4.405 -1.517,-5.821c-1.012,-1.416 -2.554,-2.125 -4.626,-2.125c-2.011,0 -3.544,0.724 -4.598,2.171c-1.055,1.447 -1.582,3.384 -1.582,5.812ZM303.538,124.167c0,3.127 -0.833,5.662 -2.501,7.606c-1.668,1.943 -3.973,2.915 -6.916,2.915c-2.833,0 -5.086,-0.981 -6.76,-2.943c-1.673,-1.962 -2.51,-4.482 -2.51,-7.56c0,-3.139 0.84,-5.677 2.52,-7.615c1.68,-1.937 3.985,-2.906 6.916,-2.906c2.881,0 5.144,0.972 6.787,2.916c1.643,1.943 2.464,4.472 2.464,7.587Z" style="fill:#808080;fill-rule:nonzero;"/>
            <path d="M334.18,134.265l0,-10.503c0,-0.981 -0.022,-1.802 -0.065,-2.464c-0.043,-0.663 -0.141,-1.337 -0.294,-2.024c-0.153,-0.686 -0.368,-1.229 -0.644,-1.628c-0.276,-0.398 -0.659,-0.723 -1.15,-0.974c-0.49,-0.252 -1.079,-0.377 -1.765,-0.377c-1.349,0 -2.499,0.361 -3.449,1.085c-0.95,0.723 -1.628,1.741 -2.033,3.053c-0.11,0.883 -0.165,1.827 -0.165,2.833l0,10.999l-3.072,0l0,-10.834c0,-0.907 -0.03,-1.695 -0.092,-2.363c-0.061,-0.669 -0.178,-1.319 -0.349,-1.95c-0.172,-0.632 -0.402,-1.144 -0.69,-1.536c-0.288,-0.392 -0.671,-0.705 -1.15,-0.938c-0.478,-0.233 -1.048,-0.349 -1.71,-0.349c-1.472,0 -2.707,0.374 -3.706,1.122c-1,0.748 -1.671,1.741 -2.015,2.979c-0.11,0.944 -0.165,1.968 -0.165,3.072l0,10.797l-3.072,0c-0.024,-12.618 -0.037,-19.344 -0.037,-20.178l2.575,0l0.387,2.888c0.613,-0.932 1.483,-1.717 2.612,-2.354c1.128,-0.638 2.409,-0.957 3.844,-0.957c0.748,0 1.438,0.077 2.069,0.23c0.632,0.153 1.159,0.347 1.582,0.58c0.423,0.233 0.8,0.512 1.131,0.836c0.331,0.325 0.589,0.644 0.773,0.957c0.184,0.313 0.337,0.641 0.46,0.984c1.471,-2.391 3.721,-3.587 6.75,-3.587c2.244,0 3.89,0.641 4.939,1.922c1.048,1.282 1.572,3.179 1.572,5.693l0,12.986l-3.071,0Z" style="fill:#808080;fill-rule:nonzero;"/>
            <path d="M349.775,116.203c-1.57,0 -2.851,0.554 -3.845,1.664c-0.993,1.11 -1.575,2.627 -1.747,4.553l10.65,0c0,-1.999 -0.451,-3.535 -1.352,-4.608c-0.901,-1.073 -2.137,-1.609 -3.706,-1.609ZM350.382,134.688c-2.931,0 -5.239,-0.932 -6.925,-2.796c-1.687,-1.864 -2.53,-4.414 -2.53,-7.651c0,-3.127 0.816,-5.663 2.447,-7.606c1.631,-1.944 3.777,-2.934 6.437,-2.971c2.502,0 4.485,0.856 5.951,2.566c1.465,1.711 2.198,3.995 2.198,6.852c0,0.147 -0.003,0.417 -0.009,0.809c-0.007,0.392 -0.01,0.674 -0.01,0.846l-13.85,0c0.037,2.293 0.629,4.08 1.775,5.362c1.147,1.281 2.689,1.922 4.626,1.922c2.134,0 4.273,-0.564 6.419,-1.692l0.479,2.483c-2.048,1.251 -4.384,1.876 -7.008,1.876Z" style="fill:#808080;fill-rule:nonzero;"/>
            <path d="M369.343,134.633c-1.987,0 -3.397,-0.485 -4.231,-1.453c-0.834,-0.969 -1.275,-2.532 -1.324,-4.691l0,-12.121l-2.998,0l0.129,-2.023l2.851,-0.258l1.048,-4.616l2.023,-0.074l0,4.69l5.61,0l0,2.281l-5.61,0l0,11.57c0,1.532 0.233,2.611 0.699,3.237c0.466,0.625 1.263,0.938 2.391,0.938c0.405,0 1.282,-0.098 2.631,-0.294l0.128,2.428c-1.459,0.257 -2.575,0.386 -3.347,0.386Z" style="fill:#808080;fill-rule:nonzero;"/>
            <path d="M390.235,134.265l0,-12.195c0,-2.023 -0.322,-3.495 -0.965,-4.414c-0.644,-0.92 -1.769,-1.38 -3.376,-1.38c-1.545,0 -2.847,0.386 -3.908,1.159c-1.061,0.772 -1.751,1.772 -2.069,2.998c-0.111,0.92 -0.166,1.944 -0.166,3.072l0,10.76l-3.072,0l0,-28.013l3.072,-0.184l0,8.203c0,0.699 -0.024,1.564 -0.074,2.594c1.729,-2.134 4.023,-3.201 6.88,-3.201c4.5,0 6.75,2.643 6.75,7.928l0,12.673l-3.072,0Z" style="fill:#808080;fill-rule:nonzero;"/>
            <path d="M401.398,114.087l0,20.178l-3.09,0l0,-20.178l3.09,0ZM401.398,106.748l0,3.642l-3.09,0l0,-3.642l3.09,0Z" style="fill:#808080;fill-rule:nonzero;"/>
            <path d="M407.851,134.265l0,-20.178l2.575,0l0.387,2.888c0.797,-0.993 1.793,-1.793 2.989,-2.4c1.195,-0.607 2.486,-0.911 3.871,-0.911c2.33,0 4.053,0.653 5.169,1.959c1.116,1.306 1.674,3.314 1.674,6.024l0,12.618l-3.072,0c0,-8.093 -0.006,-12.428 -0.018,-13.004c-0.049,-1.717 -0.396,-2.974 -1.04,-3.771c-0.643,-0.797 -1.719,-1.195 -3.228,-1.195c-1.581,0 -2.9,0.38 -3.954,1.14c-1.055,0.76 -1.741,1.747 -2.06,2.961c-0.123,0.822 -0.184,1.766 -0.184,2.833l0,11.036l-3.109,0Z" style="fill:#808080;fill-rule:nonzero;"/>
            <path d="M438.143,131.635c1.042,0 1.956,-0.184 2.74,-0.552c0.785,-0.368 1.398,-0.877 1.84,-1.527c0.441,-0.65 0.769,-1.373 0.984,-2.17c0.214,-0.797 0.322,-1.668 0.322,-2.612l0,-1.49c0,-0.981 -0.111,-1.885 -0.331,-2.713c-0.221,-0.828 -0.561,-1.57 -1.021,-2.226c-0.46,-0.656 -1.073,-1.168 -1.84,-1.535c-0.766,-0.368 -1.658,-0.552 -2.676,-0.552c-0.846,0 -1.615,0.159 -2.308,0.478c-0.693,0.319 -1.263,0.739 -1.711,1.26c-0.447,0.521 -0.827,1.128 -1.14,1.821c-0.313,0.693 -0.537,1.395 -0.672,2.106c-0.134,0.711 -0.202,1.429 -0.202,2.152c0,0.711 0.074,1.416 0.221,2.115c0.147,0.699 0.38,1.38 0.699,2.042c0.319,0.662 0.705,1.241 1.159,1.738c0.453,0.497 1.02,0.898 1.701,1.205c0.681,0.306 1.426,0.46 2.235,0.46ZM433.416,143.498l-0.276,-2.777l3.752,0c1.042,0 1.95,-0.073 2.722,-0.221c0.773,-0.147 1.417,-0.389 1.932,-0.726c0.515,-0.337 0.932,-0.711 1.25,-1.122c0.319,-0.411 0.561,-0.944 0.727,-1.6c0.165,-0.656 0.276,-1.306 0.331,-1.95c0.055,-0.644 0.083,-1.432 0.083,-2.364l0,-1.784c-0.736,1.055 -1.588,1.867 -2.557,2.437c-0.969,0.57 -2.201,0.856 -3.697,0.856c-1.153,0 -2.216,-0.2 -3.191,-0.598c-0.975,-0.399 -1.797,-0.929 -2.465,-1.591c-0.668,-0.662 -1.238,-1.429 -1.711,-2.299c-0.472,-0.871 -0.815,-1.772 -1.03,-2.704c-0.214,-0.932 -0.322,-1.87 -0.322,-2.814c0,-1.472 0.181,-2.833 0.543,-4.084c0.362,-1.251 0.898,-2.366 1.61,-3.347c0.711,-0.981 1.646,-1.751 2.805,-2.309c1.158,-0.558 2.486,-0.837 3.982,-0.837c1.324,0 2.48,0.255 3.467,0.764c0.987,0.508 1.873,1.29 2.658,2.345l0,-2.686l2.998,0l0,18.725c0,0.858 -0.022,1.609 -0.064,2.253c-0.043,0.644 -0.148,1.358 -0.313,2.143c-0.166,0.785 -0.39,1.459 -0.672,2.023c-0.282,0.564 -0.677,1.131 -1.186,1.702c-0.509,0.57 -1.116,1.03 -1.821,1.379c-0.705,0.35 -1.579,0.635 -2.621,0.855c-1.042,0.221 -2.219,0.331 -3.532,0.331l-3.402,0Z" style="fill:#808080;fill-rule:nonzero;"/>
            <path d="M469.333,134.633c-1.986,0 -3.396,-0.485 -4.23,-1.453c-0.834,-0.969 -1.276,-2.532 -1.325,-4.691l0,-12.121l-2.998,0l0.129,-2.023l2.851,-0.258l1.048,-4.616l2.024,-0.074l0,4.69l5.61,0l0,2.281l-5.61,0l0,11.57c0,1.532 0.233,2.611 0.699,3.237c0.466,0.625 1.263,0.938 2.391,0.938c0.404,0 1.281,-0.098 2.63,-0.294l0.129,2.428c-1.459,0.257 -2.575,0.386 -3.348,0.386Z" style="fill:#808080;fill-rule:nonzero;"/>
            <path d="M490.226,134.265l0,-12.195c0,-2.023 -0.322,-3.495 -0.966,-4.414c-0.644,-0.92 -1.769,-1.38 -3.375,-1.38c-1.545,0 -2.848,0.386 -3.909,1.159c-1.061,0.772 -1.75,1.772 -2.069,2.998c-0.11,0.92 -0.166,1.944 -0.166,3.072l0,10.76l-3.071,0l0,-28.013l3.071,-0.184l0,8.203c0,0.699 -0.024,1.564 -0.073,2.594c1.729,-2.134 4.022,-3.201 6.879,-3.201c4.5,0 6.75,2.643 6.75,7.928l0,12.673l-3.071,0Z" style="fill:#808080;fill-rule:nonzero;"/>
            <path d="M506.814,113.903c0.552,0 1.055,0.037 1.508,0.111l-0.11,2.832c-0.564,-0.098 -1.055,-0.147 -1.472,-0.147c-1.716,0 -3.111,0.598 -4.184,1.794c-1.073,1.195 -1.609,2.676 -1.609,4.442l0,11.33l-3.072,0c-0.012,-12.385 -0.019,-19.111 -0.019,-20.178l2.557,0l0.294,3.624c0.699,-1.141 1.588,-2.06 2.667,-2.759c1.08,-0.699 2.226,-1.049 3.44,-1.049Z" style="fill:#808080;fill-rule:nonzero;"/>
            <path d="M515.788,114.087l0,20.178l-3.091,0l0,-20.178l3.091,0ZM515.788,106.748l0,3.642l-3.091,0l0,-3.642l3.091,0Z" style="fill:#808080;fill-rule:nonzero;"/>
            <path d="M527.667,134.633c-1.962,0 -3.35,-0.527 -4.166,-1.582c-0.815,-1.055 -1.223,-2.888 -1.223,-5.5l0,-21.299l3.053,-0.184l0,20.269c0,0.834 0.009,1.503 0.028,2.005c0.018,0.503 0.064,0.997 0.138,1.481c0.073,0.484 0.172,0.849 0.294,1.094c0.123,0.246 0.301,0.469 0.534,0.672c0.233,0.202 0.512,0.337 0.836,0.404c0.325,0.068 0.727,0.102 1.205,0.102c0.393,0 1.165,-0.074 2.318,-0.221l0.165,2.446c-1.263,0.209 -2.323,0.313 -3.182,0.313Z" style="fill:#808080;fill-rule:nonzero;"/>
            <path d="M538.811,134.633c-1.962,0 -3.35,-0.527 -4.166,-1.582c-0.815,-1.055 -1.223,-2.888 -1.223,-5.5l0,-21.299l3.053,-0.184l0,20.269c0,0.834 0.009,1.503 0.028,2.005c0.018,0.503 0.064,0.997 0.138,1.481c0.073,0.484 0.171,0.849 0.294,1.094c0.123,0.246 0.301,0.469 0.533,0.672c0.233,0.202 0.512,0.337 0.837,0.404c0.325,0.068 0.727,0.102 1.205,0.102c0.393,0 1.165,-0.074 2.318,-0.221l0.165,2.446c-1.263,0.209 -2.323,0.313 -3.182,0.313Z" style="fill:#808080;fill-rule:nonzero;"/>
            <path d="M548.153,114.087l0,20.178l-3.09,0l0,-20.178l3.09,0ZM548.153,106.748l0,3.642l-3.09,0l0,-3.642l3.09,0Z" style="fill:#808080;fill-rule:nonzero;"/>
            <path d="M554.606,134.265l0,-20.178l2.575,0l0.387,2.888c0.797,-0.993 1.793,-1.793 2.989,-2.4c1.195,-0.607 2.486,-0.911 3.871,-0.911c2.33,0 4.053,0.653 5.169,1.959c1.116,1.306 1.674,3.314 1.674,6.024l0,12.618l-3.072,0c0,-8.093 -0.006,-12.428 -0.018,-13.004c-0.049,-1.717 -0.396,-2.974 -1.04,-3.771c-0.643,-0.797 -1.719,-1.195 -3.228,-1.195c-1.582,0 -2.9,0.38 -3.954,1.14c-1.055,0.76 -1.742,1.747 -2.06,2.961c-0.123,0.822 -0.184,1.766 -0.184,2.833l0,11.036l-3.109,0Z" style="fill:#808080;fill-rule:nonzero;"/>
            <path d="M584.898,131.635c1.042,0 1.956,-0.184 2.74,-0.552c0.785,-0.368 1.398,-0.877 1.84,-1.527c0.441,-0.65 0.769,-1.373 0.984,-2.17c0.214,-0.797 0.322,-1.668 0.322,-2.612l0,-1.49c0,-0.981 -0.111,-1.885 -0.331,-2.713c-0.221,-0.828 -0.561,-1.57 -1.021,-2.226c-0.46,-0.656 -1.073,-1.168 -1.84,-1.535c-0.766,-0.368 -1.658,-0.552 -2.676,-0.552c-0.846,0 -1.615,0.159 -2.308,0.478c-0.693,0.319 -1.263,0.739 -1.711,1.26c-0.447,0.521 -0.828,1.128 -1.14,1.821c-0.313,0.693 -0.537,1.395 -0.672,2.106c-0.134,0.711 -0.202,1.429 -0.202,2.152c0,0.711 0.074,1.416 0.221,2.115c0.147,0.699 0.38,1.38 0.699,2.042c0.319,0.662 0.705,1.241 1.159,1.738c0.453,0.497 1.02,0.898 1.701,1.205c0.681,0.306 1.425,0.46 2.235,0.46ZM580.171,143.498l-0.276,-2.777l3.752,0c1.042,0 1.95,-0.073 2.722,-0.221c0.773,-0.147 1.417,-0.389 1.932,-0.726c0.515,-0.337 0.932,-0.711 1.25,-1.122c0.319,-0.411 0.561,-0.944 0.727,-1.6c0.165,-0.656 0.276,-1.306 0.331,-1.95c0.055,-0.644 0.083,-1.432 0.083,-2.364l0,-1.784c-0.736,1.055 -1.588,1.867 -2.557,2.437c-0.969,0.57 -2.201,0.856 -3.697,0.856c-1.153,0 -2.216,-0.2 -3.191,-0.598c-0.975,-0.399 -1.797,-0.929 -2.465,-1.591c-0.668,-0.662 -1.239,-1.429 -1.711,-2.299c-0.472,-0.871 -0.815,-1.772 -1.03,-2.704c-0.214,-0.932 -0.322,-1.87 -0.322,-2.814c0,-1.472 0.181,-2.833 0.543,-4.084c0.362,-1.251 0.898,-2.366 1.609,-3.347c0.712,-0.981 1.647,-1.751 2.805,-2.309c1.159,-0.558 2.487,-0.837 3.983,-0.837c1.324,0 2.48,0.255 3.467,0.764c0.987,0.508 1.873,1.29 2.658,2.345l0,-2.686l2.998,0l0,18.725c0,0.858 -0.022,1.609 -0.065,2.253c-0.042,0.644 -0.147,1.358 -0.312,2.143c-0.166,0.785 -0.39,1.459 -0.672,2.023c-0.282,0.564 -0.677,1.131 -1.186,1.702c-0.509,0.57 -1.116,1.03 -1.821,1.379c-0.705,0.35 -1.579,0.635 -2.621,0.855c-1.042,0.221 -2.219,0.331 -3.532,0.331l-3.402,0Z" style="fill:#808080;fill-rule:nonzero;"/>
            <path d="M615.481,132.205c1.459,0 2.744,-0.402 3.854,-1.205c1.109,-0.803 1.824,-1.885 2.142,-3.246l0,-3.403c-0.061,0 -0.432,0.031 -1.112,0.092c-0.681,0.061 -1.125,0.098 -1.334,0.11c-2.661,0.233 -4.516,0.669 -5.564,1.306c-1.048,0.638 -1.573,1.662 -1.573,3.072c0,1.079 0.319,1.894 0.957,2.446c0.637,0.552 1.514,0.828 2.63,0.828ZM622.158,134.265c-0.184,-0.785 -0.362,-1.631 -0.533,-2.538c-1.116,1.116 -2.165,1.888 -3.146,2.317c-0.981,0.429 -2.133,0.644 -3.458,0.644c-1.888,0 -3.406,-0.494 -4.552,-1.481c-1.147,-0.987 -1.72,-2.406 -1.72,-4.258c0,-2.06 0.782,-3.586 2.345,-4.58c1.564,-0.993 3.817,-1.612 6.76,-1.857c0.405,-0.037 1.015,-0.089 1.83,-0.157c0.815,-0.067 1.426,-0.119 1.83,-0.156l0,-1.784c0,-1.423 -0.331,-2.477 -0.993,-3.164c-0.662,-0.687 -1.705,-1.03 -3.127,-1.03c-1.986,0 -3.991,0.49 -6.015,1.471c-0.061,-0.147 -0.22,-0.573 -0.478,-1.278c-0.257,-0.705 -0.392,-1.07 -0.405,-1.094c0.896,-0.503 1.959,-0.905 3.192,-1.205c1.232,-0.301 2.486,-0.451 3.761,-0.451c2.514,0 4.326,0.549 5.435,1.646c1.11,1.098 1.665,2.965 1.665,5.601l0,13.354l-2.391,0Z" style="fill:#808080;fill-rule:nonzero;"/>
            <path d="M639.703,116.221c-1.95,0 -3.443,0.671 -4.479,2.014c-1.036,1.343 -1.554,3.314 -1.554,5.914c0,5.321 2.005,7.982 6.014,7.982c0.994,0 1.867,-0.205 2.622,-0.616c0.754,-0.411 1.348,-0.987 1.784,-1.729c0.435,-0.742 0.76,-1.579 0.975,-2.511c0.214,-0.931 0.321,-1.968 0.321,-3.108c0,-1.545 -0.18,-2.894 -0.542,-4.047c-0.362,-1.152 -0.978,-2.09 -1.849,-2.814c-0.87,-0.723 -1.968,-1.085 -3.292,-1.085ZM640.016,113.664c1.79,0 3.335,0.454 4.635,1.361c1.299,0.908 2.274,2.14 2.924,3.697c0.65,1.558 0.975,3.342 0.975,5.353c0,2.085 -0.322,3.918 -0.966,5.5c-0.643,1.581 -1.618,2.829 -2.924,3.743c-1.306,0.913 -2.866,1.37 -4.681,1.37c-1.337,0 -2.557,-0.288 -3.661,-0.864c-1.103,-0.577 -2.023,-1.362 -2.759,-2.355l-0.312,2.796l-2.631,0l0,-28.013l3.072,-0.184l0,6.677c0,1.643 -0.024,3.053 -0.073,4.23c0.711,-1.018 1.634,-1.824 2.768,-2.419c1.134,-0.594 2.345,-0.892 3.633,-0.892Z" style="fill:#808080;fill-rule:nonzero;"/>
            <path d="M655.795,124.222c0,2.391 0.53,4.307 1.591,5.748c1.06,1.441 2.608,2.161 4.644,2.161c2.011,0 3.528,-0.717 4.552,-2.152c1.024,-1.434 1.536,-3.366 1.536,-5.794c0,-2.464 -0.506,-4.405 -1.517,-5.821c-1.012,-1.416 -2.554,-2.125 -4.626,-2.125c-2.011,0 -3.544,0.724 -4.599,2.171c-1.054,1.447 -1.581,3.384 -1.581,5.812ZM671.3,124.167c0,3.127 -0.834,5.662 -2.501,7.606c-1.668,1.943 -3.973,2.915 -6.916,2.915c-2.833,0 -5.086,-0.981 -6.76,-2.943c-1.674,-1.962 -2.51,-4.482 -2.51,-7.56c0,-3.139 0.84,-5.677 2.519,-7.615c1.68,-1.937 3.986,-2.906 6.916,-2.906c2.882,0 5.144,0.972 6.788,2.916c1.643,1.943 2.464,4.472 2.464,7.587Z" style="fill:#808080;fill-rule:nonzero;"/>
            <path d="M675.62,127.533l0,-13.446l3.09,0l0,13.483c0,0.883 0.126,1.631 0.377,2.244c0.252,0.613 0.614,1.088 1.086,1.425c0.472,0.337 1.005,0.58 1.6,0.727c0.595,0.147 1.278,0.221 2.051,0.221c1.594,0 2.835,-0.35 3.724,-1.049c0.889,-0.699 1.334,-1.888 1.334,-3.568l0,-13.483l3.09,0l0,13.446c0,1.03 -0.147,1.956 -0.441,2.777c-0.295,0.822 -0.69,1.506 -1.187,2.051c-0.496,0.546 -1.094,0.997 -1.793,1.352c-0.699,0.356 -1.438,0.613 -2.217,0.773c-0.778,0.159 -1.615,0.239 -2.51,0.239c-0.883,0 -1.717,-0.08 -2.502,-0.239c-0.785,-0.16 -1.529,-0.42 -2.235,-0.782c-0.705,-0.362 -1.312,-0.815 -1.82,-1.361c-0.509,-0.546 -0.911,-1.229 -1.205,-2.051c-0.295,-0.822 -0.442,-1.741 -0.442,-2.759Z" style="fill:#808080;fill-rule:nonzero;"/>
            <path d="M703.668,134.633c-1.987,0 -3.397,-0.485 -4.231,-1.453c-0.833,-0.969 -1.275,-2.532 -1.324,-4.691l0,-12.121l-2.998,0l0.129,-2.023l2.851,-0.258l1.048,-4.616l2.023,-0.074l0,4.69l5.61,0l0,2.281l-5.61,0l0,11.57c0,1.532 0.233,2.611 0.699,3.237c0.466,0.625 1.263,0.938 2.391,0.938c0.405,0 1.282,-0.098 2.631,-0.294l0.128,2.428c-1.459,0.257 -2.575,0.386 -3.347,0.386Z" style="fill:#808080;fill-rule:nonzero;"/>
            <path d="M105.163,178.329c-2.832,-9.05 -4.586,-14.685 -5.26,-16.904c-0.38,1.349 -0.816,2.808 -1.306,4.378c-0.49,1.569 -0.92,2.918 -1.288,4.046c-0.367,1.128 -0.846,2.588 -1.434,4.378c-0.589,1.79 -1.036,3.157 -1.343,4.102l-3.311,0l-5.757,-20.178l3.182,0l4.323,16.517c0.6,-1.962 2.366,-7.467 5.297,-16.517l3.476,0c2.919,9.246 4.635,14.733 5.15,16.462l4.268,-16.462l3.145,0l-5.812,20.178l-3.33,0Z" style="fill:#808080;fill-rule:nonzero;"/>
            <path d="M120.023,168.286c0,2.391 0.53,4.307 1.591,5.748c1.061,1.441 2.609,2.161 4.644,2.161c2.011,0 3.529,-0.717 4.553,-2.152c1.024,-1.435 1.536,-3.366 1.536,-5.794c0,-2.465 -0.506,-4.405 -1.518,-5.822c-1.012,-1.416 -2.554,-2.124 -4.626,-2.124c-2.011,0 -3.544,0.723 -4.598,2.17c-1.055,1.447 -1.582,3.385 -1.582,5.813ZM135.529,168.231c0,3.126 -0.834,5.662 -2.502,7.605c-1.668,1.944 -3.973,2.916 -6.916,2.916c-2.832,0 -5.086,-0.981 -6.759,-2.943c-1.674,-1.962 -2.511,-4.482 -2.511,-7.56c0,-3.139 0.84,-5.677 2.52,-7.615c1.68,-1.937 3.985,-2.906 6.916,-2.906c2.881,0 5.144,0.972 6.787,2.915c1.643,1.944 2.465,4.473 2.465,7.588Z" style="fill:#808080;fill-rule:nonzero;"/>
            <path d="M149.597,157.967c0.552,0 1.055,0.037 1.508,0.11l-0.11,2.833c-0.564,-0.098 -1.055,-0.147 -1.471,-0.147c-1.717,0 -3.112,0.598 -4.185,1.793c-1.073,1.196 -1.609,2.676 -1.609,4.442l0,11.331l-3.072,0c-0.012,-12.385 -0.019,-19.111 -0.019,-20.178l2.557,0l0.294,3.623c0.699,-1.14 1.588,-2.06 2.668,-2.759c1.079,-0.699 2.225,-1.048 3.439,-1.048Z" style="fill:#808080;fill-rule:nonzero;"/>
            <path d="M154.984,178.329l0,-28.014l3.053,-0.184l0,17.235c0.074,-0.073 0.184,-0.196 0.331,-0.368c0.147,-0.171 0.264,-0.3 0.35,-0.386c1.067,-1.165 3.826,-3.985 8.277,-8.461l3.899,0l-8.387,8.498l8.976,11.68l-3.826,0l-7.376,-9.933l-2.244,1.931l0,8.002l-3.053,0Z" style="fill:#808080;fill-rule:nonzero;"/>
            <path d="M178.396,158.151l0,20.178l-3.09,0l0,-20.178l3.09,0ZM178.396,150.812l0,3.642l-3.09,0l0,-3.642l3.09,0Z" style="fill:#808080;fill-rule:nonzero;"/>
            <path d="M184.85,178.329l0,-20.178l2.575,0l0.386,2.888c0.797,-0.994 1.794,-1.794 2.989,-2.401c1.196,-0.607 2.486,-0.91 3.872,-0.91c2.33,0 4.053,0.653 5.169,1.959c1.115,1.306 1.673,3.314 1.673,6.024l0,12.618l-3.071,0c0,-8.094 -0.006,-12.428 -0.019,-13.005c-0.049,-1.716 -0.395,-2.973 -1.039,-3.77c-0.644,-0.797 -1.72,-1.196 -3.228,-1.196c-1.582,0 -2.9,0.38 -3.955,1.141c-1.054,0.76 -1.741,1.747 -2.06,2.961c-0.122,0.821 -0.184,1.766 -0.184,2.833l0,11.036l-3.108,0Z" style="fill:#808080;fill-rule:nonzero;"/>
            <path d="M215.141,175.698c1.043,0 1.956,-0.184 2.741,-0.551c0.785,-0.368 1.398,-0.877 1.839,-1.527c0.442,-0.65 0.77,-1.374 0.984,-2.171c0.215,-0.797 0.322,-1.667 0.322,-2.611l0,-1.49c0,-0.981 -0.11,-1.886 -0.331,-2.713c-0.22,-0.828 -0.561,-1.57 -1.021,-2.226c-0.459,-0.656 -1.072,-1.168 -1.839,-1.536c-0.766,-0.368 -1.658,-0.552 -2.676,-0.552c-0.846,0 -1.616,0.16 -2.309,0.479c-0.692,0.318 -1.263,0.738 -1.71,1.26c-0.448,0.521 -0.828,1.128 -1.141,1.821c-0.312,0.692 -0.536,1.394 -0.671,2.106c-0.135,0.711 -0.202,1.428 -0.202,2.152c0,0.711 0.073,1.416 0.221,2.115c0.147,0.699 0.38,1.379 0.698,2.042c0.319,0.662 0.706,1.241 1.159,1.738c0.454,0.496 1.021,0.898 1.702,1.204c0.68,0.307 1.425,0.46 2.234,0.46ZM210.414,187.562l-0.276,-2.777l3.753,0c1.042,0 1.949,-0.074 2.722,-0.221c0.772,-0.147 1.416,-0.389 1.931,-0.727c0.515,-0.337 0.932,-0.711 1.251,-1.122c0.319,-0.41 0.561,-0.944 0.727,-1.6c0.165,-0.656 0.275,-1.306 0.331,-1.95c0.055,-0.643 0.082,-1.431 0.082,-2.363l0,-1.784c-0.735,1.054 -1.588,1.867 -2.556,2.437c-0.969,0.57 -2.201,0.855 -3.697,0.855c-1.153,0 -2.217,-0.199 -3.192,-0.598c-0.974,-0.398 -1.796,-0.928 -2.464,-1.591c-0.669,-0.662 -1.239,-1.428 -1.711,-2.299c-0.472,-0.87 -0.815,-1.772 -1.03,-2.704c-0.215,-0.932 -0.322,-1.87 -0.322,-2.814c0,-1.471 0.181,-2.832 0.543,-4.083c0.361,-1.251 0.898,-2.367 1.609,-3.348c0.711,-0.981 1.646,-1.75 2.805,-2.308c1.159,-0.558 2.486,-0.837 3.982,-0.837c1.325,0 2.48,0.254 3.468,0.763c0.987,0.509 1.873,1.291 2.657,2.345l0,-2.685l2.999,0l0,18.725c0,0.858 -0.022,1.609 -0.065,2.253c-0.043,0.643 -0.147,1.358 -0.313,2.143c-0.165,0.784 -0.389,1.459 -0.671,2.023c-0.282,0.564 -0.677,1.131 -1.186,1.701c-0.509,0.57 -1.116,1.03 -1.821,1.38c-0.705,0.349 -1.579,0.634 -2.621,0.855c-1.043,0.221 -2.22,0.331 -3.532,0.331l-3.403,0Z" style="fill:#808080;fill-rule:nonzero;"/>
            <path d="M243.518,158.151l0,20.178l-3.09,0l0,-20.178l3.09,0ZM243.518,150.812l0,3.642l-3.09,0l0,-3.642l3.09,0Z" style="fill:#808080;fill-rule:nonzero;"/>
            <path d="M249.971,178.329l0,-20.178l2.575,0l0.387,2.888c0.797,-0.994 1.793,-1.794 2.989,-2.401c1.195,-0.607 2.486,-0.91 3.871,-0.91c2.33,0 4.053,0.653 5.169,1.959c1.116,1.306 1.674,3.314 1.674,6.024l0,12.618l-3.072,0c0,-8.094 -0.006,-12.428 -0.018,-13.005c-0.049,-1.716 -0.396,-2.973 -1.04,-3.77c-0.643,-0.797 -1.719,-1.196 -3.228,-1.196c-1.582,0 -2.9,0.38 -3.954,1.141c-1.055,0.76 -1.742,1.747 -2.06,2.961c-0.123,0.821 -0.184,1.766 -0.184,2.833l0,11.036l-3.109,0Z" style="fill:#808080;fill-rule:nonzero;"/>
            <path d="M291.039,178.752c-2.968,0 -5.288,-0.963 -6.962,-2.888c-1.674,-1.925 -2.511,-4.445 -2.511,-7.56c0.012,-3.139 0.868,-5.687 2.566,-7.642c1.698,-1.956 4.025,-2.934 6.98,-2.934c1.043,0 2.051,0.129 3.026,0.386c0.975,0.258 1.744,0.595 2.309,1.012l-0.847,2.391c-1.434,-0.773 -2.949,-1.159 -4.543,-1.159c-1.949,0 -3.491,0.711 -4.626,2.134c-1.134,1.422 -1.701,3.366 -1.701,5.831c0,2.403 0.561,4.307 1.683,5.711c1.122,1.404 2.676,2.106 4.663,2.106c1.581,0 3.2,-0.429 4.856,-1.288l0.386,2.447c-1.337,0.968 -3.096,1.453 -5.279,1.453Z" style="fill:#808080;fill-rule:nonzero;"/>
            <path d="M303.231,168.286c0,2.391 0.531,4.307 1.591,5.748c1.061,1.441 2.609,2.161 4.645,2.161c2.011,0 3.528,-0.717 4.552,-2.152c1.024,-1.435 1.536,-3.366 1.536,-5.794c0,-2.465 -0.506,-4.405 -1.518,-5.822c-1.011,-1.416 -2.553,-2.124 -4.626,-2.124c-2.011,0 -3.543,0.723 -4.598,2.17c-1.054,1.447 -1.582,3.385 -1.582,5.813ZM318.737,168.231c0,3.126 -0.834,5.662 -2.502,7.605c-1.667,1.944 -3.973,2.916 -6.916,2.916c-2.832,0 -5.085,-0.981 -6.759,-2.943c-1.674,-1.962 -2.511,-4.482 -2.511,-7.56c0,-3.139 0.84,-5.677 2.52,-7.615c1.68,-1.937 3.985,-2.906 6.916,-2.906c2.882,0 5.144,0.972 6.787,2.915c1.643,1.944 2.465,4.473 2.465,7.588Z" style="fill:#808080;fill-rule:nonzero;"/>
            <path d="M349.378,178.329l0,-10.503c0,-0.981 -0.021,-1.803 -0.064,-2.465c-0.043,-0.662 -0.141,-1.336 -0.295,-2.023c-0.153,-0.687 -0.368,-1.229 -0.643,-1.628c-0.276,-0.398 -0.66,-0.723 -1.15,-0.975c-0.491,-0.251 -1.079,-0.377 -1.766,-0.377c-1.349,0 -2.498,0.362 -3.449,1.085c-0.95,0.724 -1.627,1.742 -2.032,3.054c-0.11,0.883 -0.166,1.827 -0.166,2.832l0,11l-3.071,0l0,-10.834c0,-0.908 -0.031,-1.695 -0.092,-2.364c-0.062,-0.668 -0.178,-1.318 -0.35,-1.949c-0.171,-0.632 -0.401,-1.144 -0.69,-1.536c-0.288,-0.393 -0.671,-0.705 -1.149,-0.938c-0.478,-0.233 -1.049,-0.35 -1.711,-0.35c-1.471,0 -2.707,0.374 -3.706,1.122c-0.999,0.748 -1.671,1.741 -2.014,2.98c-0.11,0.944 -0.166,1.968 -0.166,3.072l0,10.797l-3.071,0c-0.025,-12.618 -0.037,-19.344 -0.037,-20.178l2.575,0l0.386,2.888c0.613,-0.932 1.484,-1.717 2.612,-2.355c1.128,-0.637 2.41,-0.956 3.844,-0.956c0.748,0 1.438,0.077 2.07,0.23c0.631,0.153 1.158,0.346 1.581,0.579c0.423,0.233 0.801,0.512 1.132,0.837c0.331,0.325 0.588,0.644 0.772,0.957c0.184,0.312 0.337,0.64 0.46,0.984c1.471,-2.392 3.722,-3.587 6.75,-3.587c2.244,0 3.891,0.641 4.939,1.922c1.048,1.281 1.573,3.179 1.573,5.693l0,12.986l-3.072,0Z" style="fill:#808080;fill-rule:nonzero;"/>
            <path d="M357.046,187.084l0,-28.933l2.703,0l0.295,2.741c1.765,-2.11 3.887,-3.164 6.364,-3.164c1.839,0 3.396,0.46 4.672,1.379c1.275,0.92 2.216,2.165 2.823,3.734c0.607,1.57 0.911,3.403 0.911,5.5c0,2.011 -0.331,3.798 -0.994,5.362c-0.662,1.563 -1.634,2.795 -2.915,3.697c-1.281,0.901 -2.78,1.352 -4.497,1.352c-1.3,0 -2.52,-0.292 -3.66,-0.874c-1.141,-0.583 -2.054,-1.352 -2.741,-2.308c0.073,1.324 0.11,2.611 0.11,3.862l0,7.45l-3.071,0.202ZM365.985,176.158c0.932,0 1.766,-0.211 2.501,-0.634c0.736,-0.423 1.331,-1.003 1.784,-1.739c0.454,-0.735 0.798,-1.572 1.03,-2.51c0.233,-0.938 0.35,-1.953 0.35,-3.044c0,-2.306 -0.484,-4.197 -1.453,-5.675c-0.969,-1.477 -2.385,-2.216 -4.249,-2.216c-3.899,0 -5.849,2.52 -5.849,7.559c0,2.735 0.457,4.795 1.37,6.181c0.914,1.385 2.419,2.078 4.516,2.078Z" style="fill:#808080;fill-rule:nonzero;"/>
            <path d="M385.24,178.696c-1.962,0 -3.35,-0.527 -4.166,-1.581c-0.815,-1.055 -1.223,-2.888 -1.223,-5.5l0,-21.3l3.053,-0.184l0,20.27c0,0.834 0.009,1.502 0.028,2.005c0.018,0.503 0.064,0.996 0.138,1.481c0.073,0.484 0.171,0.849 0.294,1.094c0.123,0.245 0.301,0.469 0.534,0.671c0.233,0.203 0.511,0.338 0.836,0.405c0.325,0.067 0.727,0.101 1.205,0.101c0.393,0 1.165,-0.073 2.318,-0.221l0.165,2.447c-1.263,0.208 -2.323,0.312 -3.182,0.312Z" style="fill:#808080;fill-rule:nonzero;"/>
            <path d="M398.886,160.266c-1.57,0 -2.851,0.555 -3.845,1.665c-0.993,1.11 -1.575,2.627 -1.747,4.552l10.65,0c0,-1.999 -0.451,-3.534 -1.352,-4.607c-0.901,-1.073 -2.137,-1.61 -3.706,-1.61ZM399.493,178.752c-2.931,0 -5.239,-0.932 -6.925,-2.796c-1.687,-1.864 -2.53,-4.415 -2.53,-7.652c0,-3.127 0.816,-5.662 2.447,-7.606c1.631,-1.943 3.777,-2.933 6.437,-2.97c2.502,0 4.485,0.855 5.951,2.566c1.465,1.71 2.198,3.994 2.198,6.851c0,0.148 -0.003,0.417 -0.009,0.81c-0.007,0.392 -0.01,0.674 -0.01,0.846l-13.85,0c0.037,2.293 0.629,4.08 1.775,5.361c1.147,1.282 2.689,1.923 4.626,1.923c2.134,0 4.273,-0.564 6.419,-1.693l0.479,2.484c-2.048,1.25 -4.384,1.876 -7.008,1.876Z" style="fill:#808080;fill-rule:nonzero;"/>
            <path d="M418.454,178.696c-1.987,0 -3.397,-0.484 -4.231,-1.453c-0.833,-0.968 -1.275,-2.532 -1.324,-4.69l0,-12.121l-2.998,0l0.129,-2.024l2.851,-0.257l1.048,-4.617l2.023,-0.073l0,4.69l5.61,0l0,2.281l-5.61,0l0,11.569c0,1.533 0.233,2.612 0.699,3.237c0.466,0.626 1.263,0.939 2.391,0.939c0.405,0 1.282,-0.099 2.631,-0.295l0.128,2.428c-1.459,0.258 -2.575,0.386 -3.347,0.386Z" style="fill:#808080;fill-rule:nonzero;"/>
            <path d="M433.479,160.266c-1.57,0 -2.851,0.555 -3.844,1.665c-0.994,1.11 -1.576,2.627 -1.748,4.552l10.65,0c0,-1.999 -0.451,-3.534 -1.352,-4.607c-0.901,-1.073 -2.137,-1.61 -3.706,-1.61ZM434.086,178.752c-2.931,0 -5.239,-0.932 -6.925,-2.796c-1.686,-1.864 -2.529,-4.415 -2.529,-7.652c0,-3.127 0.815,-5.662 2.446,-7.606c1.631,-1.943 3.777,-2.933 6.438,-2.97c2.501,0 4.485,0.855 5.95,2.566c1.465,1.71 2.198,3.994 2.198,6.851c0,0.148 -0.003,0.417 -0.009,0.81c-0.006,0.392 -0.009,0.674 -0.009,0.846l-13.851,0c0.037,2.293 0.629,4.08 1.775,5.361c1.147,1.282 2.689,1.923 4.626,1.923c2.134,0 4.274,-0.564 6.42,-1.693l0.478,2.484c-2.048,1.25 -4.384,1.876 -7.008,1.876Z" style="fill:#808080;fill-rule:nonzero;"/>
            <path d="M464.559,176.103c2.023,0 3.528,-0.65 4.515,-1.95c0.988,-1.3 1.481,-3.157 1.481,-5.573c0,-2.722 -0.475,-4.773 -1.425,-6.153c-0.951,-1.379 -2.487,-2.069 -4.608,-2.069c-0.944,0 -1.778,0.202 -2.501,0.607c-0.724,0.405 -1.306,0.969 -1.748,1.692c-0.441,0.724 -0.775,1.555 -1.002,2.493c-0.227,0.938 -0.341,1.965 -0.341,3.081c0,1.569 0.194,2.93 0.58,4.083c0.386,1.153 1.008,2.072 1.867,2.759c0.858,0.687 1.919,1.03 3.182,1.03ZM470.61,175.404c-0.662,1.018 -1.545,1.827 -2.648,2.428c-1.104,0.601 -2.336,0.901 -3.697,0.901c-2.661,0 -4.746,-0.947 -6.254,-2.842c-1.509,-1.894 -2.263,-4.472 -2.263,-7.734c0,-3.115 0.767,-5.631 2.3,-7.551c1.532,-1.919 3.586,-2.878 6.161,-2.878c1.337,0 2.597,0.291 3.78,0.874c1.184,0.582 2.069,1.364 2.658,2.345l-0.055,-1.748l0,-8.884l3.035,-0.184l0,28.198l-2.612,0l-0.405,-2.925Z" style="fill:#808080;fill-rule:nonzero;"/>
            <path d="M485.47,176.269c1.459,0 2.743,-0.402 3.853,-1.205c1.11,-0.803 1.824,-1.886 2.143,-3.247l0,-3.402c-0.061,0 -0.432,0.03 -1.113,0.091c-0.68,0.062 -1.125,0.099 -1.333,0.111c-2.661,0.233 -4.516,0.668 -5.564,1.306c-1.049,0.637 -1.573,1.661 -1.573,3.071c0,1.08 0.319,1.895 0.956,2.447c0.638,0.552 1.515,0.828 2.631,0.828ZM492.147,178.329c-0.184,-0.785 -0.362,-1.631 -0.534,-2.539c-1.116,1.116 -2.164,1.889 -3.145,2.318c-0.981,0.429 -2.134,0.644 -3.458,0.644c-1.889,0 -3.406,-0.494 -4.553,-1.481c-1.146,-0.987 -1.719,-2.407 -1.719,-4.258c0,-2.06 0.781,-3.587 2.345,-4.58c1.563,-0.993 3.816,-1.613 6.759,-1.858c0.405,-0.037 1.015,-0.089 1.831,-0.156c0.815,-0.068 1.425,-0.12 1.83,-0.157l0,-1.784c0,-1.422 -0.331,-2.477 -0.993,-3.163c-0.663,-0.687 -1.705,-1.03 -3.127,-1.03c-1.987,0 -3.992,0.49 -6.015,1.471c-0.061,-0.147 -0.221,-0.573 -0.478,-1.278c-0.258,-0.705 -0.393,-1.07 -0.405,-1.095c0.895,-0.502 1.959,-0.904 3.191,-1.204c1.233,-0.301 2.487,-0.451 3.762,-0.451c2.514,0 4.325,0.549 5.435,1.646c1.11,1.098 1.665,2.965 1.665,5.601l0,13.354l-2.391,0Z" style="fill:#808080;fill-rule:nonzero;"/>
            <path d="M509.563,157.967c0.551,0 1.054,0.037 1.508,0.11l-0.11,2.833c-0.565,-0.098 -1.055,-0.147 -1.472,-0.147c-1.717,0 -3.111,0.598 -4.184,1.793c-1.073,1.196 -1.61,2.676 -1.61,4.442l0,11.331l-3.072,0c-0.012,-12.385 -0.018,-19.111 -0.018,-20.178l2.557,0l0.294,3.623c0.699,-1.14 1.588,-2.06 2.667,-2.759c1.079,-0.699 2.226,-1.048 3.44,-1.048Z" style="fill:#808080;fill-rule:nonzero;"/>
            <path d="M514.949,178.329l0,-28.014l3.054,-0.184l0,17.235c0.073,-0.073 0.184,-0.196 0.331,-0.368c0.147,-0.171 0.263,-0.3 0.349,-0.386c1.067,-1.165 3.826,-3.985 8.277,-8.461l3.9,0l-8.388,8.498l8.976,11.68l-3.825,0l-7.376,-9.933l-2.244,1.931l0,8.002l-3.054,0Z" style="fill:#808080;fill-rule:nonzero;"/>
            <path d="M534.738,178.329l0,-20.178l2.575,0l0.387,2.888c0.797,-0.994 1.793,-1.794 2.989,-2.401c1.195,-0.607 2.486,-0.91 3.871,-0.91c2.33,0 4.053,0.653 5.169,1.959c1.116,1.306 1.674,3.314 1.674,6.024l0,12.618l-3.072,0c0,-8.094 -0.006,-12.428 -0.018,-13.005c-0.049,-1.716 -0.396,-2.973 -1.04,-3.77c-0.643,-0.797 -1.719,-1.196 -3.228,-1.196c-1.581,0 -2.9,0.38 -3.954,1.141c-1.055,0.76 -1.741,1.747 -2.06,2.961c-0.123,0.821 -0.184,1.766 -0.184,2.833l0,11.036l-3.109,0Z" style="fill:#808080;fill-rule:nonzero;"/>
            <path d="M565.122,160.266c-1.57,0 -2.851,0.555 -3.844,1.665c-0.994,1.11 -1.576,2.627 -1.748,4.552l10.65,0c0,-1.999 -0.451,-3.534 -1.352,-4.607c-0.901,-1.073 -2.137,-1.61 -3.706,-1.61ZM565.729,178.752c-2.931,0 -5.239,-0.932 -6.925,-2.796c-1.686,-1.864 -2.529,-4.415 -2.529,-7.652c0,-3.127 0.815,-5.662 2.446,-7.606c1.631,-1.943 3.777,-2.933 6.438,-2.97c2.501,0 4.485,0.855 5.95,2.566c1.465,1.71 2.198,3.994 2.198,6.851c0,0.148 -0.003,0.417 -0.009,0.81c-0.006,0.392 -0.009,0.674 -0.009,0.846l-13.851,0c0.037,2.293 0.629,4.08 1.775,5.361c1.147,1.282 2.689,1.923 4.626,1.923c2.134,0 4.274,-0.564 6.42,-1.693l0.478,2.484c-2.048,1.25 -4.384,1.876 -7.008,1.876Z" style="fill:#808080;fill-rule:nonzero;"/>
            <path d="M584.267,178.752c-1.373,0 -2.64,-0.148 -3.798,-0.442c-1.159,-0.294 -2.1,-0.674 -2.824,-1.14l0.387,-2.594c2.047,1.092 4.058,1.637 6.033,1.637c2.992,0 4.531,-1.054 4.616,-3.163c0,-0.895 -0.318,-1.601 -0.956,-2.116c-0.638,-0.515 -1.888,-1.091 -3.752,-1.729l-1.527,-0.533c-1.766,-0.589 -3.026,-1.318 -3.78,-2.189c-0.754,-0.87 -1.137,-1.956 -1.149,-3.255c0,-1.582 0.634,-2.894 1.903,-3.937c1.269,-1.042 3.008,-1.563 5.215,-1.563c2.281,0 4.359,0.441 6.235,1.324l-0.901,2.355c-1.901,-0.785 -3.679,-1.178 -5.334,-1.178c-1.288,0 -2.296,0.255 -3.026,0.764c-0.73,0.509 -1.094,1.223 -1.094,2.143c0,0.784 0.263,1.385 0.791,1.802c0.527,0.417 1.581,0.895 3.163,1.435c0.405,0.147 0.914,0.319 1.527,0.515c2.035,0.662 3.476,1.444 4.322,2.345c0.847,0.901 1.27,2.118 1.27,3.651c-0.025,1.864 -0.693,3.308 -2.005,4.332c-1.312,1.024 -3.084,1.536 -5.316,1.536Z" style="fill:#808080;fill-rule:nonzero;"/>
            <path d="M602.474,178.752c-1.373,0 -2.639,-0.148 -3.798,-0.442c-1.159,-0.294 -2.1,-0.674 -2.824,-1.14l0.387,-2.594c2.047,1.092 4.058,1.637 6.033,1.637c2.992,0 4.531,-1.054 4.616,-3.163c0,-0.895 -0.318,-1.601 -0.956,-2.116c-0.638,-0.515 -1.888,-1.091 -3.752,-1.729l-1.527,-0.533c-1.766,-0.589 -3.026,-1.318 -3.78,-2.189c-0.754,-0.87 -1.137,-1.956 -1.149,-3.255c0,-1.582 0.634,-2.894 1.903,-3.937c1.269,-1.042 3.008,-1.563 5.215,-1.563c2.281,0 4.359,0.441 6.235,1.324l-0.901,2.355c-1.901,-0.785 -3.679,-1.178 -5.334,-1.178c-1.288,0 -2.296,0.255 -3.026,0.764c-0.729,0.509 -1.094,1.223 -1.094,2.143c0,0.784 0.263,1.385 0.791,1.802c0.527,0.417 1.581,0.895 3.163,1.435c0.405,0.147 0.914,0.319 1.527,0.515c2.036,0.662 3.476,1.444 4.322,2.345c0.847,0.901 1.27,2.118 1.27,3.651c-0.025,1.864 -0.693,3.308 -2.005,4.332c-1.312,1.024 -3.084,1.536 -5.316,1.536Z" style="fill:#808080;fill-rule:nonzero;"/>
            <path d="M630.574,176.269c1.459,0 2.744,-0.402 3.854,-1.205c1.109,-0.803 1.824,-1.886 2.142,-3.247l0,-3.402c-0.061,0 -0.432,0.03 -1.112,0.091c-0.681,0.062 -1.125,0.099 -1.334,0.111c-2.661,0.233 -4.515,0.668 -5.564,1.306c-1.048,0.637 -1.573,1.661 -1.573,3.071c0,1.08 0.319,1.895 0.957,2.447c0.638,0.552 1.514,0.828 2.63,0.828ZM637.251,178.329c-0.184,-0.785 -0.362,-1.631 -0.533,-2.539c-1.116,1.116 -2.165,1.889 -3.146,2.318c-0.981,0.429 -2.133,0.644 -3.458,0.644c-1.888,0 -3.405,-0.494 -4.552,-1.481c-1.147,-0.987 -1.72,-2.407 -1.72,-4.258c0,-2.06 0.782,-3.587 2.345,-4.58c1.564,-0.993 3.817,-1.613 6.76,-1.858c0.405,-0.037 1.015,-0.089 1.83,-0.156c0.816,-0.068 1.426,-0.12 1.83,-0.157l0,-1.784c0,-1.422 -0.331,-2.477 -0.993,-3.163c-0.662,-0.687 -1.704,-1.03 -3.127,-1.03c-1.986,0 -3.991,0.49 -6.015,1.471c-0.061,-0.147 -0.22,-0.573 -0.478,-1.278c-0.257,-0.705 -0.392,-1.07 -0.404,-1.095c0.895,-0.502 1.958,-0.904 3.191,-1.204c1.232,-0.301 2.486,-0.451 3.761,-0.451c2.514,0 4.326,0.549 5.436,1.646c1.109,1.098 1.664,2.965 1.664,5.601l0,13.354l-2.391,0Z" style="fill:#808080;fill-rule:nonzero;"/>
            <path d="M652.055,178.696c-1.986,0 -3.396,-0.484 -4.23,-1.453c-0.834,-0.968 -1.275,-2.532 -1.325,-4.69l0,-12.121l-2.998,0l0.129,-2.024l2.851,-0.257l1.049,-4.617l2.023,-0.073l0,4.69l5.61,0l0,2.281l-5.61,0l0,11.569c0,1.533 0.233,2.612 0.699,3.237c0.466,0.626 1.263,0.939 2.391,0.939c0.405,0 1.281,-0.099 2.63,-0.295l0.129,2.428c-1.459,0.258 -2.575,0.386 -3.348,0.386Z" style="fill:#808080;fill-rule:nonzero;"/>
            <path d="M685.269,150.812l-0.258,3.016l-11.238,0c-0.123,3.569 -0.215,6.457 -0.276,8.664c1.386,-0.883 2.888,-1.325 4.507,-1.325c1.361,0 2.578,0.218 3.651,0.653c1.073,0.436 1.949,1.034 2.63,1.794c0.68,0.76 1.199,1.646 1.554,2.658c0.356,1.011 0.534,2.106 0.534,3.283c0,2.783 -0.893,5.012 -2.677,6.686c-1.784,1.674 -4.209,2.511 -7.274,2.511c-3.078,0 -5.543,-0.84 -7.395,-2.52l1.196,-2.594c1.815,1.423 3.918,2.134 6.309,2.134c2.011,0 3.599,-0.57 4.764,-1.711c1.165,-1.14 1.747,-2.63 1.747,-4.469c0,-1.643 -0.49,-2.977 -1.471,-4.001c-0.981,-1.024 -2.379,-1.536 -4.194,-1.536c-1.815,0 -3.274,0.607 -4.378,1.821l-2.556,-0.349l0.717,-14.715l14.108,0Z" style="fill:#808080;fill-rule:nonzero;"/>
            <path d="M697.59,176.269c1.459,0 2.744,-0.402 3.853,-1.205c1.11,-0.803 1.825,-1.886 2.143,-3.247l0,-3.402c-0.061,0 -0.432,0.03 -1.112,0.091c-0.681,0.062 -1.126,0.099 -1.334,0.111c-2.661,0.233 -4.516,0.668 -5.564,1.306c-1.048,0.637 -1.573,1.661 -1.573,3.071c0,1.08 0.319,1.895 0.957,2.447c0.637,0.552 1.514,0.828 2.63,0.828ZM704.267,178.329c-0.184,-0.785 -0.362,-1.631 -0.534,-2.539c-1.115,1.116 -2.164,1.889 -3.145,2.318c-0.981,0.429 -2.133,0.644 -3.458,0.644c-1.888,0 -3.406,-0.494 -4.552,-1.481c-1.147,-0.987 -1.72,-2.407 -1.72,-4.258c0,-2.06 0.782,-3.587 2.345,-4.58c1.564,-0.993 3.817,-1.613 6.76,-1.858c0.404,-0.037 1.015,-0.089 1.83,-0.156c0.815,-0.068 1.425,-0.12 1.83,-0.157l0,-1.784c0,-1.422 -0.331,-2.477 -0.993,-3.163c-0.662,-0.687 -1.705,-1.03 -3.127,-1.03c-1.987,0 -3.991,0.49 -6.015,1.471c-0.061,-0.147 -0.22,-0.573 -0.478,-1.278c-0.257,-0.705 -0.392,-1.07 -0.405,-1.095c0.896,-0.502 1.959,-0.904 3.192,-1.204c1.232,-0.301 2.486,-0.451 3.761,-0.451c2.514,0 4.326,0.549 5.435,1.646c1.11,1.098 1.665,2.965 1.665,5.601l0,13.354l-2.391,0Z" style="fill:#808080;fill-rule:nonzero;"/>
            <path d="M738.256,178.329l0,-10.503c0,-0.981 -0.022,-1.803 -0.065,-2.465c-0.043,-0.662 -0.141,-1.336 -0.294,-2.023c-0.153,-0.687 -0.368,-1.229 -0.644,-1.628c-0.276,-0.398 -0.659,-0.723 -1.15,-0.975c-0.49,-0.251 -1.079,-0.377 -1.765,-0.377c-1.349,0 -2.499,0.362 -3.449,1.085c-0.95,0.724 -1.628,1.742 -2.033,3.054c-0.11,0.883 -0.165,1.827 -0.165,2.832l0,11l-3.072,0l0,-10.834c0,-0.908 -0.03,-1.695 -0.092,-2.364c-0.061,-0.668 -0.178,-1.318 -0.349,-1.949c-0.172,-0.632 -0.402,-1.144 -0.69,-1.536c-0.288,-0.393 -0.671,-0.705 -1.15,-0.938c-0.478,-0.233 -1.048,-0.35 -1.71,-0.35c-1.472,0 -2.707,0.374 -3.706,1.122c-1,0.748 -1.671,1.741 -2.015,2.98c-0.11,0.944 -0.165,1.968 -0.165,3.072l0,10.797l-3.072,0c-0.024,-12.618 -0.037,-19.344 -0.037,-20.178l2.576,0l0.386,2.888c0.613,-0.932 1.484,-1.717 2.612,-2.355c1.128,-0.637 2.409,-0.956 3.844,-0.956c0.748,0 1.438,0.077 2.069,0.23c0.632,0.153 1.159,0.346 1.582,0.579c0.423,0.233 0.8,0.512 1.131,0.837c0.331,0.325 0.589,0.644 0.773,0.957c0.184,0.312 0.337,0.64 0.46,0.984c1.471,-2.392 3.721,-3.587 6.75,-3.587c2.244,0 3.89,0.641 4.939,1.922c1.048,1.281 1.572,3.179 1.572,5.693l0,12.986l-3.071,0Z" style="fill:#808080;fill-rule:nonzero;"/>
            <path d="M745.298,183.442c0.037,-0.356 0.144,-1.297 0.322,-2.823c0.177,-1.527 0.315,-2.812 0.413,-3.854c0.099,-1.042 0.172,-1.956 0.221,-2.74l3.624,0l0,0.809c-0.601,2.428 -1.484,5.297 -2.649,8.608l-1.931,0Z" style="fill:#808080;fill-rule:nonzero;"/>
            <path d="M89.249,222.76c-1.962,0 -3.35,-0.527 -4.166,-1.582c-0.815,-1.054 -1.223,-2.888 -1.223,-5.499l0,-21.3l3.053,-0.184l0,20.27c0,0.833 0.01,1.502 0.028,2.005c0.018,0.502 0.064,0.996 0.138,1.48c0.073,0.485 0.172,0.849 0.294,1.095c0.123,0.245 0.301,0.469 0.534,0.671c0.233,0.202 0.512,0.337 0.836,0.405c0.325,0.067 0.727,0.101 1.205,0.101c0.393,0 1.165,-0.074 2.318,-0.221l0.165,2.446c-1.263,0.209 -2.323,0.313 -3.182,0.313Z" style="fill:#808080;fill-rule:nonzero;"/>
            <path d="M98.591,202.215l0,20.177l-3.09,0l0,-20.177l3.09,0ZM98.591,194.876l0,3.641l-3.09,0l0,-3.641l3.09,0Z" style="fill:#808080;fill-rule:nonzero;"/>
            <path d="M105.081,222.392l0,-28.013l3.053,-0.184l0,17.235c0.074,-0.074 0.184,-0.196 0.331,-0.368c0.148,-0.172 0.264,-0.301 0.35,-0.386c1.067,-1.165 3.826,-3.986 8.277,-8.461l3.899,0l-8.387,8.497l8.976,11.68l-3.826,0l-7.376,-9.932l-2.244,1.931l0,8.001l-3.053,0Z" style="fill:#808080;fill-rule:nonzero;"/>
            <path d="M132.448,204.33c-1.57,0 -2.851,0.555 -3.844,1.664c-0.993,1.11 -1.576,2.628 -1.748,4.553l10.65,0c0,-1.999 -0.45,-3.535 -1.352,-4.608c-0.901,-1.073 -2.136,-1.609 -3.706,-1.609ZM133.055,222.815c-2.931,0 -5.239,-0.932 -6.925,-2.796c-1.686,-1.863 -2.529,-4.414 -2.529,-7.651c0,-3.127 0.815,-5.662 2.446,-7.606c1.631,-1.944 3.777,-2.934 6.438,-2.97c2.501,0 4.485,0.855 5.95,2.565c1.465,1.711 2.198,3.995 2.198,6.852c0,0.147 -0.003,0.417 -0.009,0.809c-0.006,0.393 -0.009,0.675 -0.009,0.846l-13.851,0c0.037,2.293 0.629,4.081 1.775,5.362c1.147,1.282 2.689,1.922 4.626,1.922c2.134,0 4.274,-0.564 6.42,-1.692l0.478,2.483c-2.048,1.251 -4.384,1.876 -7.008,1.876Z" style="fill:#808080;fill-rule:nonzero;"/>
            <rect x="156.373" y="195.188" width="3.182" height="27.204" style="fill:#808080;fill-rule:nonzero;"/>
            <path d="M168.841,195.06l-0.368,9.399l-2.115,0l-0.386,-9.399l2.869,0Z" style="fill:#808080;fill-rule:nonzero;"/>
            <path d="M200.347,222.392l0,-10.502c0,-0.981 -0.022,-1.803 -0.065,-2.465c-0.043,-0.662 -0.141,-1.337 -0.294,-2.023c-0.153,-0.687 -0.368,-1.23 -0.644,-1.628c-0.276,-0.399 -0.659,-0.724 -1.149,-0.975c-0.491,-0.252 -1.079,-0.377 -1.766,-0.377c-1.349,0 -2.498,0.362 -3.449,1.085c-0.95,0.723 -1.628,1.741 -2.032,3.053c-0.111,0.883 -0.166,1.827 -0.166,2.833l0,10.999l-3.072,0l0,-10.834c0,-0.907 -0.03,-1.695 -0.092,-2.363c-0.061,-0.668 -0.177,-1.318 -0.349,-1.95c-0.172,-0.631 -0.402,-1.143 -0.69,-1.536c-0.288,-0.392 -0.671,-0.705 -1.149,-0.938c-0.479,-0.233 -1.049,-0.349 -1.711,-0.349c-1.471,0 -2.707,0.374 -3.706,1.122c-1,0.748 -1.671,1.741 -2.014,2.98c-0.111,0.944 -0.166,1.968 -0.166,3.071l0,10.797l-3.072,0c-0.024,-12.618 -0.036,-19.344 -0.036,-20.177l2.575,0l0.386,2.887c0.613,-0.932 1.484,-1.716 2.612,-2.354c1.128,-0.638 2.409,-0.956 3.844,-0.956c0.748,0 1.438,0.076 2.069,0.229c0.632,0.154 1.159,0.347 1.582,0.58c0.423,0.233 0.8,0.512 1.131,0.837c0.332,0.325 0.589,0.644 0.773,0.956c0.184,0.313 0.337,0.641 0.46,0.984c1.471,-2.391 3.721,-3.586 6.75,-3.586c2.244,0 3.89,0.64 4.939,1.922c1.048,1.281 1.572,3.179 1.572,5.692l0,12.986l-3.071,0Z" style="fill:#808080;fill-rule:nonzero;"/>
            <path d="M225.762,196.347c-1.276,0 -2.149,0.368 -2.621,1.104c-0.473,0.735 -0.709,2.011 -0.709,3.826l0,0.938l4.856,0l0,2.28l-4.856,0l0,17.897l-3.071,0l0,-17.897l-3.274,0l0.257,-2.023l3.017,-0.257l0,-0.902c0.024,-2.599 0.512,-4.485 1.462,-5.656c0.95,-1.171 2.486,-1.756 4.607,-1.756c0.822,0 1.828,0.092 3.017,0.276l-0.202,2.409c-1.092,-0.159 -1.919,-0.239 -2.483,-0.239Z" style="fill:#808080;fill-rule:nonzero;"/>
            <path d="M234.774,202.215l0,20.177l-3.09,0l0,-20.177l3.09,0ZM234.774,194.876l0,3.641l-3.09,0l0,-3.641l3.09,0Z" style="fill:#808080;fill-rule:nonzero;"/>
            <path d="M249.063,219.762c1.042,0 1.956,-0.184 2.74,-0.552c0.785,-0.368 1.398,-0.877 1.84,-1.527c0.441,-0.649 0.769,-1.373 0.984,-2.17c0.214,-0.797 0.322,-1.668 0.322,-2.612l0,-1.49c0,-0.981 -0.111,-1.885 -0.331,-2.713c-0.221,-0.827 -0.561,-1.569 -1.021,-2.225c-0.46,-0.656 -1.073,-1.168 -1.839,-1.536c-0.767,-0.368 -1.659,-0.552 -2.677,-0.552c-0.846,0 -1.615,0.159 -2.308,0.478c-0.693,0.319 -1.263,0.739 -1.711,1.26c-0.447,0.521 -0.827,1.128 -1.14,1.821c-0.313,0.693 -0.537,1.395 -0.671,2.106c-0.135,0.711 -0.203,1.429 -0.203,2.152c0,0.711 0.074,1.417 0.221,2.115c0.147,0.699 0.38,1.38 0.699,2.042c0.319,0.662 0.705,1.242 1.159,1.738c0.453,0.497 1.021,0.899 1.701,1.205c0.681,0.307 1.426,0.46 2.235,0.46ZM244.336,231.626l-0.276,-2.778l3.752,0c1.042,0 1.95,-0.073 2.722,-0.22c0.773,-0.148 1.417,-0.39 1.932,-0.727c0.515,-0.337 0.932,-0.711 1.25,-1.122c0.319,-0.411 0.561,-0.944 0.727,-1.6c0.166,-0.656 0.276,-1.306 0.331,-1.95c0.055,-0.644 0.083,-1.432 0.083,-2.363l0,-1.785c-0.736,1.055 -1.588,1.867 -2.557,2.438c-0.969,0.57 -2.201,0.855 -3.697,0.855c-1.153,0 -2.216,-0.199 -3.191,-0.598c-0.975,-0.398 -1.797,-0.929 -2.465,-1.591c-0.668,-0.662 -1.238,-1.429 -1.711,-2.299c-0.472,-0.871 -0.815,-1.772 -1.03,-2.704c-0.214,-0.932 -0.321,-1.87 -0.321,-2.814c0,-1.472 0.18,-2.833 0.542,-4.084c0.362,-1.25 0.898,-2.366 1.61,-3.347c0.711,-0.981 1.646,-1.751 2.805,-2.309c1.158,-0.558 2.486,-0.836 3.982,-0.836c1.324,0 2.48,0.254 3.467,0.763c0.987,0.509 1.873,1.29 2.658,2.345l0,-2.685l2.998,0l0,18.724c0,0.858 -0.022,1.61 -0.064,2.253c-0.043,0.644 -0.148,1.358 -0.313,2.143c-0.166,0.785 -0.389,1.459 -0.672,2.023c-0.282,0.565 -0.677,1.132 -1.186,1.702c-0.509,0.57 -1.116,1.03 -1.821,1.379c-0.705,0.35 -1.579,0.635 -2.621,0.856c-1.042,0.22 -2.219,0.331 -3.531,0.331l-3.403,0Z" style="fill:#808080;fill-rule:nonzero;"/>
            <path d="M277.331,222.392l0,-12.195c0,-2.023 -0.322,-3.494 -0.966,-4.414c-0.643,-0.92 -1.768,-1.38 -3.375,-1.38c-1.545,0 -2.848,0.387 -3.908,1.159c-1.061,0.773 -1.751,1.772 -2.07,2.998c-0.11,0.92 -0.165,1.944 -0.165,3.072l0,10.76l-3.072,0l0,-28.013l3.072,-0.184l0,8.204c0,0.698 -0.025,1.563 -0.074,2.593c1.729,-2.134 4.022,-3.2 6.879,-3.2c4.501,0 6.751,2.642 6.751,7.927l0,12.673l-3.072,0Z" style="fill:#808080;fill-rule:nonzero;"/>
            <path d="M291.308,222.76c-1.987,0 -3.397,-0.484 -4.231,-1.453c-0.834,-0.969 -1.275,-2.532 -1.324,-4.69l0,-12.122l-2.998,0l0.128,-2.023l2.851,-0.257l1.049,-4.617l2.023,-0.074l0,4.691l5.61,0l0,2.28l-5.61,0l0,11.57c0,1.533 0.233,2.612 0.699,3.237c0.466,0.625 1.263,0.938 2.391,0.938c0.405,0 1.282,-0.098 2.631,-0.294l0.128,2.428c-1.459,0.257 -2.575,0.386 -3.347,0.386Z" style="fill:#808080;fill-rule:nonzero;"/>
            <path d="M302.231,202.215l0,20.177l-3.09,0l0,-20.177l3.09,0ZM302.231,194.876l0,3.641l-3.09,0l0,-3.641l3.09,0Z" style="fill:#808080;fill-rule:nonzero;"/>
            <path d="M308.685,222.392l0,-20.177l2.575,0l0.386,2.887c0.797,-0.993 1.793,-1.793 2.989,-2.4c1.195,-0.607 2.486,-0.91 3.872,-0.91c2.329,0 4.052,0.652 5.168,1.958c1.116,1.306 1.674,3.314 1.674,6.024l0,12.618l-3.072,0c0,-8.093 -0.006,-12.428 -0.018,-13.004c-0.049,-1.717 -0.396,-2.974 -1.039,-3.771c-0.644,-0.797 -1.72,-1.195 -3.228,-1.195c-1.582,0 -2.9,0.38 -3.955,1.14c-1.055,0.76 -1.741,1.748 -2.06,2.962c-0.123,0.821 -0.184,1.765 -0.184,2.832l0,11.036l-3.108,0Z" style="fill:#808080;fill-rule:nonzero;"/>
            <path d="M338.976,219.762c1.042,0 1.956,-0.184 2.741,-0.552c0.784,-0.368 1.398,-0.877 1.839,-1.527c0.442,-0.649 0.77,-1.373 0.984,-2.17c0.215,-0.797 0.322,-1.668 0.322,-2.612l0,-1.49c0,-0.981 -0.11,-1.885 -0.331,-2.713c-0.221,-0.827 -0.561,-1.569 -1.021,-2.225c-0.46,-0.656 -1.073,-1.168 -1.839,-1.536c-0.767,-0.368 -1.659,-0.552 -2.677,-0.552c-0.846,0 -1.615,0.159 -2.308,0.478c-0.693,0.319 -1.263,0.739 -1.711,1.26c-0.447,0.521 -0.827,1.128 -1.14,1.821c-0.313,0.693 -0.536,1.395 -0.671,2.106c-0.135,0.711 -0.203,1.429 -0.203,2.152c0,0.711 0.074,1.417 0.221,2.115c0.147,0.699 0.38,1.38 0.699,2.042c0.319,0.662 0.705,1.242 1.159,1.738c0.454,0.497 1.021,0.899 1.701,1.205c0.681,0.307 1.426,0.46 2.235,0.46ZM334.249,231.626l-0.276,-2.778l3.752,0c1.043,0 1.95,-0.073 2.723,-0.22c0.772,-0.148 1.416,-0.39 1.931,-0.727c0.515,-0.337 0.932,-0.711 1.251,-1.122c0.318,-0.411 0.561,-0.944 0.726,-1.6c0.166,-0.656 0.276,-1.306 0.331,-1.95c0.055,-0.644 0.083,-1.432 0.083,-2.363l0,-1.785c-0.736,1.055 -1.588,1.867 -2.557,2.438c-0.968,0.57 -2.201,0.855 -3.697,0.855c-1.152,0 -2.216,-0.199 -3.191,-0.598c-0.975,-0.398 -1.796,-0.929 -2.465,-1.591c-0.668,-0.662 -1.238,-1.429 -1.71,-2.299c-0.472,-0.871 -0.816,-1.772 -1.03,-2.704c-0.215,-0.932 -0.322,-1.87 -0.322,-2.814c0,-1.472 0.181,-2.833 0.542,-4.084c0.362,-1.25 0.899,-2.366 1.61,-3.347c0.711,-0.981 1.646,-1.751 2.805,-2.309c1.159,-0.558 2.486,-0.836 3.982,-0.836c1.324,0 2.48,0.254 3.467,0.763c0.987,0.509 1.873,1.29 2.658,2.345l0,-2.685l2.998,0l0,18.724c0,0.858 -0.021,1.61 -0.064,2.253c-0.043,0.644 -0.147,1.358 -0.313,2.143c-0.165,0.785 -0.389,1.459 -0.671,2.023c-0.282,0.565 -0.678,1.132 -1.187,1.702c-0.509,0.57 -1.116,1.03 -1.821,1.379c-0.705,0.35 -1.578,0.635 -2.621,0.856c-1.042,0.22 -2.219,0.331 -3.531,0.331l-3.403,0Z" style="fill:#808080;fill-rule:nonzero;"/>
            <path d="M372.263,222.815c-2.967,0 -5.288,-0.962 -6.962,-2.888c-1.673,-1.925 -2.51,-4.445 -2.51,-7.559c0.012,-3.139 0.867,-5.687 2.566,-7.643c1.698,-1.956 4.025,-2.933 6.98,-2.933c1.042,0 2.051,0.128 3.026,0.386c0.974,0.257 1.744,0.595 2.308,1.011l-0.846,2.392c-1.435,-0.773 -2.949,-1.159 -4.543,-1.159c-1.95,0 -3.492,0.711 -4.626,2.133c-1.135,1.423 -1.702,3.366 -1.702,5.831c0,2.404 0.561,4.307 1.683,5.711c1.122,1.404 2.677,2.106 4.663,2.106c1.582,0 3.201,-0.429 4.856,-1.287l0.386,2.446c-1.336,0.969 -3.096,1.453 -5.279,1.453Z" style="fill:#808080;fill-rule:nonzero;"/>
            <path d="M391.261,202.031c0.552,0 1.055,0.036 1.509,0.11l-0.111,2.833c-0.564,-0.099 -1.054,-0.148 -1.471,-0.148c-1.717,0 -3.112,0.598 -4.185,1.794c-1.073,1.195 -1.609,2.676 -1.609,4.442l0,11.33l-3.072,0c-0.012,-12.385 -0.018,-19.111 -0.018,-20.177l2.556,0l0.295,3.623c0.699,-1.14 1.588,-2.06 2.667,-2.759c1.079,-0.699 2.225,-1.048 3.439,-1.048Z" style="fill:#808080;fill-rule:nonzero;"/>
            <path d="M400.235,202.215l0,20.177l-3.09,0l0,-20.177l3.09,0ZM400.235,194.876l0,3.641l-3.09,0l0,-3.641l3.09,0Z" style="fill:#808080;fill-rule:nonzero;"/>
            <path d="M432.31,222.392l0,-10.502c0,-0.981 -0.021,-1.803 -0.064,-2.465c-0.043,-0.662 -0.141,-1.337 -0.294,-2.023c-0.153,-0.687 -0.368,-1.23 -0.644,-1.628c-0.276,-0.399 -0.659,-0.724 -1.15,-0.975c-0.49,-0.252 -1.079,-0.377 -1.765,-0.377c-1.349,0 -2.499,0.362 -3.449,1.085c-0.95,0.723 -1.628,1.741 -2.033,3.053c-0.11,0.883 -0.165,1.827 -0.165,2.833l0,10.999l-3.072,0l0,-10.834c0,-0.907 -0.03,-1.695 -0.092,-2.363c-0.061,-0.668 -0.178,-1.318 -0.349,-1.95c-0.172,-0.631 -0.402,-1.143 -0.69,-1.536c-0.288,-0.392 -0.671,-0.705 -1.15,-0.938c-0.478,-0.233 -1.048,-0.349 -1.71,-0.349c-1.472,0 -2.707,0.374 -3.707,1.122c-0.999,0.748 -1.67,1.741 -2.014,2.98c-0.11,0.944 -0.165,1.968 -0.165,3.071l0,10.797l-3.072,0c-0.024,-12.618 -0.037,-19.344 -0.037,-20.177l2.575,0l0.387,2.887c0.613,-0.932 1.483,-1.716 2.612,-2.354c1.128,-0.638 2.409,-0.956 3.844,-0.956c0.748,0 1.438,0.076 2.069,0.229c0.632,0.154 1.159,0.347 1.582,0.58c0.423,0.233 0.8,0.512 1.131,0.837c0.331,0.325 0.589,0.644 0.773,0.956c0.184,0.313 0.337,0.641 0.459,0.984c1.472,-2.391 3.722,-3.586 6.751,-3.586c2.244,0 3.89,0.64 4.939,1.922c1.048,1.281 1.572,3.179 1.572,5.692l0,12.986l-3.072,0Z" style="fill:#808080;fill-rule:nonzero;"/>
            <path d="M447.906,204.33c-1.57,0 -2.851,0.555 -3.845,1.664c-0.993,1.11 -1.575,2.628 -1.747,4.553l10.65,0c0,-1.999 -0.451,-3.535 -1.352,-4.608c-0.901,-1.073 -2.137,-1.609 -3.706,-1.609ZM448.513,222.815c-2.931,0 -5.239,-0.932 -6.926,-2.796c-1.686,-1.863 -2.529,-4.414 -2.529,-7.651c0,-3.127 0.816,-5.662 2.447,-7.606c1.631,-1.944 3.777,-2.934 6.437,-2.97c2.502,0 4.485,0.855 5.951,2.565c1.465,1.711 2.198,3.995 2.198,6.852c0,0.147 -0.003,0.417 -0.009,0.809c-0.007,0.393 -0.01,0.675 -0.01,0.846l-13.85,0c0.037,2.293 0.629,4.081 1.775,5.362c1.147,1.282 2.689,1.922 4.626,1.922c2.134,0 4.273,-0.564 6.419,-1.692l0.479,2.483c-2.048,1.251 -4.384,1.876 -7.008,1.876Z" style="fill:#808080;fill-rule:nonzero;"/>
            <path d="M463.207,222.613c-0.761,0 -1.359,-0.242 -1.794,-0.727c-0.435,-0.484 -0.653,-1.051 -0.653,-1.701c0,-0.662 0.215,-1.232 0.644,-1.711c0.429,-0.478 1.03,-0.717 1.803,-0.717c0.772,0 1.373,0.239 1.802,0.717c0.429,0.479 0.644,1.049 0.644,1.711c0,0.662 -0.215,1.232 -0.644,1.711c-0.429,0.478 -1.03,0.717 -1.802,0.717Z" style="fill:#808080;fill-rule:nonzero;"/>
            <path d="M472.971,222.613c-0.76,0 -1.358,-0.242 -1.793,-0.727c-0.436,-0.484 -0.653,-1.051 -0.653,-1.701c0,-0.662 0.214,-1.232 0.643,-1.711c0.43,-0.478 1.03,-0.717 1.803,-0.717c0.772,0 1.373,0.239 1.803,0.717c0.429,0.479 0.643,1.049 0.643,1.711c0,0.662 -0.214,1.232 -0.643,1.711c-0.43,0.478 -1.031,0.717 -1.803,0.717Z" style="fill:#808080;fill-rule:nonzero;"/>
            <path d="M482.735,222.613c-0.76,0 -1.358,-0.242 -1.793,-0.727c-0.435,-0.484 -0.653,-1.051 -0.653,-1.701c0,-0.662 0.215,-1.232 0.644,-1.711c0.429,-0.478 1.03,-0.717 1.802,-0.717c0.773,0 1.374,0.239 1.803,0.717c0.429,0.479 0.644,1.049 0.644,1.711c0,0.662 -0.215,1.232 -0.644,1.711c-0.429,0.478 -1.03,0.717 -1.803,0.717Z" style="fill:#808080;fill-rule:nonzero;"/>
            <path d="M498.257,204.33c-1.57,0 -2.851,0.555 -3.844,1.664c-0.994,1.11 -1.576,2.628 -1.748,4.553l10.65,0c0,-1.999 -0.45,-3.535 -1.352,-4.608c-0.901,-1.073 -2.136,-1.609 -3.706,-1.609ZM498.864,222.815c-2.931,0 -5.239,-0.932 -6.925,-2.796c-1.686,-1.863 -2.529,-4.414 -2.529,-7.651c0,-3.127 0.815,-5.662 2.446,-7.606c1.631,-1.944 3.777,-2.934 6.438,-2.97c2.501,0 4.485,0.855 5.95,2.565c1.465,1.711 2.198,3.995 2.198,6.852c0,0.147 -0.003,0.417 -0.009,0.809c-0.006,0.393 -0.009,0.675 -0.009,0.846l-13.851,0c0.037,2.293 0.629,4.081 1.775,5.362c1.147,1.282 2.689,1.922 4.626,1.922c2.134,0 4.274,-0.564 6.42,-1.692l0.478,2.483c-2.048,1.251 -4.384,1.876 -7.008,1.876Z" style="fill:#808080;fill-rule:nonzero;"/>
            <path d="M516.556,222.392l-7.817,-20.177l3.292,0l4.451,11.992c0,0 0.614,1.705 1.84,5.114c0.417,-1.313 0.993,-3.005 1.729,-5.077c0.932,-2.612 2.379,-6.622 4.341,-12.029l3.274,0l-7.762,20.177l-3.348,0Z" style="fill:#808080;fill-rule:nonzero;"/>
            <path d="M538.718,204.33c-1.57,0 -2.851,0.555 -3.845,1.664c-0.993,1.11 -1.575,2.628 -1.747,4.553l10.65,0c0,-1.999 -0.451,-3.535 -1.352,-4.608c-0.901,-1.073 -2.137,-1.609 -3.706,-1.609ZM539.325,222.815c-2.931,0 -5.239,-0.932 -6.926,-2.796c-1.686,-1.863 -2.529,-4.414 -2.529,-7.651c0,-3.127 0.816,-5.662 2.447,-7.606c1.631,-1.944 3.776,-2.934 6.437,-2.97c2.502,0 4.485,0.855 5.951,2.565c1.465,1.711 2.198,3.995 2.198,6.852c0,0.147 -0.003,0.417 -0.009,0.809c-0.007,0.393 -0.01,0.675 -0.01,0.846l-13.85,0c0.037,2.293 0.628,4.081 1.775,5.362c1.147,1.282 2.689,1.922 4.626,1.922c2.134,0 4.273,-0.564 6.419,-1.692l0.479,2.483c-2.048,1.251 -4.384,1.876 -7.008,1.876Z" style="fill:#808080;fill-rule:nonzero;"/>
            <path d="M551.848,222.392l0,-20.177l2.575,0l0.386,2.887c0.797,-0.993 1.794,-1.793 2.989,-2.4c1.196,-0.607 2.487,-0.91 3.872,-0.91c2.33,0 4.053,0.652 5.169,1.958c1.116,1.306 1.674,3.314 1.674,6.024l0,12.618l-3.072,0c0,-8.093 -0.006,-12.428 -0.019,-13.004c-0.049,-1.717 -0.395,-2.974 -1.039,-3.771c-0.644,-0.797 -1.72,-1.195 -3.228,-1.195c-1.582,0 -2.9,0.38 -3.954,1.14c-1.055,0.76 -1.742,1.748 -2.06,2.962c-0.123,0.821 -0.184,1.765 -0.184,2.832l0,11.036l-3.109,0Z" style="fill:#808080;fill-rule:nonzero;"/>
            <path d="M590.819,222.76c-1.987,0 -3.397,-0.484 -4.231,-1.453c-0.833,-0.969 -1.275,-2.532 -1.324,-4.69l0,-12.122l-2.998,0l0.129,-2.023l2.851,-0.257l1.048,-4.617l2.023,-0.074l0,4.691l5.61,0l0,2.28l-5.61,0l0,11.57c0,1.533 0.233,2.612 0.699,3.237c0.466,0.625 1.263,0.938 2.391,0.938c0.405,0 1.282,-0.098 2.631,-0.294l0.128,2.428c-1.459,0.257 -2.575,0.386 -3.347,0.386Z" style="fill:#808080;fill-rule:nonzero;"/>
            <path d="M611.711,222.392l0,-12.195c0,-2.023 -0.322,-3.494 -0.965,-4.414c-0.644,-0.92 -1.769,-1.38 -3.376,-1.38c-1.545,0 -2.847,0.387 -3.908,1.159c-1.061,0.773 -1.751,1.772 -2.069,2.998c-0.111,0.92 -0.166,1.944 -0.166,3.072l0,10.76l-3.072,0l0,-28.013l3.072,-0.184l0,8.204c0,0.698 -0.024,1.563 -0.074,2.593c1.729,-2.134 4.023,-3.2 6.88,-3.2c4.5,0 6.75,2.642 6.75,7.927l0,12.673l-3.072,0Z" style="fill:#808080;fill-rule:nonzero;"/>
            <path d="M621.494,212.349c0,2.392 0.531,4.308 1.591,5.748c1.061,1.441 2.609,2.162 4.645,2.162c2.011,0 3.528,-0.718 4.552,-2.152c1.024,-1.435 1.536,-3.366 1.536,-5.794c0,-2.465 -0.506,-4.406 -1.518,-5.822c-1.011,-1.416 -2.553,-2.124 -4.626,-2.124c-2.011,0 -3.543,0.723 -4.598,2.17c-1.055,1.447 -1.582,3.384 -1.582,5.812ZM637,212.294c0,3.127 -0.834,5.662 -2.502,7.606c-1.667,1.943 -3.973,2.915 -6.916,2.915c-2.832,0 -5.085,-0.981 -6.759,-2.943c-1.674,-1.962 -2.511,-4.482 -2.511,-7.559c0,-3.14 0.84,-5.678 2.52,-7.615c1.68,-1.938 3.985,-2.906 6.916,-2.906c2.882,0 5.144,0.971 6.787,2.915c1.643,1.943 2.465,4.473 2.465,7.587Z" style="fill:#808080;fill-rule:nonzero;"/>
            <path d="M641.32,215.66l0,-13.445l3.09,0l0,13.482c0,0.883 0.126,1.631 0.377,2.244c0.251,0.613 0.613,1.088 1.085,1.425c0.472,0.338 1.006,0.58 1.6,0.727c0.595,0.147 1.279,0.221 2.051,0.221c1.594,0 2.836,-0.35 3.725,-1.049c0.889,-0.699 1.334,-1.888 1.334,-3.568l0,-13.482l3.09,0l0,13.445c0,1.03 -0.148,1.956 -0.442,2.778c-0.294,0.821 -0.69,1.505 -1.186,2.05c-0.497,0.546 -1.095,0.997 -1.794,1.352c-0.698,0.356 -1.437,0.614 -2.216,0.773c-0.779,0.159 -1.616,0.239 -2.511,0.239c-0.883,0 -1.716,-0.08 -2.501,-0.239c-0.785,-0.159 -1.53,-0.42 -2.235,-0.782c-0.705,-0.362 -1.312,-0.815 -1.821,-1.361c-0.509,-0.546 -0.91,-1.229 -1.205,-2.051c-0.294,-0.821 -0.441,-1.741 -0.441,-2.759Z" style="fill:#808080;fill-rule:nonzero;"/>
            <path d="M670.765,219.762c1.043,0 1.956,-0.184 2.741,-0.552c0.785,-0.368 1.398,-0.877 1.839,-1.527c0.442,-0.649 0.77,-1.373 0.984,-2.17c0.215,-0.797 0.322,-1.668 0.322,-2.612l0,-1.49c0,-0.981 -0.11,-1.885 -0.331,-2.713c-0.221,-0.827 -0.561,-1.569 -1.021,-2.225c-0.46,-0.656 -1.073,-1.168 -1.839,-1.536c-0.766,-0.368 -1.659,-0.552 -2.676,-0.552c-0.846,0 -1.616,0.159 -2.309,0.478c-0.693,0.319 -1.263,0.739 -1.71,1.26c-0.448,0.521 -0.828,1.128 -1.141,1.821c-0.312,0.693 -0.536,1.395 -0.671,2.106c-0.135,0.711 -0.202,1.429 -0.202,2.152c0,0.711 0.073,1.417 0.22,2.115c0.148,0.699 0.38,1.38 0.699,2.042c0.319,0.662 0.705,1.242 1.159,1.738c0.454,0.497 1.021,0.899 1.701,1.205c0.681,0.307 1.426,0.46 2.235,0.46ZM666.038,231.626l-0.276,-2.778l3.753,0c1.042,0 1.949,-0.073 2.722,-0.22c0.772,-0.148 1.416,-0.39 1.931,-0.727c0.515,-0.337 0.932,-0.711 1.251,-1.122c0.319,-0.411 0.561,-0.944 0.726,-1.6c0.166,-0.656 0.276,-1.306 0.331,-1.95c0.056,-0.644 0.083,-1.432 0.083,-2.363l0,-1.785c-0.735,1.055 -1.588,1.867 -2.556,2.438c-0.969,0.57 -2.202,0.855 -3.698,0.855c-1.152,0 -2.216,-0.199 -3.191,-0.598c-0.975,-0.398 -1.796,-0.929 -2.465,-1.591c-0.668,-0.662 -1.238,-1.429 -1.71,-2.299c-0.472,-0.871 -0.816,-1.772 -1.03,-2.704c-0.215,-0.932 -0.322,-1.87 -0.322,-2.814c0,-1.472 0.181,-2.833 0.543,-4.084c0.361,-1.25 0.898,-2.366 1.609,-3.347c0.711,-0.981 1.646,-1.751 2.805,-2.309c1.159,-0.558 2.486,-0.836 3.982,-0.836c1.325,0 2.48,0.254 3.467,0.763c0.987,0.509 1.873,1.29 2.658,2.345l0,-2.685l2.998,0l0,18.724c0,0.858 -0.021,1.61 -0.064,2.253c-0.043,0.644 -0.147,1.358 -0.313,2.143c-0.165,0.785 -0.389,1.459 -0.671,2.023c-0.282,0.565 -0.678,1.132 -1.186,1.702c-0.509,0.57 -1.116,1.03 -1.821,1.379c-0.705,0.35 -1.579,0.635 -2.621,0.856c-1.043,0.22 -2.22,0.331 -3.532,0.331l-3.403,0Z" style="fill:#808080;fill-rule:nonzero;"/>
            <path d="M699.034,222.392l0,-12.195c0,-2.023 -0.322,-3.494 -0.966,-4.414c-0.644,-0.92 -1.769,-1.38 -3.375,-1.38c-1.545,0 -2.848,0.387 -3.909,1.159c-1.061,0.773 -1.75,1.772 -2.069,2.998c-0.111,0.92 -0.166,1.944 -0.166,3.072l0,10.76l-3.071,0l0,-28.013l3.071,-0.184l0,8.204c0,0.698 -0.024,1.563 -0.073,2.593c1.729,-2.134 4.022,-3.2 6.879,-3.2c4.5,0 6.75,2.642 6.75,7.927l0,12.673l-3.071,0Z" style="fill:#808080;fill-rule:nonzero;"/>
            <path d="M722.48,220.332c1.459,0 2.744,-0.401 3.854,-1.205c1.109,-0.803 1.824,-1.885 2.143,-3.246l0,-3.403c-0.062,0 -0.433,0.031 -1.113,0.092c-0.681,0.061 -1.125,0.098 -1.334,0.11c-2.661,0.233 -4.515,0.669 -5.564,1.306c-1.048,0.638 -1.572,1.662 -1.572,3.072c0,1.079 0.318,1.895 0.956,2.446c0.638,0.552 1.514,0.828 2.63,0.828ZM729.157,222.392c-0.184,-0.785 -0.362,-1.631 -0.533,-2.538c-1.116,1.116 -2.165,1.888 -3.146,2.317c-0.981,0.43 -2.133,0.644 -3.458,0.644c-1.888,0 -3.405,-0.493 -4.552,-1.48c-1.146,-0.988 -1.72,-2.407 -1.72,-4.258c0,-2.061 0.782,-3.587 2.345,-4.58c1.564,-0.994 3.817,-1.613 6.76,-1.858c0.405,-0.037 1.015,-0.089 1.83,-0.157c0.816,-0.067 1.426,-0.119 1.83,-0.156l0,-1.784c0,-1.423 -0.331,-2.477 -0.993,-3.164c-0.662,-0.686 -1.704,-1.03 -3.127,-1.03c-1.986,0 -3.991,0.491 -6.014,1.472c-0.062,-0.147 -0.221,-0.574 -0.479,-1.279c-0.257,-0.705 -0.392,-1.07 -0.404,-1.094c0.895,-0.503 1.959,-0.904 3.191,-1.205c1.232,-0.3 2.486,-0.45 3.761,-0.45c2.514,0 4.326,0.548 5.436,1.646c1.109,1.097 1.664,2.964 1.664,5.601l0,13.353l-2.391,0Z" style="fill:#808080;fill-rule:nonzero;"/>
            <path d="M742.95,222.76c-1.962,0 -3.351,-0.527 -4.166,-1.582c-0.816,-1.054 -1.224,-2.888 -1.224,-5.499l0,-21.3l3.054,-0.184l0,20.27c0,0.833 0.009,1.502 0.027,2.005c0.019,0.502 0.065,0.996 0.138,1.48c0.074,0.485 0.172,0.849 0.295,1.095c0.122,0.245 0.3,0.469 0.533,0.671c0.233,0.202 0.512,0.337 0.837,0.405c0.325,0.067 0.726,0.101 1.205,0.101c0.392,0 1.165,-0.074 2.317,-0.221l0.166,2.446c-1.263,0.209 -2.324,0.313 -3.182,0.313Z" style="fill:#808080;fill-rule:nonzero;"/>
            <path d="M754.094,222.76c-1.962,0 -3.351,-0.527 -4.166,-1.582c-0.816,-1.054 -1.224,-2.888 -1.224,-5.499l0,-21.3l3.054,-0.184l0,20.27c0,0.833 0.009,1.502 0.027,2.005c0.019,0.502 0.065,0.996 0.138,1.48c0.074,0.485 0.172,0.849 0.295,1.095c0.122,0.245 0.3,0.469 0.533,0.671c0.233,0.202 0.512,0.337 0.837,0.405c0.325,0.067 0.726,0.101 1.205,0.101c0.392,0 1.165,-0.074 2.317,-0.221l0.166,2.446c-1.263,0.209 -2.324,0.313 -3.182,0.313Z" style="fill:#808080;fill-rule:nonzero;"/>
            <rect x="191.824" y="239.252" width="3.182" height="27.204" style="fill:#808080;fill-rule:nonzero;"/>
            <path d="M204.292,239.123l-0.368,9.399l-2.115,0l-0.387,-9.399l2.87,0Z" style="fill:#808080;fill-rule:nonzero;"/>
            <path d="M235.797,266.456l0,-10.503c0,-0.981 -0.021,-1.802 -0.064,-2.465c-0.043,-0.662 -0.141,-1.336 -0.294,-2.023c-0.154,-0.687 -0.368,-1.229 -0.644,-1.628c-0.276,-0.398 -0.659,-0.723 -1.15,-0.975c-0.49,-0.251 -1.079,-0.377 -1.765,-0.377c-1.349,0 -2.499,0.362 -3.449,1.086c-0.951,0.723 -1.628,1.741 -2.033,3.053c-0.11,0.883 -0.165,1.827 -0.165,2.833l0,10.999l-3.072,0l0,-10.834c0,-0.907 -0.031,-1.695 -0.092,-2.363c-0.061,-0.669 -0.178,-1.319 -0.349,-1.95c-0.172,-0.632 -0.402,-1.144 -0.69,-1.536c-0.288,-0.392 -0.672,-0.705 -1.15,-0.938c-0.478,-0.233 -1.048,-0.35 -1.71,-0.35c-1.472,0 -2.707,0.374 -3.707,1.122c-0.999,0.748 -1.67,1.742 -2.014,2.98c-0.11,0.944 -0.165,1.968 -0.165,3.072l0,10.797l-3.072,0c-0.025,-12.618 -0.037,-19.344 -0.037,-20.178l2.575,0l0.387,2.888c0.613,-0.932 1.483,-1.717 2.611,-2.354c1.129,-0.638 2.41,-0.957 3.845,-0.957c0.748,0 1.437,0.077 2.069,0.23c0.631,0.153 1.159,0.346 1.582,0.579c0.423,0.233 0.8,0.512 1.131,0.837c0.331,0.325 0.589,0.644 0.773,0.957c0.183,0.313 0.337,0.641 0.459,0.984c1.472,-2.391 3.722,-3.587 6.751,-3.587c2.244,0 3.89,0.641 4.938,1.922c1.049,1.282 1.573,3.179 1.573,5.693l0,12.986l-3.072,0Z" style="fill:#808080;fill-rule:nonzero;"/>
            <path d="M262.592,246.094c0.551,0 1.054,0.037 1.508,0.111l-0.11,2.832c-0.565,-0.098 -1.055,-0.147 -1.472,-0.147c-1.717,0 -3.111,0.598 -4.184,1.793c-1.073,1.196 -1.61,2.677 -1.61,4.442l0,11.331l-3.072,0c-0.012,-12.385 -0.018,-19.111 -0.018,-20.178l2.557,0l0.294,3.624c0.699,-1.141 1.588,-2.06 2.667,-2.759c1.079,-0.699 2.226,-1.049 3.44,-1.049Z" style="fill:#808080;fill-rule:nonzero;"/>
            <path d="M275.501,248.393c-1.569,0 -2.851,0.555 -3.844,1.665c-0.993,1.11 -1.576,2.627 -1.747,4.552l10.65,0c0,-1.998 -0.451,-3.534 -1.352,-4.607c-0.902,-1.073 -2.137,-1.61 -3.707,-1.61ZM276.108,266.879c-2.93,0 -5.239,-0.932 -6.925,-2.796c-1.686,-1.864 -2.529,-4.414 -2.529,-7.652c0,-3.126 0.816,-5.662 2.446,-7.605c1.631,-1.944 3.777,-2.934 6.438,-2.971c2.502,0 4.485,0.855 5.95,2.566c1.466,1.711 2.198,3.994 2.198,6.852c0,0.147 -0.003,0.417 -0.009,0.809c-0.006,0.392 -0.009,0.674 -0.009,0.846l-13.85,0c0.037,2.293 0.628,4.08 1.775,5.362c1.146,1.281 2.688,1.922 4.626,1.922c2.133,0 4.273,-0.564 6.419,-1.692l0.478,2.483c-2.048,1.251 -4.384,1.876 -7.008,1.876Z" style="fill:#808080;fill-rule:nonzero;"/>
            <path d="M294.242,264.396c1.459,0 2.744,-0.402 3.853,-1.205c1.11,-0.803 1.824,-1.885 2.143,-3.246l0,-3.403c-0.061,0 -0.432,0.03 -1.113,0.092c-0.68,0.061 -1.125,0.098 -1.333,0.11c-2.661,0.233 -4.516,0.668 -5.564,1.306c-1.049,0.638 -1.573,1.662 -1.573,3.072c0,1.079 0.319,1.894 0.957,2.446c0.637,0.552 1.514,0.828 2.63,0.828ZM300.919,266.456c-0.184,-0.785 -0.362,-1.631 -0.534,-2.538c-1.116,1.115 -2.164,1.888 -3.145,2.317c-0.981,0.429 -2.134,0.644 -3.458,0.644c-1.888,0 -3.406,-0.494 -4.552,-1.481c-1.147,-0.987 -1.72,-2.406 -1.72,-4.258c0,-2.06 0.782,-3.587 2.345,-4.58c1.563,-0.993 3.817,-1.612 6.76,-1.858c0.404,-0.036 1.014,-0.088 1.83,-0.156c0.815,-0.067 1.425,-0.119 1.83,-0.156l0,-1.784c0,-1.423 -0.331,-2.477 -0.993,-3.164c-0.663,-0.687 -1.705,-1.03 -3.127,-1.03c-1.987,0 -3.992,0.49 -6.015,1.471c-0.061,-0.147 -0.221,-0.573 -0.478,-1.278c-0.258,-0.705 -0.393,-1.07 -0.405,-1.094c0.895,-0.503 1.959,-0.905 3.191,-1.205c1.233,-0.301 2.487,-0.451 3.762,-0.451c2.514,0 4.325,0.549 5.435,1.646c1.11,1.098 1.665,2.965 1.665,5.601l0,13.354l-2.391,0Z" style="fill:#808080;fill-rule:nonzero;"/>
            <path d="M314.711,266.824c-1.962,0 -3.35,-0.528 -4.166,-1.582c-0.815,-1.055 -1.223,-2.888 -1.223,-5.5l0,-21.299l3.053,-0.184l0,20.269c0,0.834 0.009,1.502 0.028,2.005c0.018,0.503 0.064,0.996 0.138,1.481c0.073,0.484 0.171,0.849 0.294,1.094c0.123,0.245 0.301,0.469 0.534,0.672c0.233,0.202 0.511,0.337 0.836,0.404c0.325,0.068 0.727,0.101 1.205,0.101c0.393,0 1.165,-0.073 2.318,-0.22l0.165,2.446c-1.263,0.208 -2.323,0.313 -3.182,0.313Z" style="fill:#808080;fill-rule:nonzero;"/>
            <path d="M325.855,266.824c-1.962,0 -3.35,-0.528 -4.166,-1.582c-0.815,-1.055 -1.223,-2.888 -1.223,-5.5l0,-21.299l3.053,-0.184l0,20.269c0,0.834 0.009,1.502 0.028,2.005c0.018,0.503 0.064,0.996 0.138,1.481c0.073,0.484 0.171,0.849 0.294,1.094c0.123,0.245 0.3,0.469 0.533,0.672c0.233,0.202 0.512,0.337 0.837,0.404c0.325,0.068 0.727,0.101 1.205,0.101c0.393,0 1.165,-0.073 2.318,-0.22l0.165,2.446c-1.263,0.208 -2.323,0.313 -3.182,0.313Z" style="fill:#808080;fill-rule:nonzero;"/>
            <path d="M328.998,246.278l3.256,0l6.364,16.793l5.665,-16.793l3.256,0c-5.445,14.985 -8.259,22.71 -8.443,23.176c-0.846,2.121 -1.87,3.676 -3.072,4.663c-1.201,0.987 -2.783,1.48 -4.745,1.48c-0.589,0 -1.208,-0.049 -1.858,-0.147l-0.184,-2.612c0.687,0.049 1.202,0.074 1.545,0.074c1.386,0 2.437,-0.254 3.155,-0.763c0.717,-0.509 1.358,-1.463 1.922,-2.861c0.503,-1.287 0.877,-2.28 1.122,-2.979l-7.983,-20.031Z" style="fill:#808080;fill-rule:nonzero;"/>
            <path d="M368.999,264.23c2.023,0 3.528,-0.65 4.515,-1.949c0.988,-1.3 1.481,-3.158 1.481,-5.574c0,-2.722 -0.475,-4.773 -1.425,-6.152c-0.951,-1.38 -2.487,-2.07 -4.608,-2.07c-0.944,0 -1.778,0.203 -2.502,0.607c-0.723,0.405 -1.305,0.969 -1.747,1.693c-0.441,0.723 -0.775,1.554 -1.002,2.492c-0.227,0.938 -0.341,1.965 -0.341,3.081c0,1.569 0.194,2.931 0.58,4.083c0.386,1.153 1.008,2.073 1.867,2.759c0.858,0.687 1.919,1.03 3.182,1.03ZM375.05,263.531c-0.662,1.018 -1.545,1.827 -2.648,2.428c-1.104,0.601 -2.336,0.901 -3.697,0.901c-2.661,0 -4.746,-0.947 -6.254,-2.841c-1.509,-1.895 -2.263,-4.473 -2.263,-7.735c0,-3.114 0.767,-5.631 2.3,-7.55c1.532,-1.919 3.586,-2.879 6.161,-2.879c1.337,0 2.597,0.291 3.78,0.874c1.183,0.582 2.069,1.364 2.658,2.345l-0.055,-1.747l0,-8.884l3.035,-0.184l0,28.197l-2.612,0l-0.405,-2.925Z" style="fill:#808080;fill-rule:nonzero;"/>
            <path d="M386.323,256.413c0,2.391 0.53,4.307 1.591,5.748c1.061,1.441 2.609,2.161 4.644,2.161c2.011,0 3.529,-0.717 4.553,-2.152c1.024,-1.435 1.536,-3.366 1.536,-5.794c0,-2.465 -0.506,-4.405 -1.518,-5.821c-1.012,-1.417 -2.554,-2.125 -4.626,-2.125c-2.011,0 -3.544,0.724 -4.598,2.171c-1.055,1.447 -1.582,3.384 -1.582,5.812ZM401.829,256.358c0,3.127 -0.834,5.662 -2.502,7.606c-1.668,1.943 -3.973,2.915 -6.916,2.915c-2.832,0 -5.086,-0.981 -6.759,-2.943c-1.674,-1.962 -2.511,-4.482 -2.511,-7.56c0,-3.139 0.84,-5.677 2.52,-7.615c1.68,-1.937 3.985,-2.906 6.916,-2.906c2.881,0 5.144,0.972 6.787,2.916c1.643,1.943 2.465,4.472 2.465,7.587Z" style="fill:#808080;fill-rule:nonzero;"/>
            <path d="M410.471,246.278l0,20.178l-3.09,0l0,-20.178l3.09,0ZM410.471,238.939l0,3.642l-3.09,0l0,-3.642l3.09,0Z" style="fill:#808080;fill-rule:nonzero;"/>
            <path d="M416.925,266.456l0,-20.178l2.575,0l0.386,2.888c0.797,-0.993 1.793,-1.793 2.989,-2.4c1.196,-0.607 2.486,-0.911 3.872,-0.911c2.33,0 4.053,0.653 5.168,1.959c1.116,1.306 1.674,3.314 1.674,6.024l0,12.618l-3.072,0c0,-8.093 -0.006,-12.428 -0.018,-13.004c-0.049,-1.717 -0.395,-2.974 -1.039,-3.771c-0.644,-0.797 -1.72,-1.196 -3.228,-1.196c-1.582,0 -2.9,0.381 -3.955,1.141c-1.054,0.76 -1.741,1.747 -2.06,2.961c-0.122,0.822 -0.184,1.766 -0.184,2.833l0,11.036l-3.108,0Z" style="fill:#808080;fill-rule:nonzero;"/>
            <path d="M447.216,263.826c1.043,0 1.956,-0.184 2.741,-0.552c0.785,-0.368 1.398,-0.877 1.839,-1.527c0.442,-0.65 0.77,-1.373 0.984,-2.17c0.215,-0.797 0.322,-1.668 0.322,-2.612l0,-1.49c0,-0.981 -0.11,-1.885 -0.331,-2.713c-0.221,-0.828 -0.561,-1.57 -1.021,-2.226c-0.46,-0.656 -1.073,-1.168 -1.839,-1.536c-0.766,-0.367 -1.659,-0.551 -2.676,-0.551c-0.846,0 -1.616,0.159 -2.309,0.478c-0.693,0.319 -1.263,0.739 -1.71,1.26c-0.448,0.521 -0.828,1.128 -1.141,1.821c-0.312,0.693 -0.536,1.395 -0.671,2.106c-0.135,0.711 -0.202,1.428 -0.202,2.152c0,0.711 0.073,1.416 0.22,2.115c0.147,0.699 0.38,1.38 0.699,2.042c0.319,0.662 0.705,1.241 1.159,1.738c0.454,0.497 1.021,0.898 1.701,1.205c0.681,0.306 1.426,0.46 2.235,0.46ZM442.489,275.689l-0.276,-2.777l3.753,0c1.042,0 1.949,-0.074 2.722,-0.221c0.772,-0.147 1.416,-0.389 1.931,-0.726c0.515,-0.338 0.932,-0.712 1.251,-1.122c0.319,-0.411 0.561,-0.945 0.726,-1.601c0.166,-0.656 0.276,-1.305 0.331,-1.949c0.056,-0.644 0.083,-1.432 0.083,-2.364l0,-1.784c-0.736,1.055 -1.588,1.867 -2.556,2.437c-0.969,0.57 -2.202,0.855 -3.698,0.855c-1.152,0 -2.216,-0.199 -3.191,-0.597c-0.975,-0.399 -1.796,-0.929 -2.465,-1.591c-0.668,-0.663 -1.238,-1.429 -1.71,-2.3c-0.472,-0.87 -0.816,-1.771 -1.03,-2.703c-0.215,-0.932 -0.322,-1.87 -0.322,-2.815c0,-1.471 0.181,-2.832 0.543,-4.083c0.361,-1.251 0.898,-2.367 1.609,-3.348c0.711,-0.981 1.646,-1.75 2.805,-2.308c1.159,-0.558 2.486,-0.837 3.982,-0.837c1.324,0 2.48,0.255 3.467,0.763c0.987,0.509 1.873,1.291 2.658,2.346l0,-2.686l2.998,0l0,18.725c0,0.858 -0.021,1.609 -0.064,2.253c-0.043,0.644 -0.147,1.358 -0.313,2.143c-0.165,0.785 -0.389,1.459 -0.671,2.023c-0.282,0.564 -0.678,1.131 -1.186,1.701c-0.509,0.571 -1.116,1.031 -1.821,1.38c-0.706,0.349 -1.579,0.635 -2.622,0.855c-1.042,0.221 -2.219,0.331 -3.531,0.331l-3.403,0Z" style="fill:#808080;fill-rule:nonzero;"/>
            <path d="M475.592,246.278l0,20.178l-3.09,0l0,-20.178l3.09,0ZM475.592,238.939l0,3.642l-3.09,0l0,-3.642l3.09,0Z" style="fill:#808080;fill-rule:nonzero;"/>
            <path d="M488.061,266.879c-1.374,0 -2.64,-0.147 -3.799,-0.442c-1.158,-0.294 -2.1,-0.674 -2.823,-1.14l0.386,-2.593c2.048,1.091 4.059,1.637 6.033,1.637c2.992,0 4.531,-1.055 4.617,-3.164c0,-0.895 -0.319,-1.6 -0.956,-2.115c-0.638,-0.515 -1.889,-1.092 -3.753,-1.729l-1.526,-0.534c-1.766,-0.588 -3.026,-1.318 -3.78,-2.189c-0.754,-0.87 -1.137,-1.955 -1.15,-3.255c0,-1.582 0.635,-2.894 1.904,-3.936c1.269,-1.043 3.007,-1.564 5.215,-1.564c2.28,0 4.359,0.442 6.235,1.324l-0.901,2.355c-1.901,-0.785 -3.679,-1.177 -5.334,-1.177c-1.288,0 -2.297,0.254 -3.026,0.763c-0.73,0.509 -1.095,1.223 -1.095,2.143c0,0.785 0.264,1.385 0.791,1.802c0.528,0.417 1.582,0.896 3.164,1.435c0.405,0.147 0.914,0.319 1.527,0.515c2.035,0.662 3.476,1.444 4.322,2.345c0.846,0.902 1.269,2.119 1.269,3.651c-0.024,1.864 -0.693,3.308 -2.005,4.332c-1.312,1.024 -3.084,1.536 -5.315,1.536Z" style="fill:#808080;fill-rule:nonzero;"/>
            <path d="M510.367,266.456l0,-28.013l3.053,-0.184l0,17.234c0.074,-0.073 0.184,-0.196 0.331,-0.368c0.148,-0.171 0.264,-0.3 0.35,-0.386c1.067,-1.165 3.826,-3.985 8.277,-8.461l3.899,0l-8.387,8.498l8.976,11.68l-3.826,0l-7.376,-9.933l-2.244,1.932l0,8.001l-3.053,0Z" style="fill:#808080;fill-rule:nonzero;"/>
            <path d="M537.734,248.393c-1.57,0 -2.851,0.555 -3.844,1.665c-0.994,1.11 -1.576,2.627 -1.748,4.552l10.65,0c0,-1.998 -0.45,-3.534 -1.352,-4.607c-0.901,-1.073 -2.136,-1.61 -3.706,-1.61ZM538.341,266.879c-2.931,0 -5.239,-0.932 -6.925,-2.796c-1.686,-1.864 -2.529,-4.414 -2.529,-7.652c0,-3.126 0.815,-5.662 2.446,-7.605c1.631,-1.944 3.777,-2.934 6.438,-2.971c2.501,0 4.485,0.855 5.95,2.566c1.465,1.711 2.198,3.994 2.198,6.852c0,0.147 -0.003,0.417 -0.009,0.809c-0.006,0.392 -0.009,0.674 -0.009,0.846l-13.851,0c0.037,2.293 0.629,4.08 1.775,5.362c1.147,1.281 2.689,1.922 4.626,1.922c2.134,0 4.274,-0.564 6.42,-1.692l0.478,2.483c-2.048,1.251 -4.384,1.876 -7.008,1.876Z" style="fill:#808080;fill-rule:nonzero;"/>
            <path d="M559.914,246.094c0.552,0 1.055,0.037 1.508,0.111l-0.11,2.832c-0.564,-0.098 -1.055,-0.147 -1.472,-0.147c-1.716,0 -3.111,0.598 -4.184,1.793c-1.073,1.196 -1.61,2.677 -1.61,4.442l0,11.331l-3.071,0c-0.013,-12.385 -0.019,-19.111 -0.019,-20.178l2.557,0l0.294,3.624c0.699,-1.141 1.588,-2.06 2.667,-2.759c1.079,-0.699 2.226,-1.049 3.44,-1.049Z" style="fill:#808080;fill-rule:nonzero;"/>
            <path d="M565.264,266.456l0,-20.178l2.575,0l0.386,2.888c0.797,-0.993 1.794,-1.793 2.989,-2.4c1.196,-0.607 2.486,-0.911 3.872,-0.911c2.33,0 4.053,0.653 5.169,1.959c1.116,1.306 1.673,3.314 1.673,6.024l0,12.618l-3.071,0c0,-8.093 -0.006,-12.428 -0.019,-13.004c-0.049,-1.717 -0.395,-2.974 -1.039,-3.771c-0.644,-0.797 -1.72,-1.196 -3.228,-1.196c-1.582,0 -2.9,0.381 -3.955,1.141c-1.054,0.76 -1.741,1.747 -2.06,2.961c-0.122,0.822 -0.184,1.766 -0.184,2.833l0,11.036l-3.108,0Z" style="fill:#808080;fill-rule:nonzero;"/>
            <path d="M591.343,246.278l0,20.178l-3.09,0l0,-20.178l3.09,0ZM591.343,238.939l0,3.642l-3.09,0l0,-3.642l3.09,0Z" style="fill:#808080;fill-rule:nonzero;"/>
            <path d="M597.797,266.456l0,-20.178l2.575,0l0.386,2.888c0.797,-0.993 1.794,-1.793 2.989,-2.4c1.196,-0.607 2.487,-0.911 3.872,-0.911c2.33,0 4.053,0.653 5.169,1.959c1.116,1.306 1.674,3.314 1.674,6.024l0,12.618l-3.072,0c0,-8.093 -0.006,-12.428 -0.019,-13.004c-0.049,-1.717 -0.395,-2.974 -1.039,-3.771c-0.644,-0.797 -1.72,-1.196 -3.228,-1.196c-1.582,0 -2.9,0.381 -3.954,1.141c-1.055,0.76 -1.742,1.747 -2.061,2.961c-0.122,0.822 -0.183,1.766 -0.183,2.833l0,11.036l-3.109,0Z" style="fill:#808080;fill-rule:nonzero;"/>
            <path d="M628.089,263.826c1.042,0 1.955,-0.184 2.74,-0.552c0.785,-0.368 1.398,-0.877 1.84,-1.527c0.441,-0.65 0.769,-1.373 0.984,-2.17c0.214,-0.797 0.322,-1.668 0.322,-2.612l0,-1.49c0,-0.981 -0.111,-1.885 -0.332,-2.713c-0.22,-0.828 -0.561,-1.57 -1.02,-2.226c-0.46,-0.656 -1.073,-1.168 -1.84,-1.536c-0.766,-0.367 -1.658,-0.551 -2.676,-0.551c-0.846,0 -1.616,0.159 -2.308,0.478c-0.693,0.319 -1.263,0.739 -1.711,1.26c-0.448,0.521 -0.828,1.128 -1.14,1.821c-0.313,0.693 -0.537,1.395 -0.672,2.106c-0.135,0.711 -0.202,1.428 -0.202,2.152c0,0.711 0.074,1.416 0.221,2.115c0.147,0.699 0.38,1.38 0.699,2.042c0.318,0.662 0.705,1.241 1.158,1.738c0.454,0.497 1.021,0.898 1.702,1.205c0.68,0.306 1.425,0.46 2.235,0.46ZM623.361,275.689l-0.275,-2.777l3.752,0c1.042,0 1.95,-0.074 2.722,-0.221c0.773,-0.147 1.416,-0.389 1.931,-0.726c0.515,-0.338 0.932,-0.712 1.251,-1.122c0.319,-0.411 0.561,-0.945 0.727,-1.601c0.165,-0.656 0.276,-1.305 0.331,-1.949c0.055,-0.644 0.083,-1.432 0.083,-2.364l0,-1.784c-0.736,1.055 -1.588,1.867 -2.557,2.437c-0.969,0.57 -2.201,0.855 -3.697,0.855c-1.153,0 -2.217,-0.199 -3.192,-0.597c-0.974,-0.399 -1.796,-0.929 -2.464,-1.591c-0.669,-0.663 -1.239,-1.429 -1.711,-2.3c-0.472,-0.87 -0.815,-1.771 -1.03,-2.703c-0.214,-0.932 -0.322,-1.87 -0.322,-2.815c0,-1.471 0.181,-2.832 0.543,-4.083c0.362,-1.251 0.898,-2.367 1.609,-3.348c0.712,-0.981 1.647,-1.75 2.805,-2.308c1.159,-0.558 2.486,-0.837 3.982,-0.837c1.325,0 2.481,0.255 3.468,0.763c0.987,0.509 1.873,1.291 2.658,2.346l0,-2.686l2.998,0l0,18.725c0,0.858 -0.022,1.609 -0.065,2.253c-0.043,0.644 -0.147,1.358 -0.312,2.143c-0.166,0.785 -0.39,1.459 -0.672,2.023c-0.282,0.564 -0.677,1.131 -1.186,1.701c-0.509,0.571 -1.116,1.031 -1.821,1.38c-0.705,0.349 -1.579,0.635 -2.621,0.855c-1.042,0.221 -2.22,0.331 -3.532,0.331l-3.403,0Z" style="fill:#808080;fill-rule:nonzero;"/>
            <path d="M644.935,266.677c-0.761,0 -1.359,-0.243 -1.794,-0.727c-0.435,-0.484 -0.653,-1.051 -0.653,-1.701c0,-0.663 0.215,-1.233 0.644,-1.711c0.429,-0.478 1.03,-0.717 1.803,-0.717c0.772,0 1.373,0.239 1.802,0.717c0.429,0.478 0.644,1.048 0.644,1.711c0,0.662 -0.215,1.232 -0.644,1.71c-0.429,0.478 -1.03,0.718 -1.802,0.718Z" style="fill:#808080;fill-rule:nonzero;"/>
        </g>
        <rect x="163.313" y="346.893" width="3.258" height="0.958" style="fill:#808080;fill-rule:nonzero;"/>
        <path d="M172.414,349.91l0,-8.569l1.153,0l0,8.178c0,0.317 -0.006,0.584 -0.019,0.801c-0.013,0.217 -0.04,0.438 -0.079,0.661c-0.039,0.224 -0.096,0.408 -0.172,0.551c-0.076,0.143 -0.175,0.281 -0.297,0.414c-0.121,0.132 -0.272,0.234 -0.453,0.306c-0.18,0.072 -0.394,0.128 -0.641,0.169c-0.248,0.042 -0.535,0.062 -0.86,0.062l-0.228,0l-0.137,-0.925l0.482,0c0.23,0 0.424,-0.028 0.583,-0.085c0.159,-0.056 0.281,-0.127 0.368,-0.211c0.087,-0.085 0.153,-0.206 0.199,-0.362c0.045,-0.156 0.074,-0.303 0.085,-0.44c0.01,-0.137 0.016,-0.32 0.016,-0.55Z" style="fill:#808080;fill-rule:nonzero;"/>
        <path d="M175.899,351.089l0,-9.637l5.525,0l-0.045,0.997l-4.353,0l0,3.154l4.137,0l0,0.984l-4.137,0l0,3.505l4.496,0l-0.052,0.997l-5.571,0Z" style="fill:#808080;fill-rule:nonzero;"/>
        <path d="M191.197,351.089l-1.277,0l-5.004,-7.584l-0.326,-0.45c0.035,0.912 0.052,1.727 0.052,2.443l0,5.591l-1.056,0l0,-9.637l1.258,0l5.017,7.584l0.332,0.45c-0.03,-1.386 -0.045,-2.187 -0.045,-2.404l0,-5.63l1.049,0l0,9.637Z" style="fill:#808080;fill-rule:nonzero;"/>
        <path d="M201.315,351.089l-1.277,0l-5.004,-7.584l-0.326,-0.45c0.035,0.912 0.052,1.727 0.052,2.443l0,5.591l-1.056,0l0,-9.637l1.258,0l5.017,7.584l0.332,0.45c-0.03,-1.386 -0.045,-2.187 -0.045,-2.404l0,-5.63l1.049,0l0,9.637Z" style="fill:#808080;fill-rule:nonzero;"/>
        <rect x="203.874" y="341.452" width="1.127" height="9.637" style="fill:#808080;fill-rule:nonzero;"/>
        <path d="M208.708,351.089l-1.127,0l0,-9.637l5.349,0l-0.045,0.997l-4.177,0l0,3.382l3.981,0l0,0.958l-3.981,0l0,4.3Z" style="fill:#808080;fill-rule:nonzero;"/>
        <path d="M214.604,351.089l0,-9.637l5.525,0l-0.045,0.997l-4.353,0l0,3.154l4.138,0l0,0.984l-4.138,0l0,3.505l4.496,0l-0.052,0.997l-5.571,0Z" style="fill:#808080;fill-rule:nonzero;"/>
        <path d="M223.269,342.351l0,3.258c0.178,0 0.546,0.005 1.104,0.013c0.558,0.009 0.99,0.013 1.294,0.013c0.829,0 1.407,-0.138 1.733,-0.414c0.326,-0.275 0.488,-0.713 0.488,-1.312c0,-0.526 -0.156,-0.917 -0.469,-1.173c-0.312,-0.257 -0.836,-0.385 -1.57,-0.385l-2.58,0ZM229.446,351.089l-1.303,0l-1.33,-3.023c-0.36,-0.813 -0.59,-1.301 -0.69,-1.466c-0.317,0.021 -0.693,0.032 -1.128,0.032l-1.726,-0.052l0,4.509l-1.153,0l0,-9.748l3.081,0c0.357,0 0.672,0.009 0.945,0.026c0.274,0.018 0.546,0.049 0.818,0.095c0.271,0.046 0.507,0.109 0.707,0.189c0.2,0.08 0.386,0.185 0.56,0.313c0.174,0.128 0.314,0.281 0.42,0.459c0.107,0.178 0.191,0.39 0.251,0.635c0.061,0.246 0.092,0.523 0.092,0.831c0,0.608 -0.16,1.132 -0.479,1.57c-0.32,0.439 -0.772,0.743 -1.359,0.913c0,0.008 0.044,0.086 0.13,0.234c0.087,0.148 0.19,0.329 0.31,0.544c0.119,0.215 0.212,0.394 0.277,0.538l1.577,3.401Z" style="fill:#808080;fill-rule:nonzero;"/>
        <path d="M241.543,346.293c0,-1.346 -0.347,-2.326 -1.042,-2.938c-0.695,-0.613 -1.707,-0.919 -3.036,-0.919l-1.512,0l0,7.669l1.701,0c1.268,0 2.233,-0.32 2.896,-0.961c0.662,-0.641 0.993,-1.591 0.993,-2.851ZM242.749,346.261c0,1.568 -0.445,2.765 -1.336,3.59c-0.89,0.825 -2.133,1.238 -3.727,1.238l-2.86,0l0,-9.637l2.671,0c0.804,0 1.523,0.095 2.157,0.284c0.634,0.189 1.185,0.475 1.652,0.86c0.467,0.384 0.824,0.886 1.071,1.505c0.248,0.619 0.372,1.339 0.372,2.16Z" style="fill:#808080;fill-rule:nonzero;"/>
        <path d="M249.244,347.088c-0.916,-2.662 -1.423,-4.159 -1.518,-4.489c0,0 -0.528,1.496 -1.583,4.489l3.101,0ZM250.736,351.089l-1.127,-3.056l-3.844,0l-1.167,3.056l-1.146,0l3.701,-9.656l1.153,0l3.59,9.656l-1.16,0Z" style="fill:#808080;fill-rule:nonzero;"/>
        <path d="M260.9,351.089l-1.277,0l-5.004,-7.584l-0.326,-0.45c0.035,0.912 0.052,1.727 0.052,2.443l0,5.591l-1.056,0l0,-9.637l1.258,0l5.017,7.584l0.332,0.45c-0.03,-1.386 -0.045,-2.187 -0.045,-2.404l0,-5.63l1.049,0l0,9.637Z" style="fill:#808080;fill-rule:nonzero;"/>
        <rect x="263.459" y="341.452" width="1.127" height="9.637" style="fill:#808080;fill-rule:nonzero;"/>
        <path d="M267.166,351.089l0,-9.637l5.525,0l-0.045,0.997l-4.353,0l0,3.154l4.138,0l0,0.984l-4.138,0l0,3.505l4.496,0l-0.052,0.997l-5.571,0Z" style="fill:#808080;fill-rule:nonzero;"/>
        <path d="M274.854,351.089l0,-9.637l1.133,0l0,8.633l4.242,0l-0.039,1.004l-5.336,0Z" style="fill:#808080;fill-rule:nonzero;"/>
        <rect x="284.742" y="346.893" width="3.258" height="0.958" style="fill:#808080;fill-rule:nonzero;"/>
    </g>
</svg>
