<?xml version="1.0" encoding="utf-8"?>
<!-- Generator: Adobe Illustrator 16.0.4, SVG Export Plug-In . SVG Version: 6.00 Build 0)  -->
<!DOCTYPE svg PUBLIC "-//W3C//DTD SVG 1.1//EN" "http://www.w3.org/Graphics/SVG/1.1/DTD/svg11.dtd">
<svg version="1.1" id="Layer_1" xmlns="http://www.w3.org/2000/svg" xmlns:xlink="http://www.w3.org/1999/xlink" x="0px" y="0px"
	 width="1728px" height="1944px" viewBox="0 0 1728 1944" enable-background="new 0 0 1728 1944" xml:space="preserve">
<g transform="matrix(1.32732,0,0,1.32732,-168.845,-57.2464)">
	<path fill="#808080" d="M303.212,403.611c-9.14,10.067-19.666,15.097-31.579,15.097c-6.647,0-12.761-1.43-18.35-4.291
		c-5.585-2.864-10.434-6.651-14.541-11.357c-4.111-4.71-7.317-10.041-9.625-15.997c-2.309-5.956-3.464-12.073-3.464-18.349
		c0-6.559,1.132-12.836,3.394-18.839c2.261-6,5.423-11.287,9.486-15.857c4.063-4.57,8.864-8.217,14.405-10.942
		c5.54-2.724,11.589-4.085,18.144-4.085c4.801,0,9.188,0.53,13.155,1.592c3.971,1.062,7.504,2.541,10.596,4.434
		c3.092,1.89,5.772,4.154,8.033,6.783c2.261,2.632,4.177,5.519,5.746,8.659l-7.478,4.986c-3.232-6.092-7.431-10.57-12.604-13.435
		c-5.169-2.864-11.033-4.294-17.589-4.294c-5.449,0-10.364,1.154-14.75,3.464c-4.386,2.309-8.125,5.379-11.217,9.21
		c-3.092,3.831-5.471,8.217-7.132,13.158c-1.662,4.938-2.493,10.041-2.493,15.302c0,5.541,0.945,10.802,2.838,15.791
		c1.893,4.985,4.504,9.346,7.828,13.085s7.225,6.717,11.703,8.934c4.478,2.217,9.346,3.323,14.611,3.323
		c5.632,0,11.011-1.316,16.133-3.945c5.125-2.632,10.041-6.812,14.75-12.537v-16.342h-21.883v-7.478h30.056v48.336h-8.173V403.611
		L303.212,403.611z"/>
	<path fill="#808080" d="M331.327,418.016v-98.334h41.549c4.247,0,8.148,0.901,11.703,2.702c3.556,1.802,6.625,4.155,9.21,7.063
		c2.585,2.908,4.596,6.21,6.026,9.905c1.43,3.691,2.147,7.431,2.147,11.218c0,3.599-0.533,7.04-1.592,10.317
		c-1.062,3.279-2.54,6.232-4.434,8.864c-1.894,2.632-4.177,4.846-6.853,6.647c-2.68,1.801-5.681,3.025-9.004,3.669l24.1,37.949
		h-10.941l-23.129-36.288h-29.086v36.288H331.327L331.327,418.016z M341.022,373.143h32.129c2.864,0,5.471-0.625,7.828-1.871
		c2.353-1.246,4.361-2.93,6.023-5.056c1.665-2.121,2.955-4.522,3.879-7.198c0.923-2.68,1.385-5.497,1.385-8.448
		c0-2.956-0.529-5.795-1.591-8.519c-1.062-2.724-2.493-5.099-4.294-7.132c-1.802-2.03-3.923-3.647-6.372-4.846
		c-2.445-1.202-5.007-1.801-7.688-1.801h-31.299V373.143L341.022,373.143z"/>
	<path fill="#808080" d="M450.713,319.682h8.17l40.858,98.334h-10.25l-12.739-30.747h-44.182l-12.603,30.747h-10.386
		L450.713,319.682L450.713,319.682z M474.534,379.651l-19.806-48.612l-20.081,48.612H474.534z"/>
	<path fill="#808080" d="M513.866,418.016v-98.334h40.718c4.247,0,8.148,0.901,11.703,2.702c3.555,1.802,6.625,4.155,9.21,7.063
		c2.585,2.908,4.617,6.21,6.096,9.905c1.474,3.691,2.214,7.431,2.214,11.218c0,4.062-0.692,7.963-2.078,11.702
		c-1.382,3.74-3.323,7.041-5.816,9.902c-2.493,2.864-5.471,5.173-8.934,6.926c-3.46,1.754-7.317,2.629-11.563,2.629h-31.855v36.288
		H513.866z M523.561,373.143H555c2.864,0,5.47-0.625,7.824-1.871c2.357-1.246,4.364-2.908,6.026-4.986
		c1.662-2.077,2.956-4.478,3.879-7.202c0.923-2.721,1.382-5.563,1.382-8.515c0-3.048-0.53-5.935-1.592-8.659
		c-1.062-2.72-2.493-5.099-4.294-7.132c-1.798-2.03-3.923-3.622-6.369-4.776c-2.449-1.154-5.011-1.732-7.687-1.732h-30.608V373.143
		L523.561,373.143z"/>
	<path fill="#808080" d="M677.57,319.682v98.334h-9.556v-45.979h-58.307v45.979h-9.695v-98.334h9.695v43.767h58.307v-43.767H677.57z
		"/>
	<rect x="702.221" y="319.682" fill="#808080" width="9.696" height="98.334"/>
	<path fill="#808080" d="M730.061,368.158c0-5.908,1.037-11.795,3.114-17.658c2.078-5.865,5.103-11.103,9.074-15.721
		c3.967-4.614,8.86-8.379,14.681-11.287c5.816-2.908,12.416-4.36,19.802-4.36c8.772,0,16.277,1.985,22.508,5.956
		c6.232,3.967,10.823,9.14,13.78,15.512l-7.618,4.706c-1.57-3.232-3.485-5.953-5.747-8.17c-2.261-2.217-4.687-4.019-7.272-5.401
		c-2.585-1.386-5.261-2.379-8.034-2.978c-2.768-0.599-5.492-0.901-8.169-0.901c-5.912,0-11.126,1.199-15.651,3.599
		c-4.523,2.401-8.331,5.541-11.427,9.419c-3.092,3.879-5.423,8.24-6.993,13.089c-1.569,4.846-2.353,9.761-2.353,14.751
		c0,5.444,0.945,10.662,2.839,15.647c1.893,4.985,4.478,9.394,7.754,13.229c3.279,3.831,7.158,6.879,11.636,9.14
		c4.478,2.261,9.346,3.393,14.61,3.393c2.769,0,5.607-0.345,8.515-1.04c2.912-0.691,5.724-1.797,8.448-3.323
		c2.724-1.522,5.239-3.416,7.548-5.677c2.309-2.265,4.25-5.011,5.817-8.243l8.034,4.154c-1.57,3.695-3.783,6.949-6.647,9.766
		c-2.861,2.816-6.048,5.195-9.556,7.132c-3.507,1.942-7.224,3.416-11.147,4.434c-3.927,1.015-7.78,1.521-11.567,1.521
		c-6.739,0-12.927-1.477-18.56-4.43c-5.632-2.956-10.478-6.813-14.54-11.567c-4.063-4.754-7.225-10.155-9.486-16.202
		C731.19,380.599,730.061,374.437,730.061,368.158L730.061,368.158z"/>
	<path fill="#808080" d="M866.893,418.016v-98.334h33.38c7.85,0,14.703,1.294,20.567,3.879c5.865,2.585,10.758,6.096,14.681,10.526
		c3.923,4.43,6.878,9.625,8.864,15.581c1.985,5.957,2.978,12.302,2.978,19.045c0,7.478-1.11,14.239-3.324,20.287
		c-2.217,6.048-5.379,11.217-9.489,15.512c-4.107,4.294-9.048,7.618-14.817,9.971c-5.772,2.357-12.257,3.533-19.46,3.533H866.893
		L866.893,418.016z M937.667,368.713c0-5.912-0.831-11.336-2.493-16.277c-1.662-4.938-4.089-9.21-7.272-12.809
		c-3.184-3.603-7.085-6.394-11.703-8.379c-4.618-1.985-9.927-2.978-15.927-2.978h-23.684v81.157h23.684
		c6.092,0,11.471-1.037,16.133-3.114c4.666-2.077,8.567-4.941,11.706-8.588c3.136-3.647,5.515-7.938,7.133-12.879
		C936.859,379.905,937.667,374.529,937.667,368.713L937.667,368.713z"/>
	<path fill="#808080" d="M1031.983,409.428v8.588h-66.065v-98.334h64.819v8.589h-55.124v35.453h48.061v8.173h-48.061v37.531
		H1031.983L1031.983,409.428z"/>
	<path fill="#808080" d="M1105.661,338.102c-2.768-3.136-6.464-5.677-11.077-7.615c-4.618-1.941-9.879-2.908-15.791-2.908
		c-8.677,0-15.004,1.636-18.971,4.916c-3.971,3.276-5.956,7.732-5.956,13.364c0,2.956,0.529,5.379,1.592,7.273
		c1.062,1.889,2.702,3.529,4.916,4.916c2.217,1.386,5.055,2.585,8.518,3.599c3.463,1.018,7.548,2.033,12.258,3.048
		c5.26,1.107,9.993,2.353,14.195,3.739c4.202,1.386,7.779,3.117,10.732,5.195c2.956,2.077,5.217,4.592,6.787,7.548
		c1.57,2.952,2.357,6.647,2.357,11.077c0,4.526-0.878,8.449-2.632,11.773c-1.754,3.323-4.203,6.096-7.342,8.313
		c-3.14,2.213-6.879,3.853-11.218,4.915c-4.338,1.062-9.095,1.591-14.265,1.591c-15.236,0-28.391-4.754-39.472-14.265l4.85-7.894
		c1.753,1.845,3.852,3.599,6.301,5.261c2.446,1.661,5.169,3.117,8.17,4.364s6.21,2.217,9.626,2.908
		c3.415,0.691,7.018,1.037,10.802,1.037c7.85,0,13.967-1.408,18.354-4.221c4.386-2.816,6.578-7.088,6.578-12.813
		c0-3.047-0.625-5.61-1.872-7.688c-1.246-2.077-3.114-3.875-5.606-5.4c-2.493-1.522-5.589-2.839-9.28-3.945
		c-3.695-1.111-7.986-2.218-12.879-3.324c-5.173-1.202-9.695-2.448-13.574-3.739c-3.879-1.294-7.155-2.912-9.835-4.849
		c-2.676-1.938-4.684-4.269-6.022-6.993c-1.338-2.724-2.007-6.07-2.007-10.041c0-4.526,0.853-8.566,2.559-12.118
		c1.709-3.555,4.132-6.511,7.272-8.864c3.14-2.357,6.831-4.155,11.082-5.401c4.246-1.246,8.956-1.871,14.125-1.871
		c6.555,0,12.394,0.993,17.519,2.978c5.125,1.985,9.765,4.779,13.919,8.379L1105.661,338.102L1105.661,338.102z"/>
	<rect x="1132.255" y="319.682" fill="#808080" width="9.695" height="98.334"/>
	<path fill="#808080" d="M1237.652,403.611c-9.144,10.067-19.666,15.097-31.579,15.097c-6.647,0-12.765-1.43-18.349-4.291
		c-5.589-2.864-10.434-6.651-14.545-11.357c-4.107-4.71-7.316-10.041-9.626-15.997c-2.309-5.956-3.459-12.073-3.459-18.349
		c0-6.559,1.129-12.836,3.39-18.839c2.265-6,5.427-11.287,9.49-15.857s8.864-8.217,14.405-10.942
		c5.537-2.724,11.585-4.085,18.14-4.085c4.802,0,9.187,0.53,13.158,1.592c3.971,1.062,7.501,2.541,10.596,4.434
		c3.092,1.89,5.769,4.154,8.03,6.783c2.265,2.632,4.18,5.519,5.75,8.659l-7.478,4.986c-3.231-6.092-7.434-10.57-12.603-13.435
		c-5.173-2.864-11.034-4.294-17.589-4.294c-5.449,0-10.364,1.154-14.751,3.464c-4.386,2.309-8.125,5.379-11.221,9.21
		c-3.092,3.831-5.467,8.217-7.133,13.158c-1.661,4.938-2.493,10.041-2.493,15.302c0,5.541,0.949,10.802,2.842,15.791
		c1.89,4.985,4.5,9.346,7.824,13.085s7.224,6.717,11.703,8.934c4.478,2.217,9.35,3.323,14.611,3.323
		c5.632,0,11.011-1.316,16.136-3.945c5.125-2.632,10.041-6.812,14.751-12.537v-16.342h-21.883v-7.478h30.052v48.336h-8.169V403.611z
		"/>
	<path fill="#808080" d="M1275.461,337.686v80.33h-9.695v-98.334h7.478l65.094,81.852v-81.712h9.696v98.194h-8.449L1275.461,337.686
		z"/>
	<path fill="#999999" d="M484.38,534.557h9.713L461.615,610.1h-8.118l-16.24-38.571L421.161,610.1h-8.118l-32.479-75.544h9.57
		l27.549,65.393l14.354-34.509l-12.905-30.74h8.265l9.861,24.652l9.86-24.652h8.408l-12.905,30.74l14.354,34.508L484.38,534.557
		L484.38,534.557z"/>
	<path fill="#999999" d="M507.141,610.1v-75.544h9.861V610.1H507.141z M507.141,518.751v-14.497h9.861v14.497H507.141z"/>
	<path fill="#999999" d="M539.187,504.254h9.86v88.735c0,2.805,0.773,5.004,2.321,6.596c1.544,1.596,3.721,2.393,6.522,2.393
		c1.066,0,2.32-0.143,3.772-0.434c1.448-0.29,2.801-0.676,4.058-1.162l1.739,7.975c-1.834,0.775-4.085,1.404-6.742,1.886
		c-2.659,0.485-4.953,0.724-6.887,0.724c-4.545,0-8.118-1.279-10.729-3.842c-2.61-2.563-3.916-6.162-3.916-10.802V504.254
		L539.187,504.254z"/>
	<path fill="#999999" d="M578.625,504.254h9.861v88.735c0,2.805,0.772,5.004,2.32,6.596c1.544,1.596,3.721,2.393,6.522,2.393
		c1.062,0,2.32-0.143,3.772-0.434c1.449-0.29,2.802-0.676,4.059-1.162l1.739,7.975c-1.838,0.775-4.084,1.404-6.742,1.886
		c-2.658,0.485-4.953,0.724-6.887,0.724c-4.544,0-8.122-1.279-10.729-3.842c-2.61-2.563-3.916-6.162-3.916-10.802V504.254
		L578.625,504.254z"/>
	<path fill="#999999" d="M675.191,611.549c-5.897,0-11.648-0.967-17.254-2.901c-5.607-1.934-10.442-4.735-14.501-8.409l4.497-6.669
		c4.25,3.478,8.577,6.088,12.974,7.827c4.401,1.743,9.111,2.61,14.137,2.61c6.093,0,10.949-1.232,14.574-3.695
		c3.625-2.467,5.438-5.971,5.438-10.515c0-2.125-0.486-3.889-1.452-5.29c-0.967-1.401-2.39-2.632-4.276-3.699
		c-1.886-1.063-4.254-2.004-7.107-2.827c-2.849-0.82-6.162-1.666-9.93-2.537c-4.35-1.062-8.118-2.126-11.31-3.188
		c-3.191-1.066-5.823-2.272-7.9-3.625c-2.081-1.353-3.626-3.022-4.64-5.004c-1.015-1.981-1.522-4.471-1.522-7.467
		c0-3.768,0.747-7.104,2.247-10.004c1.496-2.901,3.529-5.291,6.088-7.177c2.563-1.886,5.559-3.312,8.989-4.279
		c3.434-0.964,7.081-1.449,10.949-1.449c5.798,0,11.067,0.941,15.802,2.827c4.74,1.886,8.555,4.375,11.456,7.468l-4.783,5.801
		c-2.805-2.901-6.213-5.077-10.225-6.526c-4.011-1.449-8.192-2.176-12.541-2.176c-2.61,0-5.027,0.269-7.251,0.798
		c-2.224,0.533-4.18,1.379-5.871,2.537c-1.691,1.162-3.022,2.636-3.989,4.423c-0.967,1.791-1.449,3.89-1.449,6.309
		c0,2.03,0.338,3.673,1.015,4.93c0.677,1.254,1.787,2.342,3.335,3.262c1.548,0.919,3.504,1.739,5.871,2.463
		c2.368,0.728,5.247,1.474,8.629,2.25c4.832,1.158,9.085,2.32,12.758,3.478c3.674,1.162,6.743,2.515,9.21,4.059
		c2.463,1.548,4.324,3.434,5.581,5.655c1.257,2.224,1.886,4.93,1.886,8.121c0,6.96-2.662,12.468-7.978,16.53
		C691.332,609.519,684.18,611.549,675.191,611.549L675.191,611.549z"/>
	<path fill="#999999" d="M739.712,611.549c-3.577,0-6.886-0.603-9.93-1.813c-3.044-1.21-5.703-2.875-7.975-5.004
		c-2.272-2.125-4.037-4.614-5.294-7.467c-1.254-2.85-1.882-5.92-1.882-9.206s0.772-6.331,2.32-9.133
		c1.544-2.805,3.721-5.221,6.522-7.25c2.805-2.03,6.14-3.6,10.004-4.714c3.868-1.11,8.122-1.665,12.761-1.665
		c3.868,0,7.78,0.338,11.743,1.015c3.963,0.676,7.493,1.644,10.585,2.897v-6.813c0-6.669-1.886-11.964-5.655-15.876
		c-3.768-3.916-8.989-5.875-15.659-5.875c-3.868,0-7.831,0.776-11.89,2.32c-4.059,1.548-8.166,3.772-12.324,6.669l-3.478-6.522
		c9.761-6.574,19.232-9.861,28.417-9.861c9.474,0,16.916,2.658,22.328,7.975c5.416,5.316,8.122,12.662,8.122,22.041v34.071
		c0,2.705,1.21,4.058,3.625,4.058v8.703c-1.643,0.291-2.9,0.433-3.772,0.433c-2.511,0-4.47-0.628-5.871-1.886
		c-1.401-1.254-2.151-2.997-2.246-5.217l-0.291-5.946c-3.478,4.541-7.853,8.023-13.122,10.438
		C751.481,610.339,745.804,611.549,739.712,611.549L739.712,611.549z M742.032,604.007c5.125,0,9.835-0.967,14.136-2.897
		c4.302-1.934,7.566-4.497,9.788-7.688c0.871-0.868,1.522-1.813,1.959-2.827c0.434-1.015,0.65-1.956,0.65-2.827v-12.324
		c-3.287-1.257-6.691-2.221-10.221-2.901c-3.529-0.677-7.129-1.015-10.801-1.015c-6.96,0-12.614,1.452-16.964,4.353
		c-4.35,2.897-6.526,6.717-6.526,11.453c0,2.321,0.46,4.497,1.379,6.526c0.915,2.03,2.173,3.794,3.768,5.291
		c1.596,1.5,3.504,2.684,5.729,3.551C737.153,603.574,739.521,604.007,742.032,604.007z"/>
	<path fill="#999999" d="M820.328,610.1l-30.736-75.544h10.148l25.952,66.407l26.1-66.407h9.57L830.624,610.1H820.328L820.328,610.1
		z"/>
	<path fill="#999999" d="M905.004,611.549c-5.507,0-10.559-1.041-15.151-3.118c-4.592-2.077-8.577-4.93-11.959-8.555
		c-3.387-3.626-6.019-7.805-7.905-12.541c-1.883-4.735-2.827-9.813-2.827-15.225c0-5.316,0.945-10.317,2.827-15.008
		c1.886-4.687,4.496-8.794,7.831-12.324c3.334-3.526,7.32-6.331,11.959-8.408c4.64-2.077,9.67-3.118,15.082-3.118
		c5.507,0,10.559,1.041,15.151,3.118c4.592,2.077,8.529,4.904,11.817,8.482c3.287,3.578,5.849,7.684,7.684,12.324
		c1.838,4.64,2.757,9.57,2.757,14.791c0,0.773,0,1.544,0,2.32c0,0.772-0.052,1.305-0.147,1.595h-64.667
		c0.291,4.059,1.235,7.805,2.827,11.236c1.595,3.43,3.651,6.405,6.162,8.916c2.515,2.515,5.39,4.47,8.629,5.871
		c3.24,1.405,6.695,2.103,10.368,2.103c2.415,0,4.831-0.338,7.246-1.015c2.419-0.676,4.64-1.596,6.673-2.754
		c2.03-1.162,3.864-2.585,5.508-4.275c1.644-1.695,2.901-3.555,3.772-5.585l8.551,2.32c-1.158,2.805-2.802,5.342-4.93,7.614
		c-2.125,2.273-4.588,4.25-7.393,5.945c-2.802,1.691-5.898,2.997-9.28,3.912C912.207,611.089,908.677,611.549,905.004,611.549
		L905.004,611.549z M932.844,568.341c-0.291-4.059-1.232-7.758-2.827-11.092c-1.596-3.335-3.625-6.21-6.088-8.63
		c-2.467-2.415-5.316-4.301-8.556-5.654c-3.239-1.353-6.695-2.03-10.368-2.03s-7.151,0.677-10.437,2.03
		c-3.287,1.353-6.163,3.239-8.63,5.654c-2.463,2.42-4.445,5.316-5.945,8.703c-1.497,3.382-2.39,7.055-2.68,11.018H932.844z"/>
	<path fill="#999999" d="M1030.715,606.475c-0.581,0.29-1.427,0.676-2.537,1.158c-1.11,0.485-2.393,0.967-3.842,1.452
		c-1.449,0.481-3.092,0.915-4.931,1.305c-1.834,0.385-3.768,0.577-5.798,0.577c-2.128,0-4.158-0.291-6.092-0.867
		c-1.934-0.581-3.625-1.474-5.074-2.684c-1.448-1.21-2.61-2.732-3.482-4.567c-0.867-1.838-1.305-3.963-1.305-6.379v-54.083h-10.438
		v-7.831h10.438v-25.519h9.861v25.519h17.401v7.831h-17.401v51.325c0.195,2.805,1.184,4.857,2.974,6.163
		c1.787,1.305,3.842,1.959,6.162,1.959c2.802,0,5.269-0.46,7.394-1.379c2.125-0.919,3.481-1.57,4.058-1.956L1030.715,606.475
		L1030.715,606.475z"/>
	<path fill="#999999" d="M1106.548,610.1h-9.861v-42.192c0-8.604-1.474-15.034-4.423-19.288c-2.949-4.25-7.272-6.379-12.978-6.379
		c-2.802,0-5.581,0.555-8.335,1.669c-2.754,1.11-5.342,2.633-7.757,4.567c-2.416,1.934-4.519,4.206-6.31,6.816
		c-1.786,2.607-3.114,5.46-3.985,8.552V610.1h-9.86V504.254h9.86v47.413c2.997-5.706,7.155-10.199,12.472-13.485
		c5.316-3.287,11.066-4.931,17.254-4.931c4.35,0,8.022,0.798,11.019,2.394c2.996,1.595,5.459,3.816,7.393,6.669
		c1.934,2.849,3.334,6.283,4.206,10.294c0.867,4.011,1.305,8.435,1.305,13.265V610.1z"/>
	<path fill="#999999" d="M1160.193,611.549c-5.508,0-10.559-1.041-15.151-3.118c-4.593-2.077-8.578-4.93-11.96-8.555
		c-3.386-3.626-6.018-7.805-7.905-12.541c-1.882-4.735-2.827-9.813-2.827-15.225c0-5.316,0.945-10.317,2.827-15.008
		c1.886-4.687,4.497-8.794,7.831-12.324c3.335-3.526,7.321-6.331,11.96-8.408c4.64-2.077,9.669-3.118,15.081-3.118
		c5.508,0,10.559,1.041,15.151,3.118c4.593,2.077,8.53,4.904,11.817,8.482c3.287,3.578,5.849,7.684,7.684,12.324
		c1.839,4.64,2.757,9.57,2.757,14.791c0,0.773,0,1.544,0,2.32c0,0.772-0.051,1.305-0.147,1.595h-64.668
		c0.291,4.059,1.232,7.805,2.828,11.236c1.596,3.43,3.651,6.405,6.162,8.916c2.515,2.515,5.39,4.47,8.63,5.871
		c3.239,1.405,6.695,2.103,10.368,2.103c2.415,0,4.831-0.338,7.246-1.015c2.419-0.676,4.64-1.596,6.673-2.754
		c2.029-1.162,3.864-2.585,5.507-4.275c1.644-1.695,2.901-3.555,3.768-5.585l8.556,2.32c-1.158,2.805-2.802,5.342-4.93,7.614
		c-2.126,2.273-4.589,4.25-7.394,5.945c-2.801,1.691-5.897,2.997-9.279,3.912C1167.395,611.089,1163.866,611.549,1160.193,611.549
		L1160.193,611.549z M1188.032,568.341c-0.291-4.059-1.232-7.758-2.827-11.092c-1.595-3.335-3.625-6.21-6.088-8.63
		c-2.467-2.415-5.317-4.301-8.555-5.654c-3.24-1.353-6.695-2.03-10.368-2.03c-3.673,0-7.151,0.677-10.438,2.03
		c-3.287,1.353-6.162,3.239-8.629,5.654c-2.463,2.42-4.445,5.316-5.945,8.703c-1.496,3.382-2.39,7.055-2.68,11.018H1188.032z"/>
	<path fill="#999999" d="M345.114,682.32h9.714l-32.479,75.543h-8.118l-16.239-38.568l-16.096,38.568h-8.118l-32.479-75.543h9.57
		l27.549,65.392l14.354-34.509l-12.905-30.736h8.265l9.861,24.648l9.857-24.648h8.412l-12.905,30.736l14.354,34.509L345.114,682.32
		L345.114,682.32z"/>
	<path fill="#999999" d="M397.311,759.31c-5.511,0-10.537-1.037-15.078-3.117c-4.544-2.077-8.485-4.904-11.82-8.482
		c-3.334-3.573-5.919-7.731-7.753-12.467c-1.839-4.735-2.758-9.713-2.758-14.934c0-5.316,0.945-10.342,2.827-15.082
		c1.886-4.735,4.497-8.89,7.831-12.467c3.335-3.577,7.273-6.43,11.817-8.555c4.545-2.126,9.523-3.192,14.935-3.192
		c5.411,0,10.415,1.066,15.008,3.192c4.592,2.125,8.552,4.978,11.89,8.555c3.334,3.577,5.941,7.732,7.828,12.467
		c1.886,4.74,2.827,9.766,2.827,15.082c0,5.221-0.919,10.199-2.753,14.934c-1.839,4.736-4.423,8.894-7.758,12.467
		c-3.335,3.578-7.299,6.405-11.89,8.482C407.87,758.274,402.822,759.31,397.311,759.31L397.311,759.31z M369.905,720.453
		c0,4.254,0.728,8.191,2.176,11.817c1.449,3.625,3.408,6.816,5.872,9.57c2.467,2.758,5.364,4.904,8.699,6.452
		c3.334,1.548,6.889,2.32,10.659,2.32c3.768,0,7.324-0.798,10.658-2.393c3.335-1.592,6.257-3.768,8.772-6.522
		c2.511-2.758,4.493-5.971,5.942-9.643c1.452-3.673,2.176-7.636,2.176-11.89c0-4.155-0.724-8.096-2.176-11.817
		c-1.449-3.721-3.431-6.959-5.942-9.713c-2.515-2.754-5.437-4.93-8.772-6.526c-3.334-1.592-6.889-2.39-10.658-2.39
		c-3.769,0-7.299,0.798-10.585,2.39c-3.287,1.596-6.188,3.794-8.699,6.6c-2.516,2.802-4.497,6.066-5.946,9.787
		C370.633,712.214,369.905,716.199,369.905,720.453L369.905,720.453z"/>
	<path fill="#999999" d="M489.093,691.022c-6.673,0.191-12.471,2.029-17.401,5.508c-4.931,3.482-8.409,8.265-10.438,14.353v46.98
		h-9.861V682.32h9.28v18.125c2.802-5.801,6.574-10.342,11.309-13.629c4.736-3.287,9.813-4.93,15.225-4.93
		c0.773,0,1.401,0.048,1.886,0.143V691.022z"/>
	<path fill="#999999" d="M502.722,652.017h9.857v88.735c0,2.805,0.775,5.004,2.32,6.6c1.548,1.596,3.724,2.393,6.526,2.393
		c1.062,0,2.32-0.147,3.768-0.438c1.452-0.291,2.805-0.676,4.063-1.158l1.739,7.975c-1.838,0.772-4.084,1.401-6.742,1.882
		c-2.658,0.486-4.953,0.728-6.887,0.728c-4.544,0-8.122-1.283-10.732-3.842c-2.607-2.563-3.912-6.165-3.912-10.806V652.017
		L502.722,652.017z"/>
	<path fill="#999999" d="M572.754,759.31c-5.221,0-10.055-1.084-14.501-3.261c-4.445-2.176-8.265-5.052-11.456-8.625
		c-3.187-3.577-5.676-7.71-7.467-12.398c-1.787-4.687-2.68-9.596-2.68-14.717c0-5.316,0.867-10.368,2.61-15.151
		c1.739-4.787,4.133-8.967,7.176-12.544c3.044-3.574,6.669-6.401,10.876-8.482c4.203-2.077,8.82-3.118,13.846-3.118
		c6.379,0,12.034,1.669,16.964,5.004c4.93,3.335,8.794,7.372,11.6,12.107v-46.108h9.86v93.088c0,2.705,1.158,4.058,3.479,4.058
		v8.699c-1.449,0.29-2.61,0.433-3.479,0.433c-2.32,0-4.353-0.746-6.092-2.246c-1.739-1.497-2.61-3.309-2.61-5.438v-7.393
		c-2.997,4.93-7.056,8.846-12.176,11.743C583.578,757.862,578.262,759.31,572.754,759.31z M574.927,750.612
		c2.415,0,5.004-0.481,7.758-1.449c2.754-0.967,5.342-2.298,7.758-3.989c2.415-1.691,4.471-3.673,6.162-5.945
		c1.691-2.268,2.732-4.709,3.118-7.32v-23.346c-0.967-2.607-2.368-5.048-4.206-7.32c-1.834-2.272-3.938-4.28-6.305-6.019
		c-2.368-1.739-4.908-3.092-7.614-4.058c-2.706-0.967-5.364-1.449-7.975-1.449c-4.059,0-7.732,0.867-11.018,2.61
		c-3.287,1.739-6.114,4.033-8.482,6.886c-2.368,2.85-4.18,6.115-5.437,9.788c-1.257,3.673-1.886,7.441-1.886,11.309
		c0,4.059,0.728,7.927,2.176,11.6c1.449,3.673,3.431,6.887,5.945,9.64c2.511,2.758,5.486,4.957,8.916,6.6
		C567.268,749.792,570.963,750.612,574.927,750.612z"/>
	<path fill="#999999" d="M633.506,769.605l2.463-12.176h-3.335v-13.776h9.57v13.776l-3.625,12.176H633.506z"/>
	<path fill="#999999" d="M739.205,691.022c-6.669,0.191-12.468,2.029-17.398,5.508c-4.93,3.482-8.412,8.265-10.442,14.353v46.98
		h-9.857V682.32h9.28v18.125c2.801-5.801,6.569-10.342,11.309-13.629c4.735-3.287,9.809-4.93,15.225-4.93
		c0.772,0,1.401,0.048,1.882,0.143L739.205,691.022L739.205,691.022z"/>
	<path fill="#999999" d="M752.4,757.862V682.32h9.861v75.543H752.4z M752.4,666.517v-14.501h9.861v14.501H752.4z"/>
	<path fill="#999999" d="M814.314,758.877c-5.221,0-9.982-1.088-14.284-3.262c-4.302-2.176-8.023-5.052-11.166-8.629
		c-3.14-3.577-5.581-7.684-7.321-12.324c-1.739-4.64-2.61-9.423-2.61-14.354c0-5.221,0.845-10.221,2.537-15.008
		c1.691-4.783,4.084-8.963,7.176-12.541c3.096-3.577,6.791-6.43,11.092-8.555c4.302-2.125,9.063-3.191,14.284-3.191
		c6.475,0,12.082,1.621,16.817,4.86c4.74,3.235,8.798,7.32,12.181,12.25V682.32h8.846v75.833c0,5.22-0.993,9.835-2.975,13.846
		c-1.981,4.011-4.64,7.371-7.975,10.077c-3.334,2.706-7.25,4.735-11.742,6.088c-4.497,1.353-9.258,2.03-14.284,2.03
		c-8.699,0-15.707-1.544-21.023-4.64c-5.316-3.092-9.618-7.246-12.905-12.467l6.088-4.787c2.997,4.835,6.96,8.386,11.89,10.659
		c4.93,2.272,10.247,3.408,15.949,3.408c3.673,0,7.154-0.508,10.442-1.522c3.287-1.015,6.162-2.515,8.625-4.496
		c2.467-1.982,4.423-4.493,5.871-7.541c1.452-3.044,2.177-6.595,2.177-10.654v-14.935c-2.901,4.831-6.864,8.651-11.89,11.453
		C825.09,757.476,819.821,758.877,814.314,758.877L814.314,758.877z M817.068,750.612c2.901,0,5.75-0.529,8.555-1.596
		c2.802-1.062,5.339-2.488,7.611-4.275c2.273-1.787,4.18-3.794,5.728-6.018c1.544-2.221,2.563-4.493,3.044-6.813v-23.346
		c-1.062-2.706-2.515-5.217-4.349-7.537c-1.839-2.32-3.916-4.302-6.235-5.945c-2.321-1.643-4.81-2.948-7.468-3.915
		c-2.657-0.967-5.341-1.449-8.048-1.449c-4.25,0-8.045,0.893-11.379,2.68c-3.339,1.79-6.166,4.132-8.486,7.033
		c-2.32,2.901-4.081,6.188-5.291,9.86c-1.21,3.674-1.812,7.394-1.812,11.163c0,4.063,0.724,7.927,2.176,11.6
		c1.449,3.673,3.456,6.886,6.015,9.643c2.563,2.754,5.534,4.93,8.919,6.522C809.431,749.814,813.104,750.612,817.068,750.612
		L817.068,750.612z"/>
	<path fill="#999999" d="M937.123,757.862h-9.861v-42.193c0-8.603-1.474-15.03-4.423-19.284c-2.949-4.253-7.273-6.379-12.978-6.379
		c-2.802,0-5.581,0.555-8.335,1.666c-2.754,1.11-5.342,2.632-7.758,4.567c-2.415,1.934-4.518,4.206-6.309,6.816
		c-1.786,2.61-3.114,5.46-3.986,8.556v46.252h-9.86V652.017h9.86v47.413c2.997-5.702,7.151-10.199,12.472-13.485
		c5.316-3.287,11.066-4.93,17.25-4.93c4.353,0,8.026,0.798,11.022,2.393c2.997,1.595,5.46,3.82,7.393,6.669
		c1.934,2.853,3.335,6.284,4.206,10.295c0.868,4.01,1.305,8.434,1.305,13.268L937.123,757.862L937.123,757.862z"/>
	<path fill="#999999" d="M993.669,754.237c-0.581,0.291-1.427,0.677-2.537,1.162c-1.115,0.481-2.394,0.963-3.842,1.448
		c-1.452,0.482-3.096,0.92-4.931,1.305c-1.838,0.386-3.768,0.581-5.801,0.581c-2.126,0-4.155-0.291-6.088-0.871
		c-1.934-0.581-3.626-1.474-5.074-2.684c-1.452-1.206-2.61-2.728-3.482-4.567c-0.867-1.834-1.305-3.963-1.305-6.379V690.15h-10.438
		v-7.831h10.438V656.8h9.861v25.519h17.401v7.831H970.47v51.329c0.194,2.802,1.183,4.857,2.974,6.163
		c1.787,1.305,3.842,1.956,6.162,1.956c2.802,0,5.265-0.46,7.393-1.379c2.126-0.915,3.479-1.57,4.059-1.956L993.669,754.237
		L993.669,754.237z"/>
	<path fill="#999999" d="M1061.962,759.31c-3.577,0-6.886-0.603-9.934-1.812c-3.045-1.206-5.703-2.875-7.975-5
		c-2.272-2.128-4.033-4.618-5.291-7.467c-1.257-2.853-1.886-5.923-1.886-9.206c0-3.287,0.776-6.331,2.32-9.136
		c1.548-2.802,3.721-5.221,6.526-7.251c2.802-2.029,6.136-3.599,10.004-4.709c3.868-1.114,8.118-1.669,12.758-1.669
		c3.868,0,7.783,0.338,11.747,1.015c3.963,0.676,7.489,1.644,10.585,2.9v-6.816c0-6.669-1.886-11.96-5.655-15.876
		c-3.772-3.916-8.989-5.871-15.662-5.871c-3.864,0-7.828,0.772-11.887,2.32c-4.063,1.544-8.17,3.768-12.324,6.669l-3.482-6.526
		c9.762-6.574,19.236-9.861,28.42-9.861c9.471,0,16.916,2.658,22.328,7.975c5.411,5.316,8.117,12.666,8.117,22.041v34.075
		c0,2.706,1.21,4.058,3.626,4.058v8.699c-1.644,0.29-2.897,0.433-3.768,0.433c-2.515,0-4.471-0.628-5.872-1.882
		c-1.401-1.257-2.151-2.997-2.246-5.221l-0.291-5.945c-3.482,4.545-7.857,8.022-13.122,10.438
		C1073.73,758.105,1068.051,759.31,1061.962,759.31L1061.962,759.31z M1064.282,751.773c5.122,0,9.835-0.967,14.137-2.9
		c4.301-1.934,7.563-4.497,9.787-7.684c0.867-0.872,1.522-1.813,1.956-2.827c0.437-1.015,0.654-1.96,0.654-2.827v-12.324
		c-3.287-1.257-6.695-2.225-10.225-2.901c-3.526-0.676-7.129-1.015-10.802-1.015c-6.959,0-12.614,1.449-16.963,4.349
		c-4.35,2.901-6.522,6.717-6.522,11.453c0,2.32,0.455,4.496,1.375,6.525c0.919,2.03,2.176,3.794,3.772,5.294
		c1.591,1.497,3.504,2.68,5.724,3.551C1059.399,751.336,1061.767,751.773,1064.282,751.773L1064.282,751.773z"/>
	<path fill="#999999" d="M1125.034,757.862V690.15h-10.442v-7.831h10.442v-2.029c0-9.28,1.982-16.552,5.946-21.821
		c3.963-5.269,9.375-7.901,16.239-7.901c2.997,0,5.893,0.434,8.699,1.305c2.802,0.867,5.221,2.029,7.251,3.478l-3.045,7.107
		c-1.357-1.066-3.022-1.886-5.004-2.467c-1.982-0.581-3.989-0.872-6.019-0.872c-4.64,0-8.165,1.791-10.584,5.368
		c-2.416,3.573-3.621,8.746-3.621,15.512v2.32h20.875v7.831h-20.875v67.712H1125.034z"/>
	<path fill="#999999" d="M1205.504,754.237c-0.578,0.291-1.423,0.677-2.537,1.162c-1.111,0.481-2.394,0.963-3.842,1.448
		c-1.449,0.482-3.092,0.92-4.931,1.305c-1.834,0.386-3.768,0.581-5.798,0.581c-2.129,0-4.158-0.291-6.092-0.871
		c-1.931-0.581-3.626-1.474-5.074-2.684c-1.449-1.206-2.61-2.728-3.478-4.567c-0.871-1.834-1.305-3.963-1.305-6.379V690.15h-10.442
		v-7.831h10.442V656.8h9.857v25.519h17.402v7.831h-17.402v51.329c0.195,2.802,1.184,4.857,2.974,6.163
		c1.787,1.305,3.842,1.956,6.162,1.956c2.802,0,5.269-0.46,7.393-1.379c2.129-0.915,3.482-1.57,4.059-1.956L1205.504,754.237
		L1205.504,754.237z"/>
	<path fill="#999999" d="M1248.567,759.31c-5.511,0-10.559-1.037-15.151-3.117c-4.592-2.077-8.577-4.927-11.964-8.551
		c-3.382-3.626-6.015-7.805-7.901-12.545c-1.886-4.735-2.827-9.809-2.827-15.221c0-5.32,0.941-10.32,2.827-15.008
		c1.886-4.687,4.497-8.798,7.831-12.324c3.335-3.529,7.321-6.331,11.96-8.412c4.64-2.077,9.666-3.118,15.081-3.118
		c5.508,0,10.559,1.041,15.152,3.118c4.592,2.081,8.529,4.908,11.816,8.482c3.287,3.578,5.849,7.688,7.684,12.328
		c1.839,4.636,2.754,9.566,2.754,14.787c0,0.773,0,1.548,0,2.32c0,0.773-0.048,1.305-0.143,1.596h-64.667
		c0.29,4.059,1.232,7.805,2.827,11.236c1.596,3.434,3.651,6.405,6.163,8.92c2.515,2.511,5.389,4.47,8.629,5.871
		c3.235,1.401,6.692,2.103,10.364,2.103c2.419,0,4.834-0.338,7.25-1.015c2.419-0.676,4.64-1.596,6.669-2.758
		c2.029-1.158,3.868-2.585,5.511-4.275c1.644-1.691,2.901-3.552,3.768-5.581l8.556,2.32c-1.159,2.802-2.802,5.339-4.93,7.611
		c-2.125,2.273-4.593,4.254-7.394,5.945c-2.805,1.691-5.897,2.996-9.279,3.916C1255.769,758.851,1252.24,759.31,1248.567,759.31z
		 M1276.407,716.103c-0.291-4.059-1.232-7.758-2.828-11.092c-1.595-3.335-3.624-6.21-6.088-8.626
		c-2.468-2.419-5.317-4.301-8.556-5.654c-3.24-1.353-6.695-2.029-10.368-2.029c-3.673,0-7.151,0.676-10.438,2.029
		c-3.286,1.353-6.162,3.235-8.629,5.654c-2.463,2.416-4.445,5.316-5.945,8.699c-1.497,3.382-2.394,7.055-2.68,11.018H1276.407z"/>
	<path fill="#999999" d="M1338.754,691.022c-6.67,0.191-12.472,2.029-17.401,5.508c-4.927,3.482-8.409,8.265-10.439,14.353v46.98
		h-9.86V682.32h9.28v18.125c2.805-5.801,6.574-10.342,11.309-13.629c4.74-3.287,9.813-4.93,15.225-4.93
		c0.771,0,1.401,0.048,1.886,0.143V691.022z"/>
	<path fill="#999999" d="M241.441,838.784c-6.669,0.191-12.467,2.029-17.398,5.511c-4.931,3.478-8.408,8.261-10.442,14.353v46.976
		h-9.857v-75.539h9.28v18.121c2.802-5.798,6.57-10.342,11.309-13.629c4.736-3.286,9.809-4.93,15.225-4.93
		c0.772,0,1.401,0.052,1.882,0.147V838.784L241.441,838.784z"/>
	<path fill="#999999" d="M283.057,907.077c-5.511,0-10.537-1.041-15.082-3.118c-4.541-2.077-8.482-4.904-11.816-8.482
		c-3.335-3.578-5.919-7.736-7.758-12.471c-1.835-4.735-2.754-9.713-2.754-14.934c0-5.316,0.941-10.342,2.827-15.078
		c1.886-4.74,4.496-8.894,7.831-12.471c3.335-3.577,7.272-6.427,11.817-8.555c4.541-2.125,9.519-3.187,14.934-3.187
		c5.412,0,10.416,1.062,15.004,3.187c4.592,2.128,8.555,4.978,11.89,8.555c3.335,3.578,5.945,7.732,7.831,12.471
		c1.886,4.735,2.827,9.761,2.827,15.078c0,5.221-0.919,10.199-2.754,14.934c-1.838,4.736-4.423,8.894-7.758,12.471
		c-3.335,3.577-7.298,6.405-11.89,8.482C293.616,906.036,288.564,907.077,283.057,907.077z M255.651,868.219
		c0,4.25,0.724,8.192,2.176,11.817c1.449,3.625,3.405,6.812,5.872,9.57c2.463,2.754,5.364,4.904,8.699,6.449
		c3.334,1.548,6.886,2.32,10.658,2.32c3.768,0,7.32-0.794,10.655-2.39c3.335-1.595,6.261-3.772,8.773-6.526
		c2.515-2.753,4.496-5.967,5.945-9.64c1.452-3.676,2.177-7.636,2.177-11.89c0-4.158-0.724-8.096-2.177-11.817
		c-1.448-3.724-3.43-6.959-5.945-9.717c-2.511-2.754-5.438-4.93-8.773-6.522c-3.334-1.596-6.886-2.393-10.655-2.393
		c-3.772,0-7.298,0.798-10.585,2.393c-3.287,1.592-6.188,3.794-8.699,6.596c-2.515,2.805-4.496,6.066-5.945,9.787
		C256.375,859.976,255.651,863.965,255.651,868.219z"/>
	<path fill="#999999" d="M331.919,867.638c0-5.316,0.919-10.342,2.754-15.081c1.839-4.735,4.423-8.868,7.758-12.394
		c3.335-3.53,7.324-6.309,11.964-8.339c4.64-2.029,9.761-3.044,15.368-3.044c7.154,0,13.386,1.617,18.703,4.857
		c5.316,3.239,9.328,7.61,12.037,13.122l-9.571,3.044c-2.128-3.868-5.099-6.886-8.919-9.063c-3.816-2.173-8.044-3.261-12.684-3.261
		c-3.868,0-7.467,0.772-10.801,2.32c-3.335,1.548-6.236,3.647-8.703,6.305c-2.463,2.658-4.397,5.827-5.798,9.501
		c-1.401,3.673-2.103,7.684-2.103,12.033c0,4.254,0.724,8.265,2.177,12.034c1.448,3.768,3.43,7.034,5.945,9.787
		c2.511,2.754,5.434,4.931,8.769,6.526c3.339,1.596,6.89,2.39,10.659,2.39c2.415,0,4.809-0.338,7.177-1.015
		c2.368-0.676,4.566-1.618,6.599-2.827c2.03-1.206,3.768-2.585,5.217-4.132c1.452-1.544,2.467-3.188,3.044-4.927l9.717,2.897
		c-1.062,2.706-2.61,5.195-4.64,7.467c-2.029,2.273-4.423,4.254-7.176,5.945c-2.758,1.691-5.802,2.996-9.136,3.916
		c-3.335,0.919-6.791,1.379-10.368,1.379c-5.508,0-10.585-1.041-15.221-3.118c-4.64-2.077-8.655-4.93-12.037-8.555
		c-3.383-3.625-6.015-7.805-7.901-12.541C332.86,878.124,331.919,873.05,331.919,867.638z"/>
	<path fill="#999999" d="M470.677,905.625l-27.84-38.711l-16.239,15.078v23.633h-9.857V799.779h9.857v71.918l42.483-41.468h11.166
		l-30.883,30.883l32.041,44.513H470.677L470.677,905.625z"/>
	<path fill="#999999" d="M549.555,907.077c-3.577,0-6.889-0.607-9.934-1.813c-3.044-1.21-5.703-2.875-7.975-5.004
		c-2.272-2.125-4.033-4.615-5.291-7.467c-1.257-2.849-1.886-5.92-1.886-9.206c0-3.287,0.772-6.331,2.32-9.136
		c1.548-2.802,3.721-5.217,6.526-7.246c2.802-2.034,6.136-3.603,10.004-4.714c3.868-1.114,8.117-1.669,12.758-1.669
		c3.868,0,7.783,0.338,11.747,1.015c3.963,0.676,7.489,1.644,10.585,2.901v-6.813c0-6.673-1.886-11.964-5.655-15.88
		c-3.772-3.916-8.989-5.871-15.662-5.871c-3.864,0-7.828,0.772-11.887,2.32c-4.062,1.548-8.169,3.768-12.327,6.669l-3.478-6.526
		c9.761-6.57,19.236-9.857,28.42-9.857c9.47,0,16.916,2.657,22.327,7.974c5.412,5.316,8.118,12.662,8.118,22.038v34.075
		c0,2.706,1.21,4.059,3.625,4.059v8.699c-1.644,0.291-2.897,0.437-3.768,0.437c-2.515,0-4.47-0.628-5.871-1.886
		c-1.401-1.257-2.151-2.997-2.251-5.221l-0.286-5.945c-3.482,4.544-7.857,8.022-13.122,10.441
		C561.324,905.867,555.643,907.076,549.555,907.077L549.555,907.077z M551.874,899.537c5.122,0,9.835-0.967,14.137-2.901
		c4.302-1.934,7.563-4.493,9.788-7.684c0.867-0.872,1.522-1.813,1.956-2.827c0.438-1.015,0.655-1.956,0.655-2.827v-12.324
		c-3.287-1.257-6.695-2.225-10.225-2.901c-3.526-0.677-7.129-1.015-10.801-1.015c-6.96,0-12.614,1.449-16.964,4.349
		c-4.35,2.901-6.522,6.717-6.522,11.457c0,2.32,0.456,4.492,1.375,6.522c0.919,2.034,2.176,3.794,3.772,5.294
		c1.592,1.497,3.504,2.68,5.725,3.552C546.992,899.102,549.36,899.537,551.874,899.537L551.874,899.537z"/>
	<path fill="#999999" d="M673.088,905.625h-9.86v-42.192c0-8.989-1.327-15.515-3.986-19.574c-2.658-4.059-6.743-6.088-12.254-6.088
		c-2.897,0-5.798,0.529-8.699,1.595c-2.901,1.062-5.581,2.559-8.048,4.493c-2.463,1.934-4.662,4.228-6.596,6.886
		c-1.934,2.659-3.334,5.537-4.206,8.63v46.252h-9.857v-75.539h8.989v17.107c3.092-5.507,7.515-9.956,13.265-13.338
		c5.753-3.383,12.012-5.074,18.776-5.074c4.158,0,7.684,0.772,10.585,2.32c2.901,1.544,5.221,3.721,6.96,6.522
		c1.739,2.805,2.996,6.235,3.768,10.294c0.776,4.063,1.162,8.555,1.162,13.485V905.625L673.088,905.625z"/>
	<path fill="#999999" d="M725.141,907.077c-5.221,0-10.052-1.088-14.5-3.265c-4.445-2.173-8.265-5.048-11.453-8.625
		c-3.192-3.577-5.681-7.71-7.467-12.398c-1.791-4.687-2.684-9.592-2.684-14.717c0-5.316,0.871-10.368,2.61-15.151
		c1.739-4.783,4.133-8.967,7.177-12.541c3.044-3.578,6.669-6.405,10.875-8.482c4.203-2.081,8.821-3.118,13.846-3.118
		c6.379,0,12.034,1.666,16.964,5.001c4.931,3.334,8.799,7.371,11.6,12.107v-46.108h9.861v93.087c0,2.706,1.158,4.059,3.478,4.059
		v8.699c-1.449,0.291-2.61,0.437-3.478,0.437c-2.321,0-4.35-0.75-6.093-2.25c-1.739-1.496-2.607-3.309-2.607-5.438v-7.393
		c-2.996,4.93-7.059,8.846-12.18,11.747C735.965,905.625,730.649,907.077,725.141,907.077L725.141,907.077z M727.315,898.374
		c2.419,0,5.004-0.481,7.758-1.449c2.757-0.967,5.342-2.294,7.757-3.985c2.416-1.694,4.471-3.673,6.163-5.945
		c1.691-2.272,2.732-4.713,3.117-7.324v-23.343c-0.967-2.61-2.368-5.052-4.206-7.324c-1.834-2.273-3.938-4.276-6.305-6.015
		c-2.368-1.742-4.904-3.095-7.614-4.063c-2.706-0.967-5.364-1.448-7.975-1.448c-4.058,0-7.732,0.871-11.018,2.61
		c-3.287,1.739-6.114,4.037-8.482,6.886c-2.368,2.853-4.18,6.114-5.438,9.788c-1.254,3.673-1.883,7.445-1.883,11.309
		c0,4.059,0.725,7.927,2.173,11.6c1.452,3.673,3.434,6.886,5.945,9.643c2.515,2.754,5.486,4.952,8.916,6.596
		C719.656,897.555,723.35,898.374,727.315,898.374L727.315,898.374z"/>
	<path fill="#999999" d="M858.969,838.784c-6.669,0.191-12.467,2.029-17.397,5.511c-4.93,3.478-8.412,8.261-10.442,14.353v46.976
		h-9.86v-75.539h9.279v18.121c2.805-5.798,6.574-10.342,11.313-13.629c4.735-3.286,9.809-4.93,15.221-4.93
		c0.775,0,1.405,0.052,1.886,0.147V838.784z"/>
	<path fill="#999999" d="M900.581,907.077c-5.508,0-10.534-1.041-15.078-3.118c-4.545-2.077-8.482-4.904-11.817-8.482
		c-3.335-3.578-5.919-7.736-7.758-12.471c-1.834-4.735-2.754-9.713-2.754-14.934c0-5.316,0.942-10.342,2.827-15.078
		c1.883-4.74,4.493-8.894,7.828-12.471c3.334-3.577,7.276-6.427,11.817-8.555c4.544-2.125,9.522-3.187,14.934-3.187
		c5.416,0,10.416,1.062,15.008,3.187c4.592,2.128,8.555,4.978,11.89,8.555c3.335,3.578,5.945,7.732,7.831,12.471
		c1.883,4.735,2.827,9.761,2.827,15.078c0,5.221-0.919,10.199-2.758,14.934c-1.834,4.736-4.419,8.894-7.758,12.471
		c-3.334,3.577-7.298,6.405-11.886,8.482C911.144,906.036,906.093,907.077,900.581,907.077L900.581,907.077z M873.179,868.219
		c0,4.25,0.725,8.192,2.173,11.817c1.452,3.625,3.408,6.812,5.875,9.57c2.463,2.754,5.364,4.904,8.699,6.449
		c3.335,1.548,6.887,2.32,10.655,2.32c3.772,0,7.324-0.794,10.659-2.39c3.334-1.595,6.257-3.772,8.772-6.526
		c2.515-2.753,4.496-5.967,5.945-9.64c1.449-3.676,2.177-7.636,2.177-11.89c0-4.158-0.728-8.096-2.177-11.817
		c-1.449-3.724-3.43-6.959-5.945-9.717c-2.515-2.754-5.438-4.93-8.772-6.522c-3.335-1.596-6.887-2.393-10.659-2.393
		c-3.768,0-7.298,0.798-10.581,2.393c-3.287,1.592-6.188,3.794-8.702,6.596c-2.511,2.805-4.492,6.066-5.945,9.787
		C873.904,859.976,873.179,863.965,873.179,868.219z"/>
	<path fill="#999999" d="M955.102,799.779h9.857v88.738c0,2.802,0.775,5,2.32,6.596c1.548,1.596,3.724,2.393,6.526,2.393
		c1.062,0,2.32-0.147,3.768-0.434c1.452-0.291,2.805-0.676,4.063-1.162l1.739,7.975c-1.839,0.772-4.085,1.401-6.743,1.886
		c-2.658,0.481-4.952,0.724-6.887,0.724c-4.544,0-8.122-1.279-10.729-3.842c-2.61-2.563-3.915-6.162-3.915-10.802V799.779
		L955.102,799.779z"/>
	<path fill="#999999" d="M994.541,799.779h9.857v88.738c0,2.802,0.776,5,2.32,6.596c1.548,1.596,3.725,2.393,6.526,2.393
		c1.062,0,2.32-0.147,3.768-0.434c1.452-0.291,2.805-0.676,4.063-1.162l1.739,7.975c-1.839,0.772-4.085,1.401-6.743,1.886
		c-2.658,0.481-4.952,0.724-6.886,0.724c-4.545,0-8.122-1.279-10.732-3.842c-2.607-2.563-3.912-6.162-3.912-10.802V799.779
		L994.541,799.779z"/>
	<path fill="#999999" d="M1097.051,907.077c-5.221,0-10.055-1.088-14.501-3.265c-4.448-2.173-8.265-5.048-11.456-8.625
		c-3.187-3.577-5.676-7.71-7.467-12.398c-1.787-4.687-2.68-9.592-2.68-14.717c0-5.316,0.867-10.368,2.61-15.151
		c1.739-4.783,4.133-8.967,7.176-12.541c3.044-3.578,6.669-6.405,10.872-8.482c4.206-2.081,8.824-3.118,13.85-3.118
		c6.379,0,12.034,1.666,16.964,5.001c4.93,3.334,8.794,7.371,11.6,12.107v-46.108h9.857v93.087c0,2.706,1.162,4.059,3.482,4.059
		v8.699c-1.449,0.291-2.61,0.437-3.482,0.437c-2.32,0-4.349-0.75-6.088-2.25c-1.739-1.496-2.61-3.309-2.61-5.438v-7.393
		c-2.996,4.93-7.055,8.846-12.177,11.747C1107.875,905.625,1102.559,907.077,1097.051,907.077L1097.051,907.077z M1099.224,898.374
		c2.416,0,5.004-0.481,7.758-1.449c2.754-0.967,5.342-2.294,7.758-3.985c2.415-1.694,4.471-3.673,6.162-5.945
		c1.692-2.272,2.732-4.713,3.118-7.324v-23.343c-0.967-2.61-2.368-5.052-4.206-7.324c-1.834-2.273-3.938-4.276-6.305-6.015
		c-2.371-1.742-4.908-3.095-7.614-4.063c-2.706-0.967-5.364-1.448-7.975-1.448c-4.059,0-7.732,0.871-11.018,2.61
		c-3.287,1.739-6.115,4.037-8.482,6.886c-2.368,2.853-4.181,6.114-5.438,9.788c-1.257,3.673-1.886,7.445-1.886,11.309
		c0,4.059,0.724,7.927,2.176,11.6c1.449,3.673,3.431,6.886,5.946,9.643c2.511,2.754,5.485,4.952,8.916,6.596
		C1091.562,897.555,1095.26,898.374,1099.224,898.374L1099.224,898.374z"/>
	<path fill="#999999" d="M1188.396,907.077c-5.511,0-10.537-1.041-15.081-3.118c-4.541-2.077-8.482-4.904-11.817-8.482
		c-3.335-3.578-5.919-7.736-7.758-12.471c-1.834-4.735-2.754-9.713-2.754-14.934c0-5.316,0.942-10.342,2.827-15.078
		c1.886-4.74,4.497-8.894,7.831-12.471c3.335-3.577,7.272-6.427,11.817-8.555c4.54-2.125,9.518-3.187,14.934-3.187
		c5.412,0,10.416,1.062,15.005,3.187c4.592,2.128,8.555,4.978,11.89,8.555c3.335,3.578,5.946,7.732,7.831,12.471
		c1.886,4.735,2.827,9.761,2.827,15.078c0,5.221-0.919,10.199-2.754,14.934c-1.838,4.736-4.422,8.894-7.758,12.471
		c-3.334,3.577-7.298,6.405-11.89,8.482C1198.956,906.036,1193.904,907.077,1188.396,907.077L1188.396,907.077z M1160.991,868.219
		c0,4.25,0.725,8.192,2.177,11.817c1.448,3.625,3.408,6.812,5.871,9.57c2.463,2.754,5.364,4.904,8.699,6.449
		c3.335,1.548,6.886,2.32,10.659,2.32c3.768,0,7.32-0.794,10.655-2.39c3.334-1.595,6.261-3.772,8.772-6.526
		c2.515-2.753,4.496-5.967,5.945-9.64c1.452-3.676,2.176-7.636,2.176-11.89c0-4.158-0.724-8.096-2.176-11.817
		c-1.449-3.724-3.43-6.959-5.945-9.717c-2.511-2.754-5.438-4.93-8.772-6.522c-3.335-1.596-6.886-2.393-10.655-2.393
		c-3.772,0-7.298,0.798-10.585,2.393c-3.287,1.592-6.188,3.794-8.699,6.596c-2.515,2.805-4.497,6.066-5.945,9.787
		C1161.715,859.976,1160.991,863.965,1160.991,868.219L1160.991,868.219z"/>
	<path fill="#999999" d="M1275.102,907.077c-5.511,0-10.559-1.041-15.152-3.118c-4.592-2.077-8.577-4.93-11.963-8.555
		c-3.383-3.625-6.015-7.805-7.901-12.541c-1.886-4.74-2.827-9.813-2.827-15.225c0-5.316,0.941-10.32,2.827-15.008
		c1.886-4.687,4.496-8.794,7.831-12.324c3.335-3.53,7.32-6.332,11.959-8.409c4.64-2.081,9.666-3.117,15.081-3.117
		c5.508,0,10.559,1.037,15.152,3.117c4.592,2.077,8.53,4.904,11.816,8.482c3.287,3.573,5.846,7.684,7.684,12.324
		c1.839,4.64,2.755,9.57,2.755,14.787c0,0.776,0,1.548,0,2.321c0,0.775-0.049,1.305-0.144,1.595h-64.667
		c0.291,4.059,1.232,7.805,2.828,11.24c1.596,3.43,3.651,6.401,6.162,8.916c2.515,2.515,5.39,4.47,8.629,5.871
		c3.236,1.401,6.692,2.103,10.364,2.103c2.419,0,4.835-0.338,7.251-1.015c2.415-0.676,4.64-1.596,6.669-2.754
		c2.029-1.162,3.868-2.588,5.511-4.279c1.643-1.691,2.901-3.552,3.768-5.581l8.555,2.32c-1.158,2.802-2.801,5.339-4.93,7.61
		c-2.125,2.273-4.593,4.254-7.393,5.945c-2.805,1.691-5.897,2.996-9.28,3.916C1282.303,906.617,1278.775,907.077,1275.102,907.077z
		 M1302.941,863.866c-0.291-4.059-1.232-7.754-2.828-11.088c-1.596-3.335-3.625-6.213-6.088-8.629
		c-2.468-2.416-5.316-4.302-8.555-5.655c-3.24-1.353-6.695-2.029-10.368-2.029s-7.155,0.676-10.439,2.029
		c-3.286,1.353-6.161,3.239-8.629,5.655c-2.463,2.415-4.445,5.316-5.945,8.699c-1.496,3.382-2.393,7.059-2.68,11.018H1302.941
		L1302.941,863.866z"/>
	<path fill="#999999" d="M1352.674,907.077c-5.897,0-11.647-0.968-17.255-2.901c-5.606-1.934-10.441-4.735-14.5-8.408l4.497-6.669
		c4.25,3.478,8.577,6.088,12.974,7.828c4.398,1.739,9.111,2.61,14.137,2.61c6.092,0,10.949-1.232,14.574-3.699
		c3.625-2.463,5.438-5.967,5.438-10.511c0-2.126-0.486-3.891-1.452-5.291c-0.967-1.404-2.39-2.636-4.276-3.699
		c-1.886-1.062-4.254-2.003-7.107-2.827c-2.849-0.82-6.161-1.665-9.93-2.537c-4.35-1.062-8.118-2.129-11.31-3.191
		c-3.192-1.062-5.823-2.272-7.9-3.625c-2.081-1.353-3.626-3.019-4.64-5c-1.015-1.982-1.522-4.471-1.522-7.468
		c0-3.772,0.747-7.107,2.247-10.004c1.497-2.901,3.526-5.294,6.088-7.176c2.563-1.886,5.559-3.313,8.989-4.28
		c3.434-0.967,7.081-1.449,10.948-1.449c5.798,0,11.067,0.942,15.802,2.827c4.74,1.883,8.555,4.372,11.456,7.467l-4.787,5.798
		c-2.802-2.897-6.21-5.074-10.221-6.522c-4.011-1.452-8.192-2.176-12.541-2.176c-2.61,0-5.026,0.264-7.251,0.798
		c-2.224,0.533-4.18,1.379-5.871,2.537c-1.692,1.162-3.022,2.636-3.989,4.423c-0.967,1.786-1.449,3.89-1.449,6.305
		c0,2.033,0.338,3.673,1.015,4.93c0.675,1.257,1.786,2.346,3.334,3.264c1.548,0.916,3.504,1.739,5.871,2.463
		c2.368,0.725,5.247,1.474,8.629,2.247c4.831,1.162,9.085,2.32,12.758,3.482c3.673,1.158,6.744,2.511,9.207,4.059
		c2.466,1.547,4.327,3.43,5.584,5.654c1.257,2.225,1.882,4.93,1.882,8.122c0,6.96-2.657,12.467-7.974,16.526
		C1368.814,905.047,1361.663,907.076,1352.674,907.077L1352.674,907.077z"/>
</g>
<g>
	<path id="Stationery" fill="#757575" d="M723.734,1866.714c-10.625-2.521-21.133-5.261-30.063-12.1
		c-17.313-13.239-25.218-31.008-25.226-52.575c-0.015-79.249-0.007-158.498-0.007-237.747c0-11.206,0.019-22.397-0.011-33.597
		c-0.041-11.235,2.117-13.857,13.923-15.997c-5.276-10.684-10.452-21.214-15.674-31.718c-5.552-11.162-11.875-22.016-16.464-33.557
		c-2.86-7.198-3.478-15.39-4.521-23.206c-2.798-20.901-5.552-41.814-7.644-62.789c-0.356-3.658,1.688-8.577,4.305-11.262
		c3.735-3.816,8.798-1.823,13.063,0.618c19.368,11.085,38.424,22.78,58.204,33.082c10.371,5.4,16.702,12.985,21.666,23.262
		c16.464,34.06,33.557,67.811,50.531,101.625c1,1.988,3.033,3.455,4.585,5.165c0.565-0.375,1.129-0.746,1.688-1.129
		c0-23.232,0-46.461,0-69.693c0-61.381,0.073-122.758-0.096-184.128c-0.019-7.132,2.271-12.021,9.019-14.525
		c42.509,0,85.01,0,127.512,0c6.114,3.475,7.75,8.827,7.735,15.669c-0.15,77.521-0.1,155.058-0.1,232.589c0,1.685,0,3.379,0,6.662
		c1.762-2.471,2.791-3.646,3.533-4.981c17.182-31.277,34.314-62.579,51.547-93.831c1.684-3.062,2.375-5.271-0.266-8.551
		c-16.052-19.876-16.338-44.16-1.08-65.418c5.507-7.685,11.331-15.145,16.765-22.891c8.806-12.57,9.033-25.475,1.298-38.755
		c-1.662-2.854-3.021-6.401-2.996-9.618c0.051-5.695,5.537-9.545,12.125-8.383c13.56,2.379,25.663,8.405,36.553,16.67
		c37.27,28.247,48.2,83.102,24.615,123.566c-7.144,12.276-17.784,20.104-31.545,23.832c-2.302,0.621-5.283,2.431-6.063,4.43
		c-12.225,31.678-24.147,63.47-36.122,95.243c-0.229,0.58-0.202,1.265-0.279,1.9c12.691,2.577,14.291,4.485,14.379,17.46
		c0.048,7.931,0,15.861,0,24.784c8.931,0,17.472-0.478,25.935,0.088c28.651,1.904,51.686,14.06,66.087,39.561
		c25.056,44.384,7.746,110.963-52.969,123.456c-7.081,1.452-14.464,1.566-21.736,1.956c-5.519,0.291-11.066,0.052-17.342,0.052
		c0,9.475,0.088,18.449-0.026,27.424c-0.265,21.512,0.379,43.104-1.194,64.521c-1.938,26.387-23.56,47.788-49.796,51.675
		c-1.449,0.213-2.856,0.771-4.28,1.161C883.449,1866.714,803.59,1866.714,723.734,1866.714L723.734,1866.714z M998.17,1536.251
		c-103.544,0-206.221,0-309.312,0c0,1.927,0,3.4,0,4.879c0.007,86.978-0.056,173.965,0.04,260.961
		c0.029,27.093,17.526,44.053,44.663,44.017c45.711-0.037,91.426,0.011,137.134,0.025c27.905,0,55.803,0.103,83.701-0.025
		c27.207-0.114,43.534-16.645,43.773-44.027c0.025-3.008-0.025-6.022-0.025-9.037c0.011-62.653,0.025-125.31,0.025-187.963
		C998.181,1582.285,998.17,1559.498,998.17,1536.251z M812.961,1267.249c0,83.003,0,165.329,0,247.574c34.439,0,68.418,0,102.254,0
		c0-13.938,0-27.364,0-41.049c-10.173,0-19.82,0.133-29.464-0.052c-6.181-0.113-10.776-4.367-10.986-9.617
		c-0.213-5.335,3.905-9.839,9.989-10.662c2.111-0.287,4.28-0.141,6.427-0.144c8.063-0.015,16.122-0.008,24.075-0.008
		c0-14.346,0-27.78,0-41.534c-16.354,0-32.207,0.021-48.068-0.015c-8.1-0.026-13.122-4.03-12.975-10.203
		c0.15-6.283,4.985-10.14,13.037-10.258c5.577-0.084,11.158-0.025,16.736-0.025c10.438-0.007,20.864,0,31.306,0
		c0-7.375,0-13.916,0-20.879c-10.291,0-20.137,0.165-29.976-0.06c-5.779-0.128-10.213-4.375-10.54-9.375
		c-0.339-5.121,3.43-9.666,9.132-10.743c1.875-0.356,3.843-0.265,5.776-0.271c8.5-0.029,17.016-0.008,25.582-0.008
		c0-7.306,0-13.839,0-20.864c-3.008,0-5.548,0-8.089,0c-13.739,0.004-27.468,0.066-41.203,0c-6.53-0.026-11.449-4.104-11.806-9.504
		c-0.397-5.857,4.106-10.405,11.019-10.935c2.559-0.194,5.144-0.059,7.721-0.059c14.089,0,28.17,0,42.41,0
		c0-14.225,0-27.651,0-41.311C881.052,1267.249,847.22,1267.249,812.961,1267.249L812.961,1267.249z M1018.799,1701.337
		c8.111,0,15.582,0.316,23.031-0.062c24.375-1.238,43.645-11.32,53.557-34.526c10.188-23.887,8.327-47.333-8-68.068
		c-17.762-22.538-42.906-22.715-68.588-21.074C1018.799,1618.896,1018.799,1659.692,1018.799,1701.337z M1033.527,1277.062
		c3.066,22.512-7.963,38.781-20.312,54.531c-1.989,2.53-3.949,5.081-5.839,7.691c-16.702,23.03-6.904,47.896,21.067,53.466
		c14.291,2.849,26.254-2.125,32.806-15.247c3.85-7.725,6.78-16.302,8.137-24.806
		C1073.551,1326.361,1062.003,1292.934,1033.527,1277.062L1033.527,1277.062z M765.184,1515.298
		c-16.772-33.637-32.931-66.039-49.295-98.849c-14.155,9.485-27.652,18.61-41.248,27.566c-2.769,1.828-2.949,3.493-1.504,6.357
		c10.25,20.32,20.284,40.759,30.597,61.05c0.875,1.71,3.339,3.681,5.089,3.706C727.216,1515.4,745.617,1515.298,765.184,1515.298
		L765.184,1515.298z M1011.038,1408.731c-19.537,35.612-38.792,70.683-58.502,106.589c8.515,0,15.784-0.262,23.03,0.096
		c4.541,0.228,6.806-1.141,8.39-5.641c5.144-14.574,10.843-28.953,16.288-43.424c6.731-17.847,13.445-35.711,20.312-53.983
		C1017.388,1411.162,1014.648,1410.11,1011.038,1408.731L1011.038,1408.731z M700.479,1402.195
		c-13.519-7.747-26.266-15.053-40.104-22.982c2.008,15.809,3.85,30.306,5.816,45.821
		C678.104,1417.1,688.942,1409.883,700.479,1402.195z"/>
	<path id="Resize" fill="#757575" d="M737.904,1813.805H722.44c0-5.31,0-10.626,0-15.935c0.738-0.758,1.356-1.747,2.25-2.235
		c2.415-1.331,5.022,0.488,5.184,3.61c0.114,2.239,0.022,4.489,0.022,7.092c2.228,0,4.294,0.062,6.353-0.011
		c2.269-0.081,4.11,0.617,4.666,2.941C741.492,1811.668,739.934,1812.963,737.904,1813.805L737.904,1813.805z M824.135,1813.805
		h-12.651c-0.731-0.677-1.658-1.225-2.162-2.037c-1.452-2.371,0.243-5.14,3.35-5.375c2.312-0.173,4.651-0.029,7.276-0.029
		c0-2.339-0.029-4.493,0.007-6.647c0.048-2.747,1.526-4.529,3.67-4.522c2.213,0.011,3.69,1.706,3.746,4.467
		c0.059,2.964-0.089,5.931,0.044,8.887C827.528,1811.135,826.598,1812.903,824.135,1813.805L824.135,1813.805z M794.141,1813.805
		h-8.9c-0.897-1.107-2.206-2.085-2.6-3.35c-0.621-1.996,1.445-3.985,3.985-4.106c1.941-0.093,3.894,0.051,5.839-0.022
		c2.265-0.085,4.121,0.6,4.688,2.927C797.732,1811.661,796.178,1812.963,794.141,1813.805L794.141,1813.805z M764.147,1813.805
		h-8.905c-0.856-0.952-2.044-1.772-2.503-2.894c-0.854-2.077,1.011-4.316,3.673-4.522c2.011-0.154,4.044,0,6.066-0.059
		c2.246-0.07,4.121,0.577,4.68,2.93C767.732,1811.668,766.184,1812.963,764.147,1813.805L764.147,1813.805z M947.389,1780.998
		c-1.254,2.231-3.213,2.809-5.684,2.809c-55.752-0.04-111.504-0.029-167.256-0.029c-5.467,0-10.935,0.004-16.401,0
		c-4.379-0.007-5.581-1.188-5.581-5.533c-0.004-31.082,0-62.156,0-93.234c0-30.299,0.019-60.594-0.033-90.89
		c-0.004-2.588,0.827-4.356,3.279-5.269c63.893,0,127.788,0,191.676,0C947.389,1652.901,947.389,1716.948,947.389,1780.998
		L947.389,1780.998z M722.439,1771.627c1.03-0.879,1.927-2.133,3.122-2.556c2.106-0.735,4.165,1.25,4.316,3.948
		c0.106,1.941-0.008,3.891,0.048,5.839c0.062,2.243-0.614,4.118-2.945,4.684c-2.412,0.585-3.706-0.978-4.541-3.011
		C722.439,1777.561,722.439,1774.594,722.439,1771.627z M939.749,1596.492H760.066v112.246c5.485,0.338,7.346,1.173,7.206,3.588
		c-0.279,4.772-4.258,3.729-7.198,4.097c0,20.022,0,39.884,0,59.752c20.037,0,39.901,0,59.755,0c0.39-5.512,1.218-7.357,3.581-7.203
		c4.754,0.298,3.762,4.235,4.104,7.287c37.461,0,74.764,0,112.235,0V1596.492L939.749,1596.492z M827.374,1746.552
		c0,1.089,0.052,2.185-0.012,3.276c-0.117,2.077-1.595,3.725-3.386,3.86c-1.952,0.146-3.754-1.276-3.923-3.515
		c-0.198-2.637-0.225-5.31,0-7.938c0.158-1.867,1.481-3.165,3.423-3.25c1.923-0.084,3.32,0.956,3.662,2.916
		c0.265,1.521,0.246,3.092,0.356,4.64C827.455,1746.545,827.414,1746.545,827.374,1746.552L827.374,1746.552z M722.439,1741.629
		c1.03-0.879,1.931-2.121,3.122-2.552c2.019-0.724,4.121,1.195,4.298,3.721c0.133,1.941,0.048,3.894,0.055,5.839
		c0.012,2.809-0.94,4.57-2.922,4.949c-2.424,0.455-3.725-1-4.553-3.049C722.439,1747.57,722.439,1744.6,722.439,1741.629z
		 M819.98,1716.29c-2.449,0-4.614,0.022-6.776-0.004c-2.596-0.036-4.36-1.485-4.408-3.552c-0.048-2.194,1.698-3.798,4.375-3.853
		c3.276-0.07,6.552-0.059,9.827-0.008c2.772,0.052,4.254,1.397,4.346,4.14c0.122,3.504,0.085,7.02,0.012,10.53
		c-0.048,2.191-1.695,3.883-3.574,3.901c-1.974,0.011-3.632-1.475-3.768-3.71C819.866,1721.353,819.98,1718.948,819.98,1716.29
		L819.98,1716.29z M729.918,1716.294c0,2.169-0.044,4.235,0.012,6.302c0.055,2.242-0.6,4.129-2.938,4.706
		c-2.42,0.595-3.714-0.971-4.552-3.008c0-4.221,0-8.438,0-12.655c1.242-2.242,3.198-2.915,5.673-2.809
		c2.879,0.129,5.769,0,8.654,0.041c2.42,0.036,4.191,1.492,4.295,3.43c0.113,2.121-1.512,3.765-4.022,3.967
		c-1.162,0.093-2.335,0.022-3.508,0.026H729.918z M790.009,1708.871c1.169,0,2.346-0.062,3.511,0.015
		c2.056,0.132,3.713,1.69,3.783,3.459c0.07,1.876-1.283,3.647-3.379,3.812c-2.709,0.221-5.467,0.25-8.173,0.015
		c-1.856-0.161-3.136-1.515-3.154-3.478c-0.019-1.919,1.029-3.298,2.992-3.621c1.449-0.239,2.941-0.21,4.416-0.298
		C790.005,1708.809,790.009,1708.838,790.009,1708.871z M912.038,1618.812c-1.18,0-1.849,0-2.515,0
		c-13.118,0.008-26.232,0.011-39.351,0.019c-0.471,0-0.938,0-1.404-0.019c-2.614-0.085-4.287-1.479-4.339-3.604
		c-0.051-2.235,1.629-3.801,4.361-3.827c6.242-0.055,12.489-0.019,18.735-0.019c10.78,0.004,21.552,0.008,32.325,0.019
		c3.742,0.004,5.004,1.195,5.007,4.816c0.015,17.02,0.008,34.042,0.033,51.061c0,1.967-0.552,3.806-2.54,4.214
		c-1.214,0.25-3.041-0.225-3.883-1.077c-0.82-0.835-1.011-2.56-1.015-3.894c-0.066-13.118-0.033-26.236-0.029-39.354
		c0-0.776,0-1.556,0-2.945c-0.96,0.901-1.6,1.475-2.21,2.081c-22.968,22.964-45.939,45.936-68.914,68.896
		c-0.658,0.655-1.323,1.387-2.129,1.795c-1.5,0.757-3.059,0.688-4.283-0.614c-1.254-1.342-1.511-2.904-0.423-4.481
		c0.566-0.824,1.247-1.589,1.96-2.298c22.795-22.81,45.597-45.612,68.399-68.414
		C910.461,1620.529,911.061,1619.854,912.038,1618.812L912.038,1618.812z"/>
</g>
<rect x="70.664" y="294.072" fill="none" stroke="#808080" stroke-width="4" stroke-linejoin="round" stroke-miterlimit="1.4142" width="1618.412" height="273.006"/>
</svg>
