<?xml version="1.0" encoding="iso-8859-1"?>
<!-- Uploaded to: SVG Repo, www.svgrepo.com, Generator: SVG Repo Mixer Tools -->
<!DOCTYPE svg PUBLIC "-//W3C//DTD SVG 1.1//EN" "http://www.w3.org/Graphics/SVG/1.1/DTD/svg11.dtd">
<svg fill="#000000" version="1.1" id="Capa_1" xmlns="http://www.w3.org/2000/svg" xmlns:xlink="http://www.w3.org/1999/xlink" 
	 width="800px" height="800px" viewBox="0 0 49.139 49.139"
	 xml:space="preserve">
<g>
	<g>
		<path d="M49.125,24.108c-0.035-0.34-0.116-0.79-0.271-1.218c-0.297-0.867-0.91-1.558-0.91-1.558s-0.145-0.174-0.393-0.409
			c-0.252-0.231-0.619-0.505-1.031-0.711c-0.412-0.207-0.85-0.346-1.224-0.378c-0.312-0.032-0.521-0.054-0.521-0.054l-0.001,0.01
			l-0.864-0.086v-0.243h0.001v-0.036V18.86v-0.036v-0.46h-0.033l0.001-0.22l-0.002-0.036l-0.005-0.034l-0.01-0.034l-0.012-0.032
			l-0.016-0.03l-0.019-0.03l-0.021-0.027l-0.021-0.028L43.75,17.87l-0.026-0.021l-0.029-0.018l-0.034-0.016l-0.033-0.012
			l-0.032-0.008l-0.034-0.006l-0.034-0.001h-1.312V17.78v-0.017H38.9h-3.314v0.011l-0.963,0.001v-0.124v-0.85V16.34H34.59v-0.005
			L34.588,16.3l-0.005-0.034l-0.009-0.034L34.562,16.2l-0.017-0.031l-0.019-0.03l-0.02-0.029l-0.021-0.026l-0.024-0.023
			l-0.026-0.021l-0.031-0.018l-0.03-0.016l-0.033-0.012l-0.031-0.008l-0.035-0.006l-0.033-0.001h-1.208v-0.015h-0.104v-0.01h-0.184
			v0.011l-0.532,0.001c-0.003-0.005-0.007-0.011-0.012-0.02c-0.012-0.019-0.026-0.046-0.045-0.078
			c-0.038-0.062-0.09-0.148-0.142-0.233c-0.026-0.04-0.055-0.079-0.079-0.117l0.002-0.002c0,0-0.077-0.119-0.199-0.293
			c-0.023-0.034-0.04-0.059-0.04-0.059l-0.003,0.001c-0.161-0.226-0.396-0.526-0.654-0.808c-0.492-0.547-1.076-0.996-1.076-0.996
			s-0.573-0.459-1.225-0.806c-0.644-0.357-1.342-0.592-1.342-0.592s-0.694-0.246-1.422-0.361c-0.725-0.128-1.46-0.12-1.46-0.12
			s-0.735-0.008-1.46,0.121c-0.728,0.115-1.421,0.36-1.423,0.361v-0.001c0,0-0.697,0.235-1.342,0.592
			c-0.646,0.347-1.224,0.805-1.225,0.807l-0.001-0.001c0,0.001-0.584,0.45-1.074,0.996c-0.501,0.538-0.896,1.159-0.896,1.159
			l0.011,0.007c-0.031,0.049-0.065,0.101-0.102,0.153c-0.088,0.15-0.176,0.301-0.176,0.301l-0.003-0.002l-0.005-0.003l-0.002-0.001
			h-0.001c0.012-0.012,0.012-0.011,0.017-0.017h-0.002c-0.006,0-0.016,0-0.024,0c-0.021,0-0.056,0-0.094,0c-0.075,0-0.178,0-0.279,0
			c-0.051,0-0.099,0-0.146,0h-0.327c-0.062,0-0.109,0-0.109,0v0.035l-1.206-0.003l-0.038,0.002l-0.033,0.005l-0.034,0.009
			l-0.033,0.013l-0.03,0.015l-0.029,0.018l-0.03,0.02l-0.025,0.023l-0.024,0.026l-0.022,0.028l-0.019,0.029l-0.017,0.031
			l-0.011,0.033l-0.008,0.034l-0.005,0.036l-0.001,0.033v0.161h-0.017l0.001,0.299h-0.011v0.85h0.012v0.112h-0.975H12.84H9.929
			H6.555v0.017v0.019l-1.317-0.004l-0.034,0.002L5.17,17.802l-0.034,0.01l-0.032,0.011l-0.032,0.014l-0.031,0.018l-0.027,0.022
			L4.987,17.9l-0.022,0.025l-0.021,0.03l-0.017,0.028L4.91,18.015l-0.013,0.032L4.89,18.082l-0.006,0.034L4.883,18.15v0.6H4.868
			l0.001,0.299H4.858v0.411H4.87l0.001,0.378l-0.787,0.155v-0.001c0,0-0.2,0.04-0.499,0.099c-0.331,0.05-0.772,0.216-1.151,0.44
			c-0.787,0.446-1.314,1.164-1.314,1.164l0.012,0.01l0.128,0.1l0.076,0.06c0,0,0.503-0.681,1.235-1.096
			C2.712,20.683,2.856,20.613,3,20.556c0.04-0.016,0.076-0.026,0.116-0.041c0.108-0.04,0.215-0.075,0.314-0.103
			c0.007-0.002,0.014-0.005,0.021-0.007v0.002c0.192-0.052,0.366-0.087,0.487-0.107l0.193-0.038l0.002-0.001l0.991-0.196V18.75
			h0.033v-0.6l0.001-0.016l0.005-0.015l0.007-0.014l0.011-0.012l0.013-0.011l0.016-0.007l0.015-0.003l0.017-0.001h1.315v-0.017
			v-0.016h0.299h3.075h2.912h0.462h0.986h0.242v-1.535h0.032v-0.162l0.001-0.016l0.005-0.015l0.008-0.014l0.01-0.012l0.014-0.011
			l0.015-0.007l0.015-0.005l0.017-0.001h1.206v-0.031h0.438h0.698v-0.004v-0.003c-0.005,0.005-0.006,0.005-0.006,0.006l0,0
			l0.002-0.004c0.004-0.005,0.009-0.013,0.014-0.022c0.012-0.02,0.026-0.048,0.046-0.082c0.039-0.066,0.091-0.155,0.145-0.244
			c0.056-0.094,0.114-0.188,0.158-0.258c0.071-0.106,0.121-0.178,0.121-0.178l0.008,0.005c0.062-0.089,0.14-0.192,0.23-0.316
			c0.033-0.044,0.061-0.079,0.097-0.125c0.117-0.15,0.247-0.308,0.391-0.461c0.478-0.529,1.043-0.965,1.043-0.965
			s0.559-0.445,1.188-0.781c0.623-0.346,1.301-0.573,1.301-0.573s0.673-0.238,1.377-0.349c0.701-0.126,1.415-0.118,1.415-0.118
			s0.714-0.008,1.416,0.118c0.704,0.111,1.377,0.35,1.377,0.35s0.678,0.228,1.3,0.573c0.63,0.336,1.188,0.78,1.188,0.78
			s0.564,0.437,1.042,0.966c0.116,0.126,0.225,0.253,0.324,0.378c0.025,0.033,0.05,0.062,0.074,0.094
			c0.082,0.105,0.155,0.202,0.221,0.291c0.006,0.006,0.014,0.015,0.018,0.021l0.002-0.001c0,0,0.056,0.077,0.137,0.194
			c0.007,0.01,0.018,0.025,0.022,0.036c0.046,0.068,0.071,0.11,0.071,0.11l-0.002,0.001c0.037,0.059,0.069,0.109,0.11,0.173
			c0.113,0.195,0.229,0.391,0.229,0.391l0.006-0.002l0.002-0.001c-0.005-0.005-0.005-0.005-0.006-0.006h0.001h0.006
			c0.006,0,0.017,0,0.025,0c0.023,0,0.06,0,0.101,0c0.079,0,0.185,0,0.288,0c0.004,0,0.008,0,0.012,0c0.273,0,0.552,0,0.552,0v0.033
			h1.208l0.017,0.001l0.016,0.005l0.015,0.007l0.013,0.01l0.012,0.013l0.007,0.014l0.006,0.015l0.001,0.016v0.006h0.032v1.609v0.081
			h1.235h0.3v0.007h3.01h2.854h0.461v0.017v0.01h1.311l0.017,0.001l0.017,0.005l0.015,0.007l0.012,0.01l0.012,0.013l0.002,0.014
			l0.005,0.015l0.001,0.016v0.22h0.033v1.396v0.168l0.868,0.09l0.537,0.056v0.004c0.107,0.01,0.245,0.029,0.394,0.056v-0.003
			c0.012,0.002,0.021,0.007,0.034,0.009c0.112,0.021,0.231,0.051,0.357,0.088c0.036,0.011,0.069,0.021,0.106,0.032
			c0.152,0.051,0.309,0.111,0.46,0.194c0.386,0.191,0.73,0.45,0.971,0.667c0.232,0.221,0.369,0.387,0.369,0.387l0.074-0.064
			l0.122-0.104l-0.122,0.104l-0.073,0.063c0,0,0.578,0.652,0.859,1.471c0.146,0.404,0.222,0.829,0.255,1.148
			c0.021,0.321,0.014,0.537,0.014,0.537s-0.021,0.869-0.357,1.665c-0.305,0.809-0.873,1.462-0.873,1.463
			c0,0-0.545,0.686-1.328,1.066c-0.184,0.1-0.365,0.162-0.547,0.215c-0.21,0.062-0.408,0.109-0.568,0.152
			c-0.306,0.078-0.508,0.131-0.508,0.131l-0.923,0.239l0.003,1.258h-0.04v0.662l-0.001,0.017l-0.005,0.016l-0.009,0.015l-0.01,0.012
			l-0.014,0.013l-0.013,0.006L43.663,31.6l-0.017,0.002h-1.315v0.016v0.019h-0.299h-3.072h-2.913h-0.461h-1.229v0.011v1.524h-0.032
			v0.245l-0.001,0.018l-0.006,0.014l-0.007,0.016l-0.012,0.011l-0.013,0.01l-0.015,0.008l-0.017,0.006l-0.016,0.001H33.17v0.032
			h-0.546h-0.521v0.004v0.004c0.003-0.004,0.003-0.004,0.004-0.006l-0.002,0.005c-0.003,0.004-0.008,0.011-0.016,0.021
			c-0.012,0.018-0.026,0.041-0.048,0.068c-0.04,0.059-0.094,0.136-0.146,0.212l-0.08,0.11c-0.032,0.041-0.062,0.08-0.09,0.113
			c-0.08,0.103-0.135,0.17-0.135,0.17l-0.007-0.006c-0.09,0.109-0.214,0.256-0.357,0.414c-0.013,0.012-0.021,0.021-0.03,0.032
			c-0.15,0.162-0.321,0.334-0.508,0.497c-0.583,0.529-1.256,0.941-1.256,0.941s-0.667,0.428-1.407,0.699
			c-0.733,0.289-1.512,0.428-1.512,0.428s-0.774,0.156-1.564,0.146c-0.789,0.013-1.563-0.146-1.563-0.146s-0.777-0.139-1.513-0.428
			c-0.739-0.271-1.407-0.699-1.407-0.697c0,0-0.673-0.414-1.256-0.943c-0.172-0.15-0.33-0.311-0.473-0.46
			c-0.063-0.065-0.106-0.12-0.162-0.185c-0.058-0.062-0.123-0.135-0.17-0.188l-0.003,0.002c0,0-0.019-0.022-0.046-0.06
			c-0.132-0.157-0.212-0.267-0.212-0.267l0.002-0.002c-0.037-0.049-0.075-0.098-0.114-0.147c-0.117-0.168-0.235-0.338-0.235-0.338
			l-0.004,0.002l-0.002,0.002l0,0l0.004,0.006h-0.001h-0.004c-0.006,0-0.015,0-0.023,0c-0.021,0-0.054,0-0.09,0
			c-0.074,0-0.174,0-0.271,0c-0.084,0-0.165,0-0.24,0c-0.159,0-0.284,0-0.284,0v-0.008h-0.46h-0.461V33.51V33.5h-1.311l-0.016-0.001
			l-0.016-0.006l-0.014-0.007l-0.012-0.01l-0.012-0.015l-0.007-0.015l-0.006-0.016l-0.001-0.017v-0.091h-0.032V31.8v-0.163h-1.235
			h-0.3v-0.009H9.987H7.133H6.672v-0.014v-0.01h-1.31H5.346l-0.015-0.006l-0.015-0.008l-0.012-0.01l-0.011-0.013l-0.007-0.014
			L5.281,31.54v-0.015v-0.322H5.25v-1.289V29.73l-1.296-0.25l0.002-0.008c-0.062-0.013-0.131-0.025-0.206-0.039
			c-0.18-0.025-0.402-0.093-0.63-0.179c-0.151-0.053-0.303-0.112-0.448-0.194c-0.37-0.195-0.694-0.461-0.914-0.684
			c-0.225-0.214-0.351-0.38-0.351-0.382c0,0-0.539-0.645-0.817-1.434c-0.317-0.773-0.315-1.621-0.315-1.621s-0.02-0.844,0.271-1.629
			c0.259-0.796,0.787-1.45,0.787-1.45l-0.077-0.06l-0.127-0.1l-0.013-0.01c0,0-0.559,0.69-0.829,1.529
			C-0.02,24.048,0,24.946,0,24.946s-0.001,0.898,0.332,1.713c0.293,0.829,0.862,1.511,0.862,1.511s0.133,0.178,0.371,0.402
			c0.23,0.234,0.577,0.52,0.976,0.729c0.195,0.104,0.399,0.202,0.604,0.266c0.101,0.029,0.2,0.074,0.312,0.088
			c0.086,0.019,0.167,0.033,0.241,0.048c0.3,0.061,0.5,0.1,0.5,0.1l0.002-0.01l0.777,0.148v0.271H4.976v0.532h0.001l-0.001,0.462
			h0.032v0.32l0.002,0.035l0.006,0.035l0.009,0.032l0.013,0.031l0.015,0.03l0.019,0.031l0.021,0.025l0.022,0.027l0.024,0.021
			l0.027,0.021l0.028,0.02l0.031,0.016l0.032,0.012l0.033,0.011l0.035,0.005l0.033,0.002h1.311v0.01v0.018h3.314H13.3v-0.01
			l0.963-0.002v0.207v0.768v0.461h0.031v0.09l0.002,0.035l0.005,0.033l0.01,0.033l0.013,0.033l0.015,0.029l0.019,0.029l0.021,0.027
			l0.022,0.024l0.024,0.022l0.028,0.021l0.028,0.02l0.031,0.016l0.032,0.012l0.033,0.01l0.034,0.006l0.034,0.002h1.311v0.008v0.019
			h1.205v-0.011l0.481-0.001c0.003,0.004,0.007,0.01,0.014,0.019c0.011,0.016,0.026,0.039,0.046,0.066
			c0.039,0.056,0.091,0.129,0.144,0.201c0.026,0.035,0.054,0.068,0.079,0.104c0,0,0.074,0.101,0.2,0.253
			c0.037,0.047,0.064,0.082,0.064,0.082l0.002-0.002c0.201,0.237,0.495,0.562,0.83,0.858c0.601,0.545,1.292,0.971,1.296,0.975
			c0.001,0,0.688,0.438,1.453,0.722c0.758,0.297,1.562,0.439,1.562,0.439l0.003-0.018l-0.003,0.019c0-0.001,0.801,0.16,1.613,0.147
			c0.814,0.013,1.614-0.148,1.615-0.148v0.001c0,0,0.804-0.146,1.562-0.44c0.767-0.283,1.452-0.723,1.452-0.722
			c0,0,0.694-0.428,1.297-0.975c0.61-0.538,1.1-1.191,1.1-1.191l-0.012-0.008c0.033-0.042,0.066-0.087,0.104-0.132
			c0.091-0.133,0.182-0.262,0.182-0.262l0.003,0.002l0.005,0.002l0.001,0.002l0.001,0.002c-0.009,0.01-0.009,0.01-0.014,0.015h0.002
			c0.006,0,0.014,0,0.022,0c0.021,0,0.049,0,0.084,0c0.067,0,0.159,0,0.253,0c0.045,0,0.088,0,0.132,0h0.188
			c0.144,0,0.247,0,0.247,0v-0.034l1.069,0.004l0.034-0.002l0.034-0.006l0.032-0.01l0.032-0.014l0.03-0.014l0.03-0.02l0.025-0.021
			l0.025-0.022l0.022-0.024l0.021-0.027l0.019-0.028l0.017-0.031l0.013-0.032l0.013-0.035l0.006-0.035l0.003-0.032V33.17h0.016
			v-0.299h0.011v-0.768h-0.013V31.91h0.975h0.461h2.913h3.373v-0.018v-0.019l1.315,0.003l0.035-0.002l0.032-0.006l0.034-0.01
			l0.032-0.012l0.03-0.016l0.029-0.02l0.026-0.021l0.025-0.021l0.021-0.024l0.021-0.028l0.019-0.027l0.018-0.031l0.012-0.032
			l0.009-0.033l0.006-0.034L44,31.523v-0.662h0.018l-0.001-0.299h0.011v-0.351h-0.011l-0.001-0.396l0.729-0.188v0.001
			c0,0,0.153-0.039,0.388-0.101l0.304-0.077c0.281-0.068,0.66-0.162,0.989-0.343c0.845-0.414,1.415-1.137,1.415-1.137
			s0.603-0.691,0.922-1.539c0.354-0.834,0.377-1.757,0.377-1.757S49.146,24.45,49.125,24.108z M32.197,15.965v-0.004v-0.004v-0.002
			l0,0c0.009,0.008,0.01,0.009,0.013,0.012L32.197,15.965L32.197,15.965z M17.66,33.792v0.005v0.002V33.8
			c-0.008-0.008-0.009-0.009-0.012-0.012h0.012V33.792z"/>
		<path d="M23.683,23.259l-1.513,5.753c-0.014,0.052-0.002,0.104,0.024,0.151v0.011l0.001,0.019l0.003,0.016l0.004,0.018
			l0.005,0.014l0.003,0.008l0.001,0.002l0,0l0.001,0.001l0.003,0.001l0.015,0.008l0.016,0.009l0.015,0.006l0.018,0.004l0.018,0.002
			l0.017,0.002l0.018,0.002h2.11v0.012h2.479l1.049,0.005c0,0,0.001,0,0.002,0c0.062,0,0.119-0.026,0.157-0.075
			c0.039-0.051,0.055-0.113,0.04-0.176l-1.396-5.976c0.808-0.572,1.31-1.45,1.31-2.452c0-1.656-1.349-3.004-3.004-3.004
			c-0.591,0-1.14,0.172-1.604,0.467c-0.008,0.002-0.013,0.005-0.019,0.006c-0.004,0.003-0.006,0.004-0.009,0.006
			c-0.169,0.109-0.326,0.235-0.471,0.376c-0.021,0.021-0.037,0.035-0.047,0.044c-0.531,0.543-0.861,1.285-0.861,2.104
			C22.061,21.731,22.76,22.734,23.683,23.259z M25.065,18.02c1.396,0,2.537,1.108,2.593,2.494c0.002,0.05,0.004,0.101,0.002,0.15
			c-0.001,0.057-0.008,0.11-0.012,0.165c-0.037,0.342-0.14,0.66-0.255,0.895c-0.08,0.175-0.179,0.304-0.241,0.396
			c-0.027,0.046-0.05,0.082-0.063,0.108c-0.223,0.274-0.503,0.511-0.831,0.694l0.022,0.092l-0.002,0.019v0.008l0.001,0.008
			l0.291,1.283l0.442,1.706L27,26.041l0.395,1.521l0.312,1.326l-5.073-0.023l1.479-5.625c0.021-0.071-0.004-0.141-0.051-0.189
			l0.005-0.029c-0.9-0.408-1.597-1.35-1.597-2.401C22.468,19.184,23.633,18.02,25.065,18.02z"/>
		<path d="M0.435,24.94c0,0-0.003,0.815,0.306,1.566c0.062,0.178,0.138,0.344,0.218,0.498c0.064,0.129,0.134,0.248,0.199,0.354
			c0.002,0.003,0.003,0.005,0.005,0.007c0.13,0.213,0.249,0.375,0.314,0.461c0.003,0.005,0.006,0.008,0.008,0.011
			c0.027,0.035,0.048,0.062,0.048,0.062s0.496,0.652,1.217,1.023c0.108,0.062,0.223,0.109,0.334,0.154
			c0.021,0.009,0.039,0.016,0.061,0.021c0.104,0.037,0.206,0.071,0.307,0.102c0.46,0.127,0.839,0.15,0.832,0.175L4.28,29.379
			l1.065,0.208l0.013,0.004L5.37,29.6l0.021,0.02l0.01,0.011l0.008,0.013l0.005,0.014l0.001,0.014v0.247h0.032v1.534h1.689v0.023
			H9.99h3.314v0.008h1.315h0.016l0.016,0.005l0.015,0.007l0.014,0.012l0.01,0.013l0.007,0.014l0.005,0.015l0.001,0.017v0.246h0.032
			v1.533h1.689v0.023h0.744v0.009h0.676l0.01,0.001l0.008,0.005l0.009,0.008l0.003,0.006h0.001v0.002h0.001h0.003h0.014l0.01,0.002
			l0.009,0.004l0.006,0.006c0,0,0.121,0.175,0.242,0.349l0.045,0.063l0.047,0.061c0.011,0.016,0.021,0.023,0.029,0.038l0.003,0.003
			c0.034,0.044,0.069,0.088,0.099,0.124c0.035,0.044,0.061,0.075,0.084,0.104c0.188,0.229,0.501,0.586,0.86,0.899
			c0.57,0.521,1.231,0.926,1.231,0.926s0.653,0.418,1.381,0.688c0.722,0.281,1.482,0.42,1.482,0.42s0.762,0.152,1.535,0.145
			c0.774,0.01,1.536-0.145,1.536-0.145s0.763-0.139,1.482-0.42c0.728-0.27,1.381-0.688,1.381-0.688s0.66-0.404,1.23-0.926
			c0.582-0.511,1.045-1.135,1.045-1.135l0.008,0.005c0.021-0.023,0.038-0.052,0.062-0.08l0.082-0.113
			c0.11-0.16,0.222-0.318,0.222-0.318l0.006-0.006l0.01-0.004l0.011-0.002h0.007h0.001h0.001v-0.002l0.002-0.002l0.006-0.012
			l0.01-0.007l0.008-0.006l0.008-0.001h0.562v-0.032h1.535v-1.688H34.2v-0.09l0.001-0.018l0.005-0.016l0.007-0.016l0.013-0.014
			l0.012-0.01l0.015-0.008l0.017-0.004l0.017-0.002h1.311l0,0h3.374h3.073V31.44h1.535V29.75h0.032V29.54l0.001-0.014l0.006-0.012
			l0.016-0.021v-0.012l0.011-0.01l0.011-0.009l0.012-0.004l0.983-0.253l0,0c0,0,0.203-0.054,0.51-0.132
			c0.089-0.022,0.196-0.053,0.299-0.077c0.085-0.021,0.174-0.048,0.263-0.073c0.173-0.052,0.351-0.111,0.52-0.201
			c0.751-0.367,1.279-1.029,1.28-1.029c-0.001,0,0.396-0.459,0.692-1.073c0.015-0.021,0.021-0.048,0.034-0.067
			c0.042-0.09,0.082-0.183,0.116-0.275c0.326-0.771,0.348-1.61,0.348-1.61s0.007-0.207-0.014-0.518
			c-0.03-0.308-0.104-0.717-0.244-1.107c-0.141-0.408-0.354-0.771-0.532-1.028c-0.059-0.077-0.104-0.16-0.169-0.232
			c-0.076-0.1-0.129-0.161-0.129-0.161c-0.001,0-0.134-0.159-0.357-0.372c-0.229-0.21-0.562-0.458-0.934-0.643
			c-0.152-0.077-0.312-0.137-0.469-0.19c-0.146-0.047-0.288-0.082-0.422-0.105c-0.062-0.011-0.129-0.034-0.186-0.038
			c-0.312-0.033-0.521-0.055-0.521-0.055l0.001-0.008l-1.183-0.122l-0.015-0.003l-0.014-0.006l-0.014-0.012L43.5,20.056l-0.01-0.011
			l-0.008-0.012l-0.005-0.014l-0.001-0.014v-0.247h-0.033v-1.535h-1.689v-0.025H38.9h-3.314V18.19H34.27l-0.018-0.001l-0.016-0.005
			l-0.014-0.007l-0.015-0.011l-0.01-0.012l-0.008-0.014l-0.003-0.013l-0.001-0.016V17.95h-0.032v-1.535h-1.69v-0.034h-0.47
			l-0.01-0.001l-0.007-0.005l-0.008-0.007l-0.006-0.005l-0.001-0.001l0,0h-0.004l-0.012-0.002l-0.012-0.004l-0.007-0.004
			l-0.007-0.007c0,0-0.027-0.051-0.069-0.127c-0.043-0.075-0.104-0.175-0.162-0.275c-0.063-0.102-0.126-0.196-0.179-0.279
			c-0.121-0.18-0.427-0.615-0.796-1.012c-0.468-0.52-1.021-0.947-1.021-0.947s-0.548-0.437-1.163-0.767
			c-0.611-0.34-1.275-0.563-1.275-0.563s-0.658-0.233-1.353-0.343c-0.688-0.123-1.39-0.115-1.39-0.115s-0.7-0.008-1.39,0.115
			c-0.69,0.109-1.353,0.343-1.353,0.343s-0.662,0.223-1.272,0.563c-0.617,0.329-1.165,0.767-1.165,0.767s-0.556,0.427-1.021,0.947
			c-0.478,0.512-0.854,1.103-0.854,1.103l-0.005-0.004c-0.043,0.066-0.091,0.145-0.145,0.227c-0.054,0.092-0.105,0.184-0.146,0.252
			c-0.039,0.07-0.064,0.116-0.064,0.116l-0.006,0.007l-0.01,0.005l-0.01,0.004h-0.007h-0.002h-0.001v0.001l-0.002,0.003l-0.007,0.01
			l-0.007,0.006l-0.009,0.005l-0.01,0.001H16.26v0.033h-1.534v1.69h-0.033v0.006l-0.003,0.016l-0.005,0.015l-0.006,0.014
			l-0.012,0.013l-0.013,0.01l-0.014,0.007l-0.016,0.005l-0.015,0.001H13.3v0.001H9.929H6.854v0.032H5.318v1.69H5.285v0.209
			l-0.001,0.014l-0.006,0.011l-0.015,0.022l-0.008,0.012l-0.01,0.009l-0.013,0.008l-0.011,0.003l-1.056,0.209v0.001
			c0.003,0.01-0.086,0.021-0.223,0.043l-0.229,0.045l-0.001-0.003c-0.12,0.026-0.265,0.067-0.408,0.113
			c-0.05,0.015-0.099,0.031-0.147,0.05c-0.17,0.062-0.345,0.136-0.511,0.239c-0.703,0.397-1.189,1.057-1.189,1.057
			s-0.249,0.312-0.485,0.765c-0.004,0.007-0.008,0.015-0.012,0.022c-0.018,0.027-0.028,0.059-0.045,0.085
			C0.835,23,0.758,23.179,0.696,23.367C0.415,24.127,0.435,24.94,0.435,24.94z M25.124,17.163c1.835,0,3.374,1.475,3.374,3.382
			c0,1.123-0.538,2.117-1.367,2.748c0.008,0.025,1.424,5.688,1.424,5.688l0.017,0.071l0.01,0.071l0.005,0.07l-0.001,0.072
			l-0.007,0.067l-0.013,0.067l-0.021,0.063l-0.011,0.03l-0.008,0.02l-0.001,0.004l0,0l-0.001,0.002l-0.001,0.002l-0.006,0.004
			l-0.058,0.037l-0.06,0.035l-0.062,0.028l-0.064,0.021l-0.068,0.021l-0.067,0.016l-0.073,0.008l-0.074,0.004l-5.62-0.014
			l-0.074-0.002l-0.073-0.01l-0.073-0.014l-0.069-0.021l-0.065-0.023l-0.062-0.028l-0.062-0.033l-0.028-0.021l-0.014-0.009
			l-0.003-0.004l-0.003-0.002h-0.001l-0.003-0.009l-0.021-0.063L21.8,29.381l-0.011-0.067l-0.005-0.07v-0.071L21.79,29.1
			l0.012-0.072l0.018-0.072l1.428-5.469c-1.021-0.6-1.578-1.697-1.578-2.966C21.666,18.611,23.217,17.163,25.124,17.163z
			 M3.451,28.915v0.004c-0.027-0.011-0.05-0.015-0.079-0.021c-0.045-0.015-0.089-0.041-0.135-0.061
			C3.311,28.859,3.378,28.894,3.451,28.915z"/>
	</g>
</g>
</svg>