<?xml version="1.0" encoding="iso-8859-1"?>
<!-- Uploaded to: SVG Repo, www.svgrepo.com, Generator: SVG Repo Mixer Tools -->
<!DOCTYPE svg PUBLIC "-//W3C//DTD SVG 1.1//EN" "http://www.w3.org/Graphics/SVG/1.1/DTD/svg11.dtd">
<svg fill="#000000" version="1.1" id="Capa_1" xmlns="http://www.w3.org/2000/svg" xmlns:xlink="http://www.w3.org/1999/xlink" 
	 width="800px" height="800px" viewBox="0 0 47.77 47.77" xml:space="preserve"
	>
<g>
	<path d="M39.354,23.699c-0.002,0-0.004,0-0.006,0c-0.057-4.646-1.136-4.554-1.266-4.712c-0.135-0.163,0.781-4.294-1.792-4.48
		c-3.604-0.069-3.396-6.975-3.396-6.975H30.84c0.02-0.21,0.032-0.423,0.032-0.638C30.872,3.086,27.785,0,23.978,0
		s-6.894,3.086-6.894,6.894c0,0.215,0.013,0.428,0.032,0.638h-2.24c0,0,0.209,6.906-3.396,6.975
		c-2.574,0.186-1.658,4.317-1.792,4.48c-0.131,0.158-1.209,0.066-1.267,4.712c-0.001,0-0.004,0-0.005,0
		c0,0.066,0.002,0.122,0.002,0.186c0.001,0.064-0.001,0.119-0.001,0.186c0.001,0,0.004,0,0.005,0
		c0.057,4.646,1.136,4.554,1.267,4.712c0.134,0.163-0.781,4.294,1.792,4.479c3.605,0.069,3.396,6.975,3.396,6.975h2.054
		c-0.02,0.211-0.032,0.424-0.032,0.639c0,3.807,3.087,6.895,6.894,6.895c3.807,0,6.895-3.086,6.895-6.895
		c0-0.215-0.014-0.428-0.033-0.639h2.24c0,0-0.209-6.905,3.396-6.975c2.575-0.186,1.658-4.316,1.792-4.479
		c0.13-0.158,1.209-0.066,1.267-4.712h0.004c0-0.066-0.002-0.122-0.002-0.187C39.352,23.82,39.354,23.765,39.354,23.699z
		 M19.943,31.945c2.349-8.492,0,0,2.349-8.492c-1.453-0.586-2.479-2.01-2.479-3.672c0-2.187,1.772-3.958,3.959-3.958
		c2.186,0,3.958,1.771,3.958,3.958c0,1.489-0.821,2.785-2.035,3.461c2.261,8.703,2.261,8.703,2.261,8.703
		S20.24,31.945,19.943,31.945z"/>
</g>
</svg>